<?xml version="1.0" encoding="UTF-8"?>
<svg xmlns="http://www.w3.org/2000/svg" width="40" height="40" viewBox="0 0 40 40" fill="none">
  <g clip-path="url(#clip0_641_2516)">
    <path d="M40 19.4193C39.8384 25.5767 37.9495 30.6259 33.7423 34.6894C30.8784 37.4545 27.4122 39.0466 23.4904 39.6874C20.1176 40.2394 16.7804 40.1087 13.5692 38.8981C6.33125 36.1686 1.78198 31.0242 0.337964 23.443C-1.50168 13.793 4.34678 4.0645 13.6835 1.09348C21.0264 -1.24403 27.7154 0.193395 33.5629 5.14753C37.005 8.06418 38.938 11.9092 39.6674 16.3395C39.8552 17.4832 39.9192 18.6467 40 19.4193ZM15.647 36.5303C15.434 36.2773 15.2157 36.0359 15.0174 35.7787C14.3699 34.9361 14.225 34.0371 14.7361 33.0711C14.797 32.9572 14.8526 32.8338 14.8757 32.7073C14.9387 32.3759 15.1213 32.193 15.4529 32.0978C16.0836 31.918 16.453 31.4821 16.5044 30.8277C16.5285 30.5193 16.4729 30.2046 16.4498 29.8921C16.4215 29.5189 16.5569 29.2836 16.9389 29.1571C17.8141 28.8665 17.9537 28.6355 17.9064 27.6779C17.8907 27.3685 17.9747 27.1552 18.3052 27.0559C19.1101 26.8134 19.5352 26.2259 19.7576 25.4449C19.9308 24.8376 20.1186 24.2647 19.7776 23.6322C19.5215 23.1566 19.1637 22.844 18.7197 22.5691C18.2465 22.2763 17.8109 21.923 17.3555 21.601C17.2736 21.5435 17.1666 21.4641 17.0837 21.4756C16.5097 21.5582 16.304 21.1965 16.1151 20.7574C15.9944 20.4772 15.8559 20.1249 15.6187 19.989C15.1045 19.6932 14.5357 19.4705 13.9648 19.3022C13.3782 19.1297 12.8199 19.2761 12.3781 19.7319C12.1965 19.919 12.0706 19.8834 11.9625 19.6608C11.8313 19.3911 11.7033 19.1182 11.5501 18.86C11.4818 18.746 11.3664 18.6018 11.252 18.5819C10.7095 18.4857 10.0987 18.4836 9.7167 18.8548C9.20143 19.3555 8.63264 19.3043 8.03867 19.2834C7.95261 19.2802 7.7931 19.1046 7.80255 19.0252C7.84977 18.6467 7.65772 18.4052 7.40061 18.1826C7.17394 17.985 7.02702 17.7613 7.0648 17.432C7.07529 17.3442 6.94096 17.1842 6.84232 17.1508C6.52644 17.0441 6.27248 17.1445 6.0542 17.4194C5.73412 17.825 5.55257 17.7885 5.33114 17.317C5.27028 17.1874 5.21885 17.0525 5.15904 16.9218C4.90298 16.3573 4.96069 16.1702 5.52214 15.8932C5.71838 15.7959 5.93771 15.7259 6.15389 15.6924C7.12357 15.5429 8.03342 15.7447 8.86876 16.2423C9.11118 16.3866 9.27489 16.3814 9.49527 16.2036C10.2435 15.5984 10.7598 14.8614 10.9676 13.909C11.081 13.3884 11.1754 12.8396 11.4189 12.3764C12.164 10.9631 12.8388 10.5627 13.991 10.6589C15.0562 10.7488 15.0593 10.7164 15.0205 9.63332C15.0205 9.62078 15.0184 9.60719 15.0174 9.59464C14.9932 9.31971 15.1045 9.2413 15.3679 9.33329C15.8747 9.50997 16.3816 9.68559 16.8969 9.83613C17.0281 9.87481 17.2369 9.87063 17.3251 9.79222C17.7312 9.43156 18.1069 9.03745 18.5739 8.57643C17.9883 8.6287 17.8172 8.30044 17.6357 7.95233C17.4143 7.52476 17.1792 7.09928 16.8969 6.7104C16.6366 6.35183 16.3953 6.37273 16.0112 6.56195C15.6302 6.74908 15.221 6.93202 14.8064 6.98847C14.267 7.06165 13.7098 7.00729 13.1599 7.00833C12.2332 7.01042 11.8995 7.23832 11.57 8.09659C11.443 8.42589 11.3643 8.42066 11.0768 8.15513C10.9078 7.99937 10.6916 7.8227 10.4796 7.79761C10.0252 7.7422 9.92764 7.68993 9.93603 7.23728C9.93918 7.09406 9.97696 6.94666 9.95387 6.80762C9.89825 6.471 10.0483 6.29015 10.3527 6.19083C10.8123 6.04239 11.2625 5.8469 11.7337 5.75386C11.9499 5.711 12.2962 5.79149 12.4253 5.94621C12.7191 6.3006 13.0014 6.30165 13.3939 6.17202C14.0508 5.95667 14.7193 5.76849 15.3931 5.61482C15.711 5.54269 16.0532 5.57614 16.4666 5.55732C16.1675 5.00431 15.9356 4.49311 15.6281 4.03C15.2566 3.46967 14.2051 3.21773 13.565 3.48535C13.4841 3.5188 13.4222 3.59616 13.3488 3.65052C13.0046 3.90664 12.6834 4.20354 12.3098 4.40739C11.4724 4.86527 11.465 5.03881 10.6958 4.18785C10.5153 3.98923 10.3642 3.96205 10.127 4.11572C5.46022 7.13064 2.58374 11.3425 1.56999 16.8006C1.44721 17.4623 1.69383 17.8167 2.36861 17.87C3.1158 17.9296 3.72237 18.2359 4.25548 18.7335C4.72038 19.1673 5.26083 19.3649 5.90833 19.3053C6.09408 19.2886 6.36273 19.3503 6.47292 19.4789C6.90738 19.9848 7.43 20.1113 8.06385 20.012C8.40702 19.9577 8.56758 20.1291 8.50356 20.4678C8.46998 20.6455 8.343 20.8107 8.23701 20.9665C8.06175 21.2226 7.78995 21.4411 7.6955 21.7212C7.01547 23.743 6.73423 23.5611 8.13102 25.4125C8.68826 26.1516 9.35675 26.6189 10.3306 26.5102C10.6066 26.4788 10.7231 26.6179 10.6748 26.8865C10.5636 27.5086 10.7325 28.0793 11.0012 28.6271C11.2373 29.107 11.4986 29.5753 11.7452 30.051C12.0202 30.5831 12.1703 31.1382 12.1199 31.7476C12.101 31.9734 12.1356 32.2222 12.2175 32.4334C12.611 33.4548 13.0486 34.4604 13.4327 35.4849C13.8042 36.4822 14.5913 36.8774 15.647 36.5303ZM34.5546 31.8762C34.6238 31.8177 34.6585 31.7968 34.6815 31.7675C38.577 26.7935 39.723 21.2404 38.2129 15.129C38.1908 15.0412 38.1279 14.9324 38.0523 14.8927C37.6934 14.7056 37.3293 14.5289 36.9567 14.3721C36.835 14.3209 36.6576 14.2843 36.5506 14.3355C35.9052 14.646 35.2168 14.8896 34.7309 15.4645C34.6585 15.5503 34.4475 15.6276 34.372 15.5837C33.8095 15.2628 33.2711 14.8979 32.7107 14.5718C32.4736 14.4338 32.2091 14.3031 31.9436 14.2655C31.5847 14.2132 31.2111 14.2602 30.8448 14.2529C30.3904 14.2446 29.9675 14.3198 29.5698 14.5665C29.0451 14.8917 28.4595 15.0129 27.8403 14.991C27.0826 14.9638 26.6429 15.3569 26.5957 16.1158C26.5716 16.5058 26.5737 16.9009 26.6041 17.2898C26.6314 17.6494 26.5013 17.9076 26.2546 18.1585C26.0899 18.3258 25.8936 18.5589 25.8863 18.769C25.8506 19.7852 25.88 20.795 26.1623 21.7955C26.6944 23.6876 28.8814 23.9845 30.063 23.3228C31.2216 22.6746 32.3172 22.8241 33.4264 23.4075C33.7192 23.5611 33.8378 23.765 33.8105 24.0995C33.7549 24.7801 33.8766 25.4272 34.2828 25.998C34.4801 26.276 34.4517 26.5405 34.2313 26.782C34.011 27.0224 33.7801 27.2556 33.5419 27.4782C33.0633 27.9267 33.0854 27.911 33.3572 28.5038C33.8493 29.5774 34.6711 30.535 34.5546 31.8762ZM30.9288 9.77654C30.5227 9.57896 30.2099 9.34061 29.8657 9.27475C28.6736 9.04581 28.8069 9.11899 28.2769 10.0839C28.0009 10.5867 28.2926 11.6792 28.7418 12.0283C28.7712 12.0513 28.8089 12.0785 28.8436 12.0785C29.4732 12.0775 30.084 12.1862 30.6675 11.7137C31.4273 11.1 32.292 10.615 33.1788 10.0316C33.3824 10.5355 33.6678 11.0331 33.7717 11.5663C33.8525 11.9792 33.9879 12.32 34.2859 12.5793C34.4045 12.6827 34.6511 12.7329 34.8022 12.6869C35.0982 12.597 35.3689 12.4235 35.6491 12.2824C35.9199 12.1465 35.9419 11.9876 35.7121 11.7764C35.4235 11.5109 35.158 11.2202 34.8673 10.9558C34.5483 10.6651 34.7403 10.4686 34.9554 10.2438C35.1758 10.0138 35.3563 10.0065 35.5725 10.2512C35.7971 10.5052 36.0374 10.7488 36.2924 10.9725C36.5411 11.191 36.7101 11.423 36.6964 11.7753C36.6881 11.9928 36.7846 12.1559 37.0889 12.0691C36.2284 10.2428 35.116 8.61406 33.7203 7.14633C33.4222 7.56867 33.0455 7.81433 32.5208 7.77775C32.377 7.76729 32.2322 7.77775 32.0884 7.78402C31.2594 7.81956 30.9319 8.15722 30.9288 8.97995C30.9277 9.26221 30.9288 9.54447 30.9288 9.77654ZM31.6571 5.24161C31.7484 5.91485 32.4704 6.54627 33.3687 6.75012C32.7684 6.22011 32.2385 5.75386 31.6571 5.24161Z" fill="#302290"></path>
  </g>
  <defs>
    <clipPath id="clip0_641_2516">
      <rect width="40" height="40" fill="white"></rect>
    </clipPath>
  </defs>
</svg>
