<?xml version="1.0" encoding="UTF-8"?>
<svg xmlns="http://www.w3.org/2000/svg" width="40" height="40" viewBox="0 0 40 40" fill="none">
  <g clip-path="url(#clip0_641_2499)">
    <path d="M17.4517 31.725C12.3044 31.725 7.19258 31.725 2.04419 31.725C2.04419 27.0393 2.04419 22.3676 2.04419 17.6637C9.14383 17.6637 16.2413 17.6637 23.3679 17.6637C23.3765 17.7614 23.3926 17.8645 23.3926 17.9676C23.3937 20.5037 23.3937 23.0398 23.3948 25.5759C23.3948 25.7691 23.4013 25.9087 23.1407 25.9839C20.2493 26.8139 18.3767 28.6778 17.5141 31.5511C17.4991 31.6015 17.4786 31.6509 17.4517 31.725ZM10.3865 27.0039C10.3865 27.6181 10.3682 28.1796 10.3908 28.739C10.4274 29.671 11.2028 30.4312 12.1375 30.4741C12.3927 30.4859 12.649 30.4795 12.9042 30.4795C14.2955 30.4784 15.0245 29.759 15.0299 28.3804C15.032 27.9294 15.0299 27.4785 15.0299 27.0039C15.6146 27.0039 16.139 27.0125 16.6624 27.0018C17.5949 26.9824 18.339 26.3532 18.4865 25.4352C18.5415 25.0938 18.5328 24.7405 18.5307 24.3926C18.5253 23.1385 17.7446 22.3612 16.4879 22.3515C16.0184 22.3483 15.5489 22.3504 15.0245 22.3504C15.0245 21.7824 15.0428 21.2488 15.0202 20.7163C14.976 19.6383 14.1996 18.8952 13.1217 18.8748C12.8794 18.8705 12.6371 18.8727 12.3948 18.8738C11.1532 18.8813 10.3865 19.6447 10.379 20.8848C10.3757 21.3637 10.379 21.8415 10.379 22.3515C9.81362 22.3515 9.3032 22.3408 8.79385 22.3537C7.68901 22.3827 6.92876 23.1332 6.88353 24.2337C6.87061 24.5548 6.86953 24.879 6.88891 25.2001C6.95353 26.2523 7.73101 26.9889 8.78524 27.0028C9.29782 27.0093 9.80932 27.0039 10.3865 27.0039Z" fill="#302290"></path>
    <path d="M23.3937 16.1851C16.2531 16.1851 9.15672 16.1851 2.02155 16.1851C2.01832 14.6519 1.79541 13.1229 2.86149 11.7861C3.45375 11.0442 3.92541 10.2078 4.44014 9.40571C4.56721 9.20814 4.70074 9.11258 4.95272 9.11366C10.1194 9.12225 15.285 9.12225 20.4517 9.11366C20.7016 9.11366 20.8373 9.2017 20.9665 9.40141C21.5695 10.3377 22.1844 11.2664 22.8003 12.1941C23.2052 12.8051 23.4066 13.4708 23.3969 14.2052C23.3883 14.858 23.3937 15.5108 23.3937 16.1851Z" fill="#302290"></path>
    <path d="M20.4313 7.66849C15.2786 7.66849 10.1549 7.66849 4.97961 7.66849C4.97315 7.53964 4.96238 7.41294 4.96238 7.28517C4.96131 5.88935 4.95807 4.4946 4.96238 3.09878C4.96884 1.21871 6.17922 0.00863826 8.07016 0.00434341C11.165 -0.00209885 14.2599 -0.00209885 17.3547 0.00434341C19.2177 0.00863826 20.4366 1.21871 20.4528 3.07623C20.4646 4.48494 20.456 5.89364 20.4539 7.30235C20.4539 7.42046 20.4399 7.53749 20.4313 7.66849Z" fill="#302290"></path>
    <path d="M2.00758 33.1809C7.10105 33.1809 12.1525 33.1809 17.2503 33.1809C17.218 34.4994 17.4474 35.7632 18.0224 36.9539C18.5931 38.1361 19.418 39.1089 20.5605 39.9678C20.2924 39.9818 20.1287 39.9968 19.964 39.9968C15.1354 39.9979 10.3057 40.0022 5.47717 39.9957C3.39886 39.9925 2.01619 38.6031 2.00758 36.5352C2.00435 35.556 2.0065 34.5767 2.0065 33.5975C2.00758 33.4687 2.00758 33.3377 2.00758 33.1809Z" fill="#302290"></path>
    <path d="M37.9591 29.8116C35.1389 29.8116 32.3423 29.8116 29.5145 29.8116C29.5016 29.7042 29.48 29.6022 29.479 29.5013C29.4768 28.1334 29.4639 26.7655 29.4811 25.3976C29.5091 23.1567 31.0253 21.3905 33.1349 21.1178C35.5664 20.8021 37.7341 22.4084 37.9333 24.836C38.0679 26.4702 37.9591 28.1248 37.9591 29.8116Z" fill="#302290"></path>
    <path d="M29.493 31.2804C32.3434 31.2804 35.1496 31.2804 37.9354 31.2804C37.9624 31.3158 37.9785 31.3266 37.9785 31.3373C37.9667 33.0123 38.0485 34.6948 37.9182 36.3601C37.7545 38.456 35.8345 40.0258 33.6862 39.9946C31.5293 39.9635 29.6803 38.3583 29.5371 36.2592C29.4316 34.7098 29.4908 33.1497 29.4779 31.5939C29.4768 31.5016 29.4865 31.4092 29.493 31.2804Z" fill="#302290"></path>
    <path d="M28.878 38.7288C27.1702 40.1364 23.9784 40.596 21.45 38.8404C19.0604 37.1816 18.0439 34.0173 19.096 31.3567C19.6979 31.6391 20.2988 31.9172 20.8975 32.2017C23.1525 33.2711 25.4031 34.3459 27.6623 35.4056C27.9563 35.5431 28.0726 35.7095 28.0736 36.0381C28.0747 37.0098 28.3967 37.8988 28.878 38.7288Z" fill="#302290"></path>
    <path d="M19.7271 30.0672C20.7899 28.5286 22.1876 27.5858 23.9795 27.2562C25.2825 27.0168 26.551 27.1671 27.756 27.7276C27.8885 27.7899 28.0414 27.9874 28.0435 28.1238C28.0618 30.0006 28.0564 31.8775 28.0554 33.7543C28.0554 33.8166 28.0403 33.8789 28.0241 34.0023C25.2534 32.6892 22.5193 31.3922 19.7271 30.0672Z" fill="#302290"></path>
    <path d="M11.8079 23.7355C11.8079 23.1803 11.8079 22.6059 11.8079 22.0326C11.8079 21.6299 11.8069 21.2283 11.8101 20.8257C11.8133 20.4832 11.9824 20.3039 12.3345 20.3082C12.5628 20.3114 12.7922 20.3039 13.0205 20.3092C13.4523 20.3178 13.6009 20.4585 13.6041 20.8923C13.6117 21.6965 13.6063 22.5018 13.6063 23.306C13.6063 23.4509 13.6063 23.5948 13.6063 23.7859C14.5377 23.7859 15.4348 23.7859 16.3318 23.7859C17.0016 23.7859 17.0942 23.8793 17.0942 24.5547C17.0953 25.5672 17.0953 25.5683 16.0583 25.5683C15.2549 25.5683 14.4527 25.5683 13.6063 25.5683C13.6063 26.4691 13.6063 27.3238 13.6063 28.1785C13.6063 28.9977 13.5503 29.0557 12.7459 29.0557C12.6791 29.0557 12.6113 29.0557 12.5445 29.0557C11.8941 29.0525 11.8101 28.9676 11.809 28.3019C11.8079 27.5514 11.809 26.7998 11.809 26.0493C11.809 25.9044 11.809 25.7605 11.809 25.5683C10.8808 25.5683 9.99884 25.5683 9.11583 25.5683C8.38681 25.5683 8.3082 25.491 8.3082 24.7651C8.3082 24.6449 8.30604 24.5236 8.30928 24.4033C8.31897 23.9298 8.46219 23.7891 8.94569 23.787C9.85993 23.7827 10.7742 23.7827 11.6895 23.7795C11.7121 23.7795 11.7369 23.7623 11.8079 23.7355Z" fill="#302290"></path>
  </g>
  <defs>
    <clipPath id="clip0_641_2499">
      <rect width="40" height="40" fill="white"></rect>
    </clipPath>
  </defs>
</svg>
