<?xml version="1.0" encoding="UTF-8"?>
<svg xmlns="http://www.w3.org/2000/svg" width="40" height="40" viewBox="0 0 40 40" fill="none">
  <g clip-path="url(#clip0_641_2484)">
    <path d="M15.275 8.69515C17.7674 11.1392 21.8353 11.4808 24.7774 8.68469C24.9656 8.90434 25.1643 9.11353 25.3351 9.34363C26.5168 10.9195 26.8863 12.7046 26.5935 14.6186C26.353 16.1771 24.99 17.3067 23.4075 17.3206C21.1451 17.3415 18.8828 17.3415 16.624 17.3206C14.8218 17.3032 13.4101 15.8528 13.3404 14.0573C13.2672 12.1677 13.6994 10.4558 14.9578 8.99847C15.0205 8.92526 15.0868 8.85553 15.1565 8.7858C15.1774 8.75791 15.2157 8.73699 15.275 8.69515Z" fill="#302290"></path>
    <path d="M1.90678 31.3187C4.33292 33.7174 8.41832 34.2194 11.444 31.3571C12.4236 32.3612 13.058 33.5466 13.2358 34.9272C13.3368 35.7012 13.3612 36.5135 13.2497 37.284C13.0231 38.8285 11.6671 39.9651 10.1124 39.9825C7.82225 40.0069 5.53205 40.0104 3.24534 39.9825C1.48848 39.9616 0.0836834 38.5113 0.0104807 36.7576C-0.0696936 34.854 0.36255 33.1282 1.62791 31.6569C1.71506 31.5523 1.8022 31.4442 1.90678 31.3187Z" fill="#302290"></path>
    <path d="M38.0793 31.3292C39.2645 32.5634 39.8954 33.9929 39.9826 35.6454C40.0105 36.1963 40.007 36.7611 39.9129 37.3015C39.6514 38.8146 38.3233 39.9582 36.7896 39.9756C34.4854 40.0035 32.1848 40.0035 29.8806 39.9756C28.2562 39.9547 26.8793 38.717 26.705 37.0609C26.4924 35.0667 26.9316 33.2259 28.2737 31.6674C28.3364 31.5942 28.4026 31.5245 28.4689 31.4512C28.4968 31.4234 28.5316 31.399 28.5978 31.3432C29.9155 32.6018 31.4841 33.3165 33.3281 33.313C35.1652 33.32 36.7268 32.6297 38.0793 31.3292Z" fill="#302290"></path>
    <path d="M20.0157 26.5074C18.5412 27.9857 17.126 29.3977 15.7212 30.8167C15.3796 31.1618 14.9891 31.3745 14.4941 31.3013C13.9713 31.2246 13.5983 30.9352 13.4205 30.4297C13.2358 29.9102 13.3438 29.4395 13.7307 29.049C14.5674 28.1984 15.4144 27.3581 16.2615 26.5144C16.9691 25.8067 17.6663 25.0919 18.3878 24.4016C18.6074 24.1889 18.6841 23.9728 18.6806 23.6729C18.6667 22.4945 18.6737 21.3126 18.6737 20.1342C18.6737 19.2521 19.2209 18.6525 20.0087 18.6525C20.7965 18.656 21.3369 19.2556 21.3369 20.1412C21.3403 21.3475 21.3264 22.5573 21.3473 23.7636C21.3508 23.9588 21.4484 24.1959 21.5843 24.3319C23.0449 25.8171 24.5194 27.2814 25.9904 28.7562C26.088 28.8538 26.1891 28.9514 26.2798 29.056C26.7922 29.6452 26.7817 30.4367 26.2554 30.9282C25.6976 31.4512 24.9133 31.4442 24.3486 30.8899C23.3029 29.8579 22.2641 28.8155 21.2288 27.7695C20.8314 27.3721 20.4445 26.9572 20.0157 26.5074Z" fill="#302290"></path>
    <path d="M20.0018 7.99442C17.8022 7.99442 16.007 6.19542 16.007 3.99547C16.007 1.79552 17.8057 0 20.0088 0C22.2118 0 24.0035 1.79901 24.0035 3.99895C24 6.20239 22.2048 7.99791 20.0018 7.99442Z" fill="#302290"></path>
    <path d="M2.68062 26.6295C2.69457 24.433 4.5072 22.6515 6.71025 22.6619C8.90633 22.6759 10.6876 24.4853 10.6737 26.6922C10.6597 28.8887 8.84707 30.6738 6.64402 30.6598C4.44794 30.6424 2.66668 28.8329 2.68062 26.6295Z" fill="#302290"></path>
    <path d="M37.3299 26.6539C37.3334 28.8573 35.5382 30.6529 33.3386 30.6564C31.139 30.6598 29.3403 28.8608 29.3369 26.6609C29.3369 24.4609 31.1321 22.6619 33.3316 22.6584C35.5312 22.6619 37.3264 24.454 37.3299 26.6539Z" fill="#302290"></path>
  </g>
  <defs>
    <clipPath id="clip0_641_2484">
      <rect width="40" height="40" fill="white"></rect>
    </clipPath>
  </defs>
</svg>
