<?xml version="1.0" encoding="UTF-8"?>
<svg xmlns="http://www.w3.org/2000/svg" width="40" height="40" viewBox="0 0 40 40" fill="none">
  <g clip-path="url(#clip0_897_2510)">
    <path d="M39.748 4.27768C39.1574 5.87543 38.5648 7.47318 37.9805 9.07301C37.6555 9.96355 37.0775 10.6062 36.213 10.9999C35.9391 11.1249 35.7568 11.0884 35.5339 10.8645C32.9384 8.25122 30.3346 5.64525 27.7235 3.04656C26.3112 1.6415 24.3062 1.48422 22.7533 2.6341C21.0119 3.92355 20.7286 6.4837 22.195 8.08353C23.0918 9.06156 24.0594 9.97396 24.9936 10.9166C25.0811 11.0051 25.1624 11.0988 25.2821 11.229H14.7304C14.8387 11.1082 14.9158 11.0134 15.0022 10.927C15.9198 10.0042 16.8666 9.10843 17.7519 8.1554C19.6922 6.06604 18.6684 2.66535 15.9031 1.9925C14.4981 1.65087 13.2816 2.04666 12.264 3.06218C10.4861 4.837 8.71137 6.61494 6.93556 8.39183C6.09504 9.23237 5.24932 10.0687 4.41714 10.9187C4.27653 11.0624 4.06406 11.102 3.87971 11.0259C3.0996 10.7041 2.48405 10.1927 2.17576 9.40527C1.47481 7.61483 0.772819 5.82335 0.153108 4.00375C-0.414527 2.33934 0.654084 0.525987 2.3674 0.089574L2.37053 0.0885324C2.56217 0.0395792 2.87984 0 3.07773 0C14.3075 0 25.5373 0 36.7671 0C37.3118 0 37.8544 0.116655 38.3367 0.370795C38.646 0.533278 38.9293 0.741589 39.1803 1.01448C39.3043 1.14988 39.4095 1.29362 39.5021 1.4436C40.0198 2.29351 40.0927 3.3434 39.748 4.27768Z" fill="#302290"></path>
    <path d="M40 36.2139C40 36.6076 39.9448 36.9993 39.8261 37.3742C39.825 37.3763 39.825 37.3784 39.824 37.3805C39.347 38.8939 37.9367 39.9604 36.3422 39.9896C35.2881 40.0083 34.2341 39.9958 33.179 39.9958C23.4303 39.9958 13.6816 39.9969 3.93283 39.9958C2.04141 39.9958 0.559311 38.8876 0.117702 37.1534C-0.466597 34.8589 1.25297 32.5758 3.62037 32.5018C3.7891 32.4966 3.95887 32.4976 4.1276 32.4976C14.7096 32.4976 25.2905 32.4976 35.8724 32.4976C38.1013 32.4976 39.3855 33.4892 39.949 35.6431C39.9761 35.7421 39.9979 35.9067 39.9979 36.0098V36.2139H40ZM19.9953 38.121C25.3061 38.121 30.6158 38.121 35.9266 38.121C36.0693 38.121 36.213 38.1252 36.3557 38.1168C37.5357 38.0491 38.3596 36.9118 38.0586 35.7723C37.8222 34.8807 37.0983 34.3724 36.0589 34.3724C25.3602 34.3724 14.6606 34.3724 3.96199 34.3724C3.84534 34.3724 3.72765 34.3693 3.611 34.3777C2.65487 34.4495 1.89351 35.2609 1.88206 36.2191C1.86956 37.3023 2.71736 38.12 3.8693 38.12C9.24464 38.1221 14.62 38.121 19.9953 38.121Z" fill="#302290"></path>
    <path d="M36.2255 13.3371C35.0486 14.5151 33.8904 15.6723 32.7145 16.8493C32.6864 16.8264 32.6353 16.7909 32.5916 16.7472C29.4889 13.6454 26.383 10.5478 23.2876 7.43983C22.2211 6.36911 22.244 4.76719 23.3105 3.78917C24.2271 2.94863 25.5936 2.90072 26.5653 3.67668C26.6163 3.7173 26.6674 3.75896 26.7132 3.80479C29.8795 6.97113 33.0447 10.1385 36.2088 13.3048C36.2172 13.3132 36.2203 13.3278 36.2255 13.3371Z" fill="#302290"></path>
    <path d="M7.30426 16.8347C6.1367 15.6671 4.97956 14.5089 3.79846 13.3277C3.81513 13.3059 3.86095 13.2309 3.92032 13.1715C7.00325 10.0875 10.0841 7.00236 13.1722 3.92352C13.9909 3.10694 15.0491 2.90696 16.0375 3.35274C16.9624 3.77041 17.5415 4.70573 17.4988 5.7327C17.4727 6.35451 17.2488 6.90654 16.8103 7.34712C13.667 10.4999 10.5184 13.6454 7.37091 16.793C7.34383 16.818 7.30738 16.8326 7.30426 16.8347Z" fill="#302290"></path>
    <path d="M15.6282 24.3922C18.5476 24.3922 21.4305 24.3922 24.377 24.3922C24.377 24.5068 24.377 24.6297 24.377 24.7526C24.377 26.2483 24.3791 27.7429 24.376 29.2386C24.3729 30.4614 23.5969 31.2436 22.3815 31.2457C20.7952 31.2488 19.209 31.2488 17.6227 31.2457C16.426 31.2425 15.6334 30.4603 15.6292 29.2761C15.625 27.7544 15.6282 26.2337 15.6282 24.712C15.6282 24.612 15.6282 24.5109 15.6282 24.3922ZM19.3777 28.121C19.3777 28.3001 19.3777 28.4272 19.3777 28.5553C19.3777 28.698 19.3746 28.8417 19.3787 28.9844C19.3923 29.4104 19.6391 29.6823 20.0047 29.6812C20.3703 29.6792 20.615 29.4073 20.6254 28.9792C20.6317 28.6991 20.6265 28.4189 20.6265 28.122C20.9556 28.122 21.2274 28.1283 21.4993 28.121C21.9201 28.1085 22.1929 27.8502 22.1856 27.4846C22.1773 27.1326 21.9138 26.8878 21.5128 26.8753C21.2306 26.867 20.9473 26.8732 20.7015 26.8732C20.6567 26.8263 20.64 26.817 20.64 26.8076C20.6348 26.5347 20.6348 26.2618 20.6254 25.9889C20.6109 25.5869 20.3692 25.3223 20.0182 25.3129C19.6526 25.3036 19.3912 25.5765 19.3798 25.9962C19.3714 26.2774 19.3787 26.5597 19.3787 26.8732C19.0527 26.8732 18.7684 26.8659 18.4861 26.8753C18.0862 26.8888 17.8237 27.1378 17.8196 27.4908C17.8154 27.845 18.0768 28.1043 18.4726 28.1199C18.7559 28.1304 19.0402 28.121 19.3777 28.121Z" fill="#302290"></path>
    <path d="M8.58535 21.3405C9.02175 21.7623 9.43315 22.1769 9.86747 22.5674C9.95704 22.6476 10.1289 22.6622 10.2622 22.6643C10.9902 22.6737 11.7193 22.6664 12.4473 22.6716C12.7463 22.6737 13.0119 22.7976 13.0723 23.0976C13.1108 23.2882 13.065 23.5538 12.9483 23.6986C12.841 23.8319 12.59 23.9017 12.3994 23.9079C11.7266 23.9319 11.0517 23.9173 10.3497 23.9173C10.3497 24.6964 10.3497 25.4442 10.3497 26.2473C10.9382 26.2473 11.5308 26.2462 12.1234 26.2473C12.2797 26.2473 12.439 26.2316 12.5911 26.2608C12.9254 26.3243 13.1264 26.5379 13.1202 26.8837C13.1139 27.2284 12.9077 27.4742 12.5702 27.4836C11.5954 27.5086 10.6195 27.5055 9.64354 27.4857C9.28213 27.4784 9.07695 27.1972 9.07383 26.7774C9.06758 25.815 9.08424 24.8516 9.06029 23.8892C9.05508 23.6965 8.95093 23.4726 8.82178 23.3226C8.48432 22.9299 8.10937 22.5695 7.75421 22.2029C7.05846 22.7424 6.92307 22.733 6.33877 22.1498C4.4713 20.2823 2.60592 18.4127 0.735329 16.5493C0.354129 16.1691 0.129158 15.7307 0.193733 15.189C0.269765 14.5558 0.610345 14.0996 1.21964 13.884C1.80915 13.6757 2.36845 13.7756 2.81214 14.2141C4.80876 16.191 6.79392 18.1804 8.77595 20.1719C9.12278 20.5187 9.07279 20.7999 8.58535 21.3405Z" fill="#302290"></path>
    <path d="M32.276 22.2049C31.7927 22.6914 31.3282 23.1632 30.8595 23.6298C30.5148 23.9725 30.1409 24.0089 29.869 23.7371C29.593 23.46 29.6274 23.0976 29.9753 22.7476C30.4419 22.2779 30.9158 21.8154 31.4115 21.3248C31.3334 21.2384 31.2751 21.1769 31.2199 21.1124C30.9251 20.7718 30.9272 20.4833 31.248 20.151C31.6178 19.7677 32 19.3959 32.377 19.0188C33.931 17.4648 35.4871 15.9129 37.0369 14.3537C37.4045 13.9839 37.8222 13.7517 38.3523 13.7912C38.9918 13.8402 39.4563 14.161 39.699 14.7588C39.949 15.3723 39.8354 15.9441 39.3845 16.4191C38.8127 17.0232 38.2127 17.6013 37.6243 18.1897C36.2911 19.5229 34.958 20.8561 33.6238 22.1893C33.0874 22.7278 32.8988 22.7351 32.276 22.2049Z" fill="#302290"></path>
    <path d="M15.6844 23.0997C15.7625 22.2925 16.0542 21.5874 16.5666 20.9989C16.8228 20.7041 16.9113 20.4135 16.8811 20.049C16.8645 19.8438 16.878 19.6355 16.878 19.4011C18.9569 19.4011 21.016 19.4011 23.0782 19.4011C23.0897 19.4178 23.1178 19.4397 23.1157 19.4584C23.0355 20.1979 23.2511 20.8093 23.7136 21.4165C24.0583 21.8696 24.1844 22.4883 24.4343 23.0987C21.4462 23.0997 18.5924 23.0997 15.6844 23.0997Z" fill="#302290"></path>
    <path d="M20.0026 16.2484C21.0816 16.2484 22.1607 16.2473 23.2397 16.2484C23.9448 16.2494 24.3812 16.615 24.375 17.1941C24.3687 17.7617 23.9406 18.1221 23.2605 18.1221C21.0639 18.1242 18.8673 18.1263 16.6697 18.1211C15.8865 18.119 15.4022 17.4274 15.7261 16.7827C15.9136 16.4098 16.2333 16.2463 16.6489 16.2473C17.7664 16.2504 18.885 16.2484 20.0026 16.2484Z" fill="#302290"></path>
    <path d="M20.0026 35.6213C25.2623 35.6213 30.521 35.6213 35.7808 35.6213C35.8714 35.6213 35.963 35.6213 36.0536 35.6213C36.5807 35.6244 36.8712 35.8463 36.8712 36.2463C36.8712 36.6452 36.5796 36.8712 36.0536 36.8712C25.3529 36.8722 14.6512 36.8712 3.95052 36.8712C3.84637 36.8712 3.73805 36.8806 3.63911 36.8556C3.32665 36.7774 3.13709 36.5743 3.13605 36.2463C3.13605 35.9182 3.32561 35.7109 3.63911 35.638C3.77555 35.6067 3.92449 35.6213 4.06718 35.6213C9.38003 35.6213 14.6908 35.6213 20.0026 35.6213Z" fill="#302290"></path>
  </g>
  <defs>
    <clipPath id="clip0_897_2510">
      <rect width="40" height="40" fill="white"></rect>
    </clipPath>
  </defs>
</svg>
