<svg width="44" height="44" viewBox="0 0 44 44" fill="none" xmlns="http://www.w3.org/2000/svg">
<path fill-rule="evenodd" clip-rule="evenodd" d="M22.0064 6.78979C13.5615 6.78979 6.7146 13.7415 6.7146 22.3138C6.7146 30.8877 13.5615 37.8384 22.0064 37.8384C30.4522 37.8384 37.2978 30.8877 37.2978 22.3138C37.2978 13.7415 30.4522 6.78979 22.0064 6.78979ZM30.4839 20.51L22.0925 20.5152V33.966L15.6215 33.9494L15.6049 12.0171L30.2672 11.994L30.274 13.7838L22.0925 13.7877L22.113 18.7124H30.4969L30.4839 20.51Z" fill="#1B1464"/>
<path fill-rule="evenodd" clip-rule="evenodd" d="M16.9691 5.51196L15.8886 5.75468L16.6159 0.751911L17.7998 0.487067L20.5535 4.70994L19.4377 4.95982L18.9125 4.08134L17.1007 4.48414L16.9691 5.51196ZM17.1979 3.62876L18.4498 3.3457L17.4366 1.66032L17.4214 1.66227L17.1979 3.62876ZM31.3355 7.5266L30.4549 6.85115L34.6876 4.16561L35.6531 4.90678L34.2619 9.76932L33.3528 9.07174L33.6722 8.09533L32.1925 6.96275L31.3355 7.5266ZM32.9017 6.47991L33.9243 7.26468L34.5337 5.38702L34.523 5.37791L32.9017 6.47991ZM0.128303 20.0599L0.614302 17.5321C0.871557 16.1978 1.81407 16.1298 2.2087 16.2086C2.70928 16.3065 3.08836 16.6686 3.14603 17.1957C3.38967 16.8141 3.57338 16.6195 4.42453 16.7857C5.09002 16.9172 5.25656 16.9481 5.37611 16.7421L5.49534 16.7656L5.27437 17.9222C5.04434 17.9486 4.80101 17.9463 4.33154 17.8533C3.70817 17.7313 3.45836 17.7254 3.30965 18.4981L3.10456 19.5793L4.88752 19.9294L4.69118 20.9546L0.128303 20.0599ZM2.56834 18.202C2.67299 17.6597 2.55181 17.36 2.10048 17.2725C1.86105 17.2253 1.48132 17.2741 1.36468 17.8874L1.11391 19.1898L2.33506 19.4287L2.56834 18.202ZM3.82286 33.2972L5.38453 35.4911L6.17704 34.9094L4.74172 32.8944L5.40689 32.407L6.84253 34.4213L7.81841 33.7052L6.18416 31.415L6.85095 30.9257L9.08622 34.0621L5.322 36.8251L3.15704 33.7859L3.82286 33.2972ZM42.22 15.9193L41.2003 13.4173L40.2967 13.7986L41.235 16.0953L40.4736 16.4145L39.5369 14.1175L38.425 14.585L39.4903 17.198L38.7308 17.5178L37.2696 13.9392L41.5664 12.1327L42.9817 15.5995L42.22 15.9193ZM13.4067 37.5077L14.3314 38.0111L12.1425 42.165L11.2194 41.661L13.4067 37.5077ZM11.9711 5.49927L12.9609 7.36294L12.0378 7.86953L9.8272 3.71628L10.7519 3.20677L11.5894 4.78022L13.3131 3.83374L12.4752 2.25996L13.3993 1.75305L15.6093 5.90695L14.6846 6.41256L13.6941 4.55246L11.9711 5.49927ZM17.2345 39.1609L16.6328 41.0486L14.5268 40.3631L14.2728 41.1544L16.3788 41.8419L16.0558 42.8544L13.6488 42.0716L13.3954 42.8632L16.8019 43.9736L18.235 39.4866L17.2345 39.1609ZM35.1354 33.7534L35.9146 32.9585L37.9458 37.5689L37.0943 38.4402L32.5515 36.3901L33.3553 35.5676L34.2616 36.0241L35.5679 34.6894L35.1354 33.7534ZM35.9389 35.4631L35.0366 36.3849L36.7781 37.251L36.7878 37.2396L35.9389 35.4631ZM39.1996 33.4882L38.6861 34.4174C39.3111 34.708 40.4441 34.6436 41.1783 33.3135C41.8114 32.1682 41.5839 30.8606 40.1687 30.054C38.7703 29.2575 37.5745 29.6896 36.9213 30.8739C36.3047 31.9886 36.5697 32.9696 37.3496 33.6561L37.8618 32.7272C37.4261 32.3328 37.3613 31.8243 37.6448 31.3102C38.0783 30.5255 38.9067 30.5827 39.6354 30.9956C40.7807 31.646 40.6881 32.4558 40.4435 32.9012C40.0174 33.6704 39.4831 33.5513 39.1996 33.4882ZM30.2304 6.70246L31.8264 2.25931L30.3982 1.73125L28.298 4.92403L28.2854 4.9185L28.6865 1.10233L27.2457 0.568732L25.65 5.01155L26.5702 5.35285L27.905 1.63787L27.9174 1.6434L27.4469 5.67626L28.4134 6.03351L30.6292 2.64389L30.6412 2.64812L29.3096 6.36375L30.2304 6.70246ZM2.52168 28.5209L2.1507 27.522C1.52668 27.824 0.844665 28.7487 1.37667 30.1815C1.8348 31.4127 2.97204 32.0755 4.49451 31.4889C6.00013 30.9074 6.44369 29.6903 5.96935 28.4226C5.52385 27.2234 4.60953 26.8017 3.58829 26.966L3.96088 27.9645C4.53987 27.8777 4.9682 28.1555 5.17458 28.707C5.48821 29.5503 4.91052 30.1633 4.12872 30.4636C2.89687 30.938 2.34154 30.3481 2.16366 29.8679C1.85651 29.0431 2.29067 28.7015 2.52168 28.5209ZM9.61499 10.1057L8.46382 8.87002L9.34056 8.03058C10.3245 7.08541 9.77958 6.12722 9.4909 5.81877C8.86525 5.14462 8.0397 5.12803 7.33177 5.80804L5.65767 7.4137L8.84938 10.8388L9.61499 10.1057ZM8.62193 7.59883L7.91237 8.27753L6.97504 7.27151L7.58157 6.68977C8.05558 6.23654 8.38476 6.18383 8.69548 6.51667C8.83706 6.66992 9.19346 7.05092 8.62193 7.59883ZM28.4254 40.1666C28.3428 39.9167 28.067 39.4797 27.1887 39.7478C26.714 39.8936 26.2164 40.1633 26.3605 40.6423C26.4649 40.9963 26.854 40.9787 27.397 40.9383L27.9462 40.8915C28.7737 40.8228 29.572 40.7581 29.8707 41.753C30.0211 42.2574 29.9984 43.2367 28.438 43.7143C26.9651 44.1669 26.298 43.3782 26.1266 42.8261L27.0902 42.53C27.177 42.7252 27.4015 43.1788 28.2773 42.91C28.659 42.7919 29.0744 42.5203 28.9522 42.1113C28.8479 41.7579 28.5177 41.7758 28.3036 41.7927L27.05 41.8835C26.3495 41.9317 25.672 41.8656 25.4294 41.0496C25.024 39.6893 26.46 39.1179 26.8815 38.9871C28.6366 38.451 29.2224 39.3099 29.3906 39.8702L28.4254 40.1666ZM7.37324 38.8824L9.41022 36.3384L9.42188 36.3452L8.93524 40.1711L9.79642 40.8762L12.7202 37.2227L11.9591 36.5948L9.87289 39.2016L9.86155 39.1915L10.3527 35.2712L9.53658 34.5993L6.61087 38.2544L7.37324 38.8824ZM39.0428 25.1423L39.1779 24.0839L42.9833 24.5782L43.1825 23.046L44 23.1547L43.4683 27.2774L42.648 27.1687L42.8488 25.6398L39.0428 25.1423ZM38.9064 10.7099L39.5424 11.5565C40.0553 11.09 40.4438 10.0068 39.5304 8.79356C38.7441 7.75207 37.4721 7.44396 36.1864 8.44477C34.9141 9.43647 34.8344 10.723 35.6444 11.8009C36.4087 12.8163 37.4014 12.9569 38.3278 12.503L37.6917 11.6558C37.1643 11.905 36.6776 11.7664 36.3251 11.2975C35.7857 10.5811 36.1638 9.83211 36.8247 9.31576C37.8661 8.50691 38.563 8.91362 38.8685 9.31999C39.395 10.0189 39.0775 10.4714 38.9064 10.7099ZM40.9868 21.9024L43.9945 21.5116L43.86 20.4318L40.8135 20.8277C40.253 20.9019 39.8933 20.6468 39.8019 19.9209C39.7407 19.4267 39.9743 18.9806 40.6165 18.8964L43.618 18.5046L43.4826 17.4248L40.4162 17.8237C39.9558 17.8991 39.5949 18.0527 39.3454 18.3654C38.9456 18.8775 38.9288 19.5832 38.9871 20.0482C39.1481 21.3252 39.7695 22.0625 40.9868 21.9024ZM31.7179 37.8197L33.6631 41.1365L34.5629 40.5941L32.1906 36.543L29.143 38.3774L29.5714 39.1101L31.7179 37.8197ZM38.2814 28.1523L38.6038 27.1388L43.041 28.5717L42.7221 29.5858L38.2814 28.1523ZM23.44 44V40.775H20.2639V44H23.44ZM3.90256 11.1733L3.16352 10.8072L1.53867 14.1822L5.71339 16.257L7.39041 12.774L6.65169 12.4057L5.4273 14.9507L4.3445 14.4135L5.42439 12.1767L4.68405 11.808L3.60805 14.0455L2.73066 13.6083L3.90256 11.1733ZM21.2258 0L23.7595 0.135025C25.0931 0.208232 25.29 1.1482 25.268 1.55556C25.2405 2.07353 24.9379 2.50529 24.4347 2.63706C24.8374 2.82837 25.0538 2.98487 25.0075 3.86497C24.9725 4.55507 24.9622 4.72621 25.1815 4.81536L25.1753 4.94192L24.018 4.8788C23.9594 4.6517 23.9289 4.40703 23.9545 3.92061C23.9892 3.27574 23.9604 3.02489 23.1847 2.98454L22.1035 2.92598L22.0063 4.76883L20.9822 4.71482L21.2258 0ZM23.3716 2.19554C23.9163 2.22743 24.1917 2.06247 24.216 1.5972C24.228 1.34732 24.1292 0.973808 23.5152 0.940621L22.2088 0.870018L22.1447 2.1308L23.3716 2.19554ZM3.01967 21.9928C4.24179 21.8829 4.83925 22.6436 4.9507 23.9248C4.99152 24.3937 4.9507 25.0974 4.53177 25.5936C4.27225 25.8965 3.90451 26.0358 3.44151 26.0891L0.363526 26.366L0.266003 25.2806L3.27952 25.0122C3.92751 24.9543 4.17602 24.516 4.13098 24.0215C4.06651 23.2904 3.71821 23.0223 3.15607 23.0734L0.0955796 23.347L0 22.2619L3.01967 21.9928Z" fill="#1B1464"/>
<path fill-rule="evenodd" clip-rule="evenodd" d="M22.0931 33.9665V20.5154L30.4845 20.5102L30.4974 18.7129H22.1132L22.0931 13.7879L30.2748 13.7843L30.268 11.9941L15.6055 12.0172L15.622 33.9499L22.0931 33.9665Z" fill="white"/>
</svg>
