<svg width="48" height="48" viewBox="0 0 48 48" fill="none" xmlns="http://www.w3.org/2000/svg">
<g clip-path="url(#clip0_392_3644)">
<path d="M48 10.6928C47.87 10.7966 47.7275 10.8879 47.6113 11.0042C44.5059 14.1083 41.3992 17.2098 38.3062 20.3263C38.0313 20.6027 37.7864 20.6828 37.404 20.6027C35.497 20.1988 33.5825 19.8298 31.6742 19.4321C31.3668 19.3684 31.1856 19.4784 30.9832 19.681C27.4978 23.1777 24.0062 26.6682 20.5171 30.1625C20.3847 30.295 20.2672 30.4413 20.176 30.5451C19.275 29.6422 18.4089 28.773 17.5142 27.8751C17.5704 27.8138 17.6804 27.6887 17.7978 27.5712C21.2757 24.0895 24.751 20.604 28.2389 17.1323C28.535 16.8384 28.635 16.5832 28.5425 16.1543C28.1351 14.2783 27.7802 12.3912 27.3966 10.5102C27.3341 10.2063 27.3966 9.99498 27.6253 9.76736C30.7595 6.64832 33.8824 3.51802 37.0053 0.388972C37.1216 0.272665 37.2128 0.130094 37.3153 -0.0012207C37.3465 -0.0012207 37.3777 -0.0012207 37.409 -0.0012207C37.439 0.166362 37.4665 0.333945 37.5002 0.501528C38.0326 3.17535 38.5624 5.85042 39.111 8.52175C39.1398 8.66307 39.306 8.85941 39.4385 8.88568C42.2902 9.46847 45.1457 10.0312 48.0012 10.5978C48 10.6303 48 10.6616 48 10.6928ZM35.1046 7.67258C35.0109 7.73261 34.9546 7.75512 34.9159 7.79389C33.7999 8.90819 32.6802 10.0175 31.5792 11.1468C31.4768 11.2518 31.433 11.4832 31.4618 11.6383C31.688 12.8651 31.9479 14.0858 32.1753 15.3126C32.2353 15.634 32.3778 15.7766 32.699 15.8341C33.8799 16.0492 35.0596 16.2706 36.2293 16.5357C36.5892 16.617 36.8004 16.5295 37.0416 16.2818C38.0226 15.2763 39.0236 14.2896 40.0146 13.2941C40.1195 13.1891 40.2145 13.0753 40.367 12.9102C38.9986 12.6325 37.7089 12.3561 36.4117 12.1185C36.0768 12.0572 35.9506 11.9334 35.8881 11.5983C35.6507 10.3014 35.3745 9.01074 35.1046 7.67258Z" fill="#9C27B0"/>
<path d="M32.6028 23.454C33.9774 23.7279 35.2896 23.9805 36.5955 24.2657C36.7255 24.2944 36.8729 24.4983 36.9104 24.6471C37.3716 26.4605 37.579 28.3039 37.474 30.1736C37.2466 34.2068 35.9132 37.8361 33.3663 40.9777C30.2197 44.8596 26.1682 47.2083 21.2008 47.8423C11.7445 49.0492 3.10173 43.2163 0.618624 34.0055C-1.63079 25.6664 2.41441 16.5669 10.1124 12.6362C14.2988 10.4989 18.6764 9.97986 23.2502 11.0554C23.6064 11.1392 23.7576 11.2943 23.8226 11.6519C24.0438 12.8788 24.3 14.0981 24.5524 15.3688C18.4727 13.2277 12.9804 14.1194 8.28413 18.5754C5.10746 21.5906 3.63159 25.415 3.7803 29.7947C4.06648 38.2551 11.2833 44.7971 19.7024 44.2281C24.7911 43.8841 28.7763 41.4817 31.4743 37.1558C34.1636 32.8449 34.4123 28.2439 32.6028 23.454Z" fill="#9C27B0"/>
<path d="M21.6155 18.443C20.5346 19.526 19.4736 20.6028 18.3901 21.6571C18.2652 21.7796 18.0215 21.8034 17.8278 21.8284C14.0025 22.3361 11.2332 25.5152 11.2595 29.3759C11.2845 33.1753 14.2175 36.3406 18.0877 36.7458C21.7505 37.1285 25.3433 34.5247 26.0419 30.8754C26.2118 29.9874 26.5668 29.3371 27.2078 28.7481C28.0201 28.0002 28.7774 27.1923 29.5747 26.3931C30.7307 30.0975 29.6097 35.5764 24.9259 38.663C20.3959 41.6482 14.4699 40.9866 10.6909 37.0984C6.94937 33.249 6.44825 27.2923 9.4987 22.8877C12.6754 18.2991 18.1077 17.3137 21.6155 18.443Z" fill="#9C27B0"/>
</g>
<defs>
<clipPath id="clip0_392_3644">
<rect width="48" height="48" fill="white"/>
</clipPath>
</defs>
</svg>
