<svg width="48" height="48" viewBox="0 0 48 48" fill="none" xmlns="http://www.w3.org/2000/svg">
<g clip-path="url(#clip0_392_3668)">
<path d="M0 40.9362C0 39.9464 0.809768 39.134 1.79948 39.159C1.80823 39.159 1.81698 39.159 1.82573 39.1603C3.16659 39.204 4.50996 39.1678 5.85332 39.164C5.88207 39.164 5.91081 39.1465 5.99203 39.1215C5.99953 38.9753 6.01578 38.8116 6.01578 38.6466C6.01828 37.3506 6.01453 36.0546 6.01828 34.7586C6.02203 33.7013 6.57562 33.1451 7.63906 33.1389C8.9187 33.1314 10.1996 33.1376 11.4792 33.1376C11.6479 33.1376 11.8166 33.1376 12.0503 33.1376C12.0503 32.9214 12.0503 32.7552 12.0503 32.589C12.0503 31.293 12.0453 29.997 12.0528 28.7009C12.059 27.6649 12.6151 27.1137 13.6498 27.1112C15.1007 27.1075 16.5515 27.11 18.0786 27.11C18.0786 26.92 18.0786 26.7563 18.0786 26.5926C18.0786 25.2816 18.0748 23.9693 18.0798 22.6583C18.0823 21.796 18.7809 21.0986 19.6419 21.0973C22.5473 21.0948 25.4515 21.0948 28.3569 21.0973C29.3591 21.0986 29.9064 21.6535 29.9102 22.6708C29.9139 23.9668 29.9114 25.2628 29.9114 26.5588C29.9114 26.7263 29.9114 26.8938 29.9114 27.11C30.4588 27.11 30.9536 27.11 31.4497 27.11C32.4182 27.11 33.3854 27.1062 34.3539 27.1112C35.3636 27.1162 35.9285 27.6649 35.936 28.6685C35.946 29.9645 35.9385 31.2605 35.9385 32.5565C35.9385 32.7252 35.9385 32.8952 35.9385 33.1114C36.1459 33.1214 36.3109 33.1376 36.4758 33.1376C37.678 33.1401 38.8801 33.1389 40.0823 33.1389C41.5031 33.1389 41.9717 33.6026 41.9717 35.0073C41.9717 36.2096 41.9717 37.4119 41.9717 38.6141C41.9717 38.7829 41.9717 38.9503 41.9717 39.1728C42.4691 39.1728 42.9165 39.1728 43.3651 39.1728C44.411 39.1728 45.457 39.1653 46.5029 39.1753C47.4177 39.184 47.9825 39.7564 47.985 40.6788C47.9913 42.4897 47.9563 44.3019 48 46.1128C48 46.1215 48 46.1303 48 46.139C48.0187 47.1651 47.1752 48.0012 46.1493 48.0012H1.49082C1.09719 48.0012 0.711046 47.8575 0.431127 47.58C0.427378 47.5763 0.423629 47.5738 0.421129 47.57C0.143709 47.2888 0 46.9026 0 46.509V40.9362ZM45.1571 42.0185C31.0199 42.0185 16.9302 42.0185 2.84419 42.0185C2.84419 43.0896 2.84419 44.1269 2.84419 45.1567C16.9664 45.1567 31.0574 45.1567 45.1571 45.1567C45.1571 44.0981 45.1571 43.0733 45.1571 42.0185ZM39.1338 35.9809C29.0242 35.9809 18.9483 35.9809 8.85621 35.9809C8.85621 37.0494 8.85621 38.0855 8.85621 39.1415C18.9608 39.1415 29.0342 39.1415 39.1338 39.1415C39.1338 38.0855 39.1338 37.0607 39.1338 35.9809ZM33.0943 29.9495C27.0148 29.9495 20.9652 29.9495 14.892 29.9495C14.892 31.013 14.892 32.0491 14.892 33.1089C20.9715 33.1089 27.0198 33.1089 33.0943 33.1089C33.0943 32.0428 33.0943 31.008 33.0943 29.9495ZM20.9053 27.0775C22.9909 27.0775 25.0278 27.0775 27.0635 27.0775C27.0635 26.0089 27.0635 24.9729 27.0635 23.9381C24.9941 23.9381 22.9572 23.9381 20.9053 23.9381C20.9053 24.9941 20.9053 26.0189 20.9053 27.0775Z" fill="#2196F3"/>
<path d="M32.6343 8.63093C32.6368 9.55952 32.2869 10.3344 31.5933 10.9443C31.136 11.3467 30.6673 11.7354 30.1837 12.1053C29.9563 12.2803 29.8726 12.4327 29.9688 12.7289C30.145 13.2776 30.2712 13.8425 30.4087 14.4024C30.7223 15.6747 30.2737 16.9294 29.2428 17.6793C28.218 18.4229 26.9209 18.4741 25.8087 17.7993C25.3014 17.4918 24.799 17.1756 24.3129 16.8369C24.0855 16.6782 23.9155 16.6707 23.6868 16.8294C23.1995 17.1656 22.6984 17.4843 22.191 17.7918C21.0563 18.4816 19.7455 18.4266 18.7195 17.6593C17.6873 16.8882 17.2649 15.6647 17.5873 14.3736C17.7273 13.8137 17.856 13.2501 18.0247 12.7002C18.1009 12.449 18.0585 12.3028 17.8535 12.144C17.3961 11.7916 16.9513 11.4229 16.5114 11.0492C15.4679 10.1644 15.0956 8.91213 15.5004 7.68111C15.9016 6.46008 16.9538 5.66148 18.3096 5.56025C18.8857 5.51775 19.4656 5.51275 20.0379 5.44652C20.1928 5.42902 20.3978 5.28155 20.4615 5.14032C20.7064 4.60167 20.8976 4.03927 21.1213 3.49062C21.6212 2.2596 22.6946 1.52598 23.9855 1.52223C25.2764 1.51848 26.3586 2.24835 26.8609 3.47313C27.0734 3.99178 27.2933 4.51044 27.4645 5.04409C27.5695 5.37278 27.7519 5.45776 28.0731 5.46901C28.7429 5.49276 29.4177 5.5215 30.0788 5.62273C31.5721 5.85019 32.6268 7.11621 32.6343 8.63093ZM20.2841 15.1622C20.3203 15.2222 20.3628 15.3822 20.4415 15.4022C20.5552 15.4309 20.7139 15.391 20.8189 15.326C21.5737 14.856 22.3272 14.3824 23.067 13.8887C23.7018 13.4651 24.3104 13.4788 24.9402 13.8962C25.655 14.3711 26.3786 14.8336 27.1071 15.2847C27.2358 15.3647 27.412 15.366 27.567 15.4047C27.5907 15.2335 27.667 15.0498 27.6295 14.8935C27.4233 14.03 27.1946 13.1701 26.9622 12.3128C26.7835 11.6516 26.9572 11.1167 27.487 10.6881C28.1781 10.1269 28.8704 9.56826 29.5477 8.99087C29.6689 8.88714 29.7151 8.69342 29.7963 8.5422C29.6476 8.48096 29.5027 8.37598 29.3515 8.36473C28.4955 8.301 27.6382 8.2485 26.781 8.21601C25.9987 8.18727 25.5088 7.80983 25.2451 7.07622C24.9715 6.31386 24.6716 5.56025 24.3591 4.81163C24.2842 4.63166 24.113 4.49169 23.9855 4.33422C23.863 4.49919 23.7031 4.64791 23.6269 4.83288C23.3032 5.61024 22.997 6.39384 22.6996 7.1812C22.4584 7.81983 22.0136 8.16227 21.33 8.19976C20.4265 8.24975 19.5218 8.296 18.6195 8.36473C18.4721 8.37598 18.3321 8.49346 18.1884 8.56095C18.2646 8.70092 18.3109 8.87589 18.4246 8.97337C19.0294 9.49078 19.6318 10.0157 20.2741 10.4843C21.0351 11.0392 21.2488 11.7129 20.9651 12.609C20.7027 13.4263 20.519 14.2649 20.2841 15.1622Z" fill="#2196F3"/>
<path d="M7.4366 11.8417C6.40814 11.8417 5.37844 11.8705 4.35123 11.833C3.36276 11.7967 2.76543 10.8506 3.11783 9.93206C3.34402 9.34216 3.81388 9.05097 4.42621 9.04722C6.42064 9.03222 8.41632 9.02347 10.4107 9.04847C11.2917 9.05971 11.8303 9.64211 11.8241 10.4632C11.8178 11.2793 11.2605 11.8292 10.382 11.8442C9.39978 11.8605 8.41757 11.848 7.4366 11.848C7.4366 11.8467 7.4366 11.8442 7.4366 11.8417Z" fill="#2196F3"/>
<path d="M40.5296 11.8504C39.5774 11.8504 38.6239 11.8567 37.6717 11.8479C36.772 11.8392 36.1647 11.2855 36.1509 10.4794C36.1359 9.64832 36.7457 9.04843 37.6592 9.04218C39.5962 9.03093 41.5331 9.02843 43.4688 9.04343C44.3086 9.04968 44.8322 9.50335 44.9496 10.2557C45.0521 10.9093 44.666 11.568 44.0324 11.7629C43.8137 11.8304 43.5713 11.8429 43.3401 11.8454C42.4041 11.8554 41.4669 11.8504 40.5296 11.8504Z" fill="#2196F3"/>
<path d="M12.1453 15.8347C12.8651 15.8372 13.4037 16.2196 13.5837 16.7708C13.7749 17.3569 13.6112 18.0281 13.0826 18.3468C11.698 19.1841 10.2984 19.999 8.87627 20.7726C8.2577 21.1088 7.46043 20.7801 7.11428 20.1539C6.77687 19.5453 6.91433 18.7354 7.51791 18.3668C8.88627 17.5319 10.2846 16.7471 11.6792 15.9559C11.8454 15.8622 12.0629 15.8547 12.1453 15.8347Z" fill="#2196F3"/>
<path d="M34.7426 16.2295C35.1475 15.8246 35.7648 15.7471 36.2972 15.9583C36.3521 15.9808 36.4059 16.0045 36.4571 16.0333C37.7442 16.7619 39.0276 17.4968 40.2998 18.2479C41.0271 18.6766 41.2495 19.5039 40.8584 20.1788C40.4572 20.8712 39.6175 21.0836 38.8714 20.6599C37.5993 19.9363 36.3322 19.2052 35.07 18.4653C34.4489 18.1004 34.2028 17.483 34.3877 16.8344C34.4552 16.5982 34.5789 16.3932 34.7426 16.2295Z" fill="#2196F3"/>
<path d="M13.6624 3.64562C13.6474 4.69918 12.5527 5.4153 11.663 4.93413C10.2796 4.18802 8.92502 3.38942 7.5779 2.57956C6.93184 2.19088 6.76189 1.37478 7.12178 0.7299C7.47668 0.092516 8.2802 -0.20368 8.93626 0.155005C10.3284 0.917366 11.6967 1.72347 13.0601 2.53457C13.4762 2.78078 13.6399 3.2107 13.6624 3.64562Z" fill="#2196F3"/>
<path d="M35.8422 5.07798C35.1399 5.06923 34.5801 4.6668 34.4026 4.12815C34.2039 3.52326 34.3889 2.85713 34.9437 2.52469C36.2908 1.71484 37.6517 0.927483 39.0275 0.166371C39.6811 -0.194813 40.4871 0.0776376 40.8533 0.707523C41.2244 1.34491 41.0757 2.17101 40.4284 2.56343C39.0713 3.38703 37.6867 4.16439 36.3071 4.948C36.1371 5.04298 35.9222 5.05548 35.8422 5.07798Z" fill="#2196F3"/>
</g>
<defs>
<clipPath id="clip0_392_3668">
<rect width="48" height="48" fill="white"/>
</clipPath>
</defs>
</svg>
