<svg width="100" height="100" viewBox="0 0 100 100" fill="none" xmlns="http://www.w3.org/2000/svg">
<rect width="100" height="100" rx="50" fill="white"/>
<path d="M75.6044 24.3767C69.0453 17.8176 59.9958 13.7664 49.9993 13.7664C40.0028 13.7664 30.9359 17.8176 24.3943 24.3767C17.8352 30.9358 13.784 39.9852 13.784 49.9817C13.784 59.9782 17.8352 69.0452 24.3943 75.5868C30.9534 82.1459 40.0028 86.1971 49.9993 86.1971C59.9958 86.1971 69.0628 82.1459 75.6044 75.5868C82.1459 69.0277 86.2147 59.9782 86.2147 49.9817C86.2147 39.9852 82.1635 30.9358 75.6044 24.3767ZM49.9993 12.8193C60.2589 12.8193 69.5539 16.9758 76.2708 23.7103C82.9877 30.4272 87.1617 39.7222 87.1617 49.9817C87.1617 60.2413 83.0053 69.5363 76.2708 76.2532C69.5539 82.9702 60.2589 87.1441 49.9993 87.1441C39.7397 87.1441 30.4448 82.9877 23.7278 76.2532C17.0109 69.5363 12.8369 60.2413 12.8369 49.9817C12.8369 39.7222 16.9934 30.4272 23.7278 23.7103C30.4448 16.9758 39.7397 12.8193 49.9993 12.8193Z" fill="#2FBA59"/>
<path d="M84.6545 15.328C75.7804 6.45387 63.5391 0.982114 50 0.982114C36.4609 0.982114 24.2196 6.47141 15.3455 15.328C6.47142 24.202 0.999636 36.4434 0.999636 49.9825C0.999636 63.5216 6.48895 75.7629 15.3455 84.637C24.2196 93.511 36.4609 98.9828 50 98.9828C63.5391 98.9828 75.7804 93.4935 84.6545 84.637C93.5286 75.7629 99.0003 63.5216 99.0003 49.9825C99.0003 36.4609 93.511 24.202 84.6545 15.328ZM50 0C63.8022 0 76.3065 5.59453 85.356 14.644C94.4055 23.6934 100 36.1803 100 50C100 63.8022 94.4055 76.3065 85.356 85.356C76.3065 94.4055 63.8197 100 50 100C36.1978 100 23.6934 94.4055 14.644 85.356C5.59451 76.3065 0 63.8197 0 50C0 36.1978 5.59451 23.6934 14.644 14.644C23.6934 5.59453 36.1978 0 50 0Z" fill="#302290"/>
<path d="M73.7294 18.0816C74.6062 18.7831 75.448 19.0812 76.2547 18.976C77.0615 18.8883 77.7806 18.4323 78.4295 17.6081C79.0784 16.7838 79.3589 15.9771 79.2712 15.1528C79.1835 14.346 78.6925 13.5919 77.8156 12.8904L76.4126 11.7855L72.3263 16.9592L73.7294 18.0816ZM78.3067 12.2415C79.0257 12.8027 79.5343 13.4166 79.8325 14.083C80.1306 14.7494 80.2358 15.4334 80.1131 16.1349C80.0078 16.8364 79.6922 17.5204 79.1485 18.2044C78.6224 18.8708 78.0436 19.3443 77.3772 19.6074C76.7283 19.8704 76.0443 19.9406 75.3252 19.8003C74.6062 19.66 73.9047 19.3092 73.1856 18.748L71.046 17.0644L76.1495 10.593L78.3067 12.2415ZM72.7998 9.5758L68.8363 7.54142L67.5561 10.0493L70.5375 11.5926L70.1517 12.3292L67.1702 10.7859L65.8198 13.4166L69.7834 15.4509L69.3975 16.1875L64.5922 13.7147L68.3628 6.38393L73.1681 8.85675L72.7998 9.5758ZM64.487 5.05106L65.3814 5.34921L62.7332 13.1535L61.8387 12.8553L64.487 5.05106ZM56.4196 3.27976L61.7511 4.15664L61.6108 4.96338L57.2088 4.24433L56.7528 7.01529L60.0675 7.55896L59.9271 8.36569L56.6125 7.82203L55.9987 11.5576L55.0692 11.3997L56.4196 3.27976ZM52.8068 2.87639L53.7539 2.94654L53.105 11.1542L52.158 11.084L52.8068 2.87639ZM43.8626 3.10438L50.0183 2.63086L50.0885 3.45513L47.4754 3.64805L48.0366 11.049L47.0896 11.1191L46.5284 3.7182L43.9153 3.91112L43.8626 3.10438ZM40.4077 8.38323L43.4417 11.5225L42.3894 11.7505L39.4081 8.59368L40.4077 8.38323ZM38.7592 4.12157C39.3905 3.98127 39.9342 3.98126 40.3726 4.10403C40.8286 4.22679 41.1793 4.45479 41.4599 4.75293C41.7405 5.06861 41.9335 5.43689 42.0212 5.89287C42.0913 6.20855 42.1088 6.52424 42.0562 6.82238C42.0211 7.12052 41.9159 7.41865 41.7405 7.68172C41.5652 7.94479 41.3197 8.19031 41.004 8.40077C40.6883 8.61122 40.2849 8.76906 39.8114 8.87429L37.8998 9.29519L38.6188 12.5747L37.7069 12.7852L35.9356 4.73539L38.7592 4.12157ZM41.1092 6.10333C41.004 5.61228 40.776 5.26152 40.4252 5.05106C40.0745 4.82307 39.5834 4.788 38.9345 4.9283L37.0229 5.34921L37.7244 8.50599L39.6361 8.08509C40.057 7.9974 40.3902 7.8571 40.6182 7.66419C40.8462 7.47127 41.004 7.24328 41.0741 6.98022C41.1618 6.69961 41.1794 6.41901 41.1092 6.10333ZM32.9717 6.76976L28.9205 8.64629L30.0955 11.2068L33.1471 9.80378L33.4979 10.5579L30.4463 11.9609L31.6915 14.6442L35.7427 12.7677L36.0934 13.5218L31.1829 15.7841L27.7279 8.31308L32.6385 6.05071L32.9717 6.76976ZM20.9058 18.0465C20.5199 17.5554 20.2569 17.0469 20.099 16.5207C19.9412 15.9946 19.9061 15.4685 19.9587 14.9423C20.0289 14.4162 20.1867 13.9251 20.4498 13.4692C20.7128 13.0132 21.0636 12.5923 21.5196 12.2415C22.186 11.7154 22.8875 11.4173 23.6416 11.3296C24.3782 11.2419 25.1148 11.3822 25.8163 11.7505L25.3954 12.452C25.0096 12.2591 24.6413 12.1538 24.2379 12.1538C23.8521 12.1363 23.4663 12.2065 23.098 12.3292C22.7297 12.4695 22.3789 12.6624 22.0457 12.908C21.5897 13.2762 21.239 13.6972 21.0461 14.2057C20.8356 14.7143 20.783 15.2405 20.8882 15.8017C20.9759 16.3629 21.239 16.9241 21.6774 17.4678C22.0983 18.0114 22.5719 18.3973 23.098 18.6253C23.6241 18.8532 24.1502 18.9234 24.6939 18.8532C25.2376 18.7831 25.7286 18.5551 26.2022 18.1868C26.5354 17.9237 26.816 17.6256 27.0264 17.2748C27.2544 16.9416 27.3947 16.5558 27.4649 16.1349C27.535 15.714 27.5175 15.2931 27.3947 14.8371L28.1664 14.5916C28.3944 15.4334 28.3769 16.2226 28.1313 16.9416C27.8683 17.6607 27.3947 18.292 26.7107 18.8357C26.2547 19.1864 25.7637 19.4495 25.2551 19.5898C24.7465 19.7301 24.2204 19.7652 23.6943 19.6951C23.1681 19.6249 22.6595 19.4495 22.186 19.1689C21.695 18.9059 21.2741 18.52 20.9058 18.0465Z" fill="#302290"/>
<path d="M77.395 86.7063C78.2719 86.0224 78.7629 85.2682 78.8681 84.4615C78.9734 83.6548 78.6927 82.848 78.0614 82.0238C77.4125 81.1995 76.6934 80.7435 75.8867 80.6208C75.08 80.5155 74.2206 80.7961 73.3438 81.4976L71.9407 82.585L75.9919 87.7761L77.395 86.7063ZM72.8351 80.8663C73.5542 80.3051 74.2732 79.9543 74.9923 79.8316C75.7113 79.6913 76.3953 79.7614 77.0442 80.042C77.6931 80.3226 78.2894 80.7961 78.8155 81.4626C79.3416 82.129 79.6398 82.813 79.745 83.5145C79.8502 84.216 79.745 84.8824 79.4293 85.5488C79.1137 86.2153 78.6051 86.8116 77.886 87.3728L75.7464 89.0389L70.678 82.5499L72.8351 80.8663ZM69.7309 84.0055L65.7675 86.0574L67.0652 88.5478L70.0467 87.0045L70.4325 87.7411L67.4511 89.2844L68.819 91.915L72.7825 89.8631L73.1684 90.5997L68.3806 93.0901L64.5924 85.7768L69.3802 83.2865L69.7309 84.0055ZM61.6811 86.5836L62.5756 86.2854L65.1887 94.1072L64.2943 94.4054L61.6811 86.5836ZM54.9292 88.1795L60.2431 87.2325L60.3834 88.0392L55.9989 88.8109L56.49 91.5818L59.7871 91.0031L59.9274 91.8098L56.6303 92.3885L57.2967 96.1065L56.3672 96.2644L54.9292 88.1795ZM51.5093 88.425L52.4563 88.3549L53.0877 96.5625L52.1406 96.6327L51.5093 88.425ZM43.8102 88.0567L49.966 88.5303L49.8958 89.3545L47.2827 89.1616L46.7215 96.5625L45.7745 96.4924L46.3356 89.0915L43.7225 88.8985L43.8102 88.0567ZM39.6713 91.6695L40.8639 95.861L39.8292 95.5629L38.7068 91.3714L39.6713 91.6695ZM40.2501 87.1272C40.8639 87.3026 41.3549 87.5481 41.6882 87.8814C42.0214 88.197 42.2494 88.5653 42.337 88.9687C42.4423 89.3721 42.4248 89.793 42.302 90.2314C42.2143 90.5471 42.074 90.8277 41.8986 91.0732C41.7232 91.3187 41.4952 91.5292 41.1971 91.687C40.9165 91.8449 40.5833 91.9326 40.215 91.9676C39.8467 92.0027 39.4082 91.9501 38.9347 91.8098L37.0407 91.2837L36.1287 94.5282L35.2167 94.2651L37.4616 86.338L40.2501 87.1272ZM41.3725 89.9859C41.5128 89.5124 41.4777 89.0915 41.2673 88.7407C41.0744 88.3899 40.6535 88.1093 40.0221 87.934L38.1456 87.4078L37.2687 90.512L39.1627 91.0382C39.5836 91.1609 39.9344 91.1784 40.2326 91.1258C40.5307 91.0732 40.7762 90.9505 40.9691 90.74C41.1445 90.5471 41.2848 90.284 41.3725 89.9859ZM35.3921 86.4784L31.3234 84.6369L30.1659 87.1974L33.2175 88.5829L32.8843 89.337L29.8327 87.9515L28.605 90.6348L32.6738 92.4762L32.3406 93.2304L27.43 91.0031L30.8323 83.4969L35.7429 85.7242L35.3921 86.4784ZM21.1515 81.4275C21.5373 80.9364 21.9582 80.5506 22.4493 80.27C22.9228 79.9894 23.4314 79.814 23.9576 79.7614C24.4837 79.6913 24.9923 79.7439 25.5184 79.8842C26.027 80.0245 26.5181 80.27 26.9741 80.6383C27.6405 81.1644 28.0964 81.7782 28.3595 82.4797C28.6226 83.1813 28.6576 83.9178 28.4647 84.6895L27.6931 84.444C27.7808 84.0231 27.7983 83.6372 27.7106 83.2514C27.6229 82.8656 27.4827 82.5148 27.2547 82.1816C27.0442 81.8484 26.7636 81.5502 26.4304 81.3047C25.9744 80.9364 25.4658 80.726 24.9397 80.6383C24.396 80.5506 23.8699 80.6383 23.3613 80.8663C22.8351 81.0943 22.3616 81.4801 21.9232 82.0238C21.5023 82.5674 21.2392 83.1286 21.134 83.6898C21.0287 84.2511 21.0989 84.7772 21.2918 85.2858C21.5023 85.7944 21.8355 86.2153 22.2915 86.5836C22.6247 86.8466 22.9754 87.0395 23.3613 87.1798C23.7471 87.3201 24.1504 87.3552 24.5713 87.3377C24.9922 87.3026 25.3957 87.1799 25.8166 86.9694L26.2374 87.6709C25.4658 88.0918 24.7117 88.2672 23.94 88.197C23.1683 88.1269 22.4493 87.8112 21.7653 87.2675C21.3093 86.9168 20.9586 86.4959 20.6955 86.0399C20.4325 85.5839 20.2746 85.0753 20.222 84.5492C20.1694 84.0231 20.2045 83.4969 20.3623 82.9708C20.5026 82.4096 20.7657 81.901 21.1515 81.4275Z" fill="#302290"/>
<path fill-rule="evenodd" clip-rule="evenodd" d="M96.0887 54.3663L93.2827 52.332L90.4766 54.3663L91.564 51.0693L88.7579 49.0349L92.2129 49.0524L93.2827 45.7378L94.3525 49.0524L97.825 49.0349L95.0189 51.0693L96.0887 54.3663Z" fill="#2FBA59"/>
<path fill-rule="evenodd" clip-rule="evenodd" d="M9.50607 54.3663L6.70003 52.332L3.89401 54.3663L4.98134 51.0693L2.17529 49.0349L5.63022 49.0524L6.70003 45.7378L7.76983 49.0524L11.2423 49.0349L8.41871 51.0693L9.50607 54.3663Z" fill="#2FBA59"/>
<path fill-rule="evenodd" clip-rule="evenodd" d="M90.8631 70.5712L89.1268 69.3085L87.3906 70.5712L88.057 68.5368L86.3208 67.2741H88.4779L89.1268 65.2397L89.7932 67.2741H91.9328L90.1966 68.5368L90.8631 70.5712Z" fill="#2FBA59"/>
<path fill-rule="evenodd" clip-rule="evenodd" d="M12.5917 70.5712L10.8555 69.3085L9.13682 70.5712L9.80326 68.5368L8.06702 67.2741H10.2066L10.8555 65.2397L11.5219 67.2741H13.6616L11.9253 68.5368L12.5917 70.5712Z" fill="#2FBA59"/>
<path fill-rule="evenodd" clip-rule="evenodd" d="M90.8631 35.4438L89.1268 34.1635L87.3906 35.4438L88.057 33.3919L86.3208 32.1467H88.4779L89.1268 30.1123L89.7932 32.1467H91.9328L90.1966 33.3919L90.8631 35.4438Z" fill="#2FBA59"/>
<path fill-rule="evenodd" clip-rule="evenodd" d="M12.5917 35.4438L10.8555 34.1635L9.13682 35.4438L9.80326 33.3919L8.06702 32.1467H10.2066L10.8555 30.1123L11.5219 32.1467H13.6616L11.9253 33.3919L12.5917 35.4438Z" fill="#2FBA59"/>
<path d="M71.4655 51.9284V66.9407H67.7299V58.8734C67.7299 57.7159 67.6949 57.0144 67.6423 56.7689C67.5897 56.5409 67.4318 56.3479 67.1863 56.2427C66.9407 56.12 66.3795 56.0673 65.5202 56.0673H65.1519V54.3311C66.9583 53.9453 68.3438 53.1385 69.2733 51.9284H71.4655ZM60.6096 55.7517C60.6096 54.9625 60.5745 54.4539 60.4869 54.261C60.4167 54.068 60.2238 53.9628 59.9432 53.9628C59.6626 53.9628 59.4872 54.0681 59.3995 54.2785C59.3118 54.489 59.2592 54.98 59.2592 55.7517V63.0649C59.2592 63.9418 59.2943 64.4679 59.382 64.6433C59.4697 64.8187 59.645 64.9063 59.9256 64.9063C60.2062 64.9063 60.3816 64.8011 60.4693 64.5907C60.557 64.3802 60.5921 63.9067 60.5921 63.1701V55.7517H60.6096ZM64.3452 56.9968V61.9951C64.3452 63.135 64.275 63.9593 64.1522 64.4855C64.0295 65.0116 63.7664 65.4851 63.3806 65.9411C62.9947 66.397 62.5212 66.7127 61.9776 66.9056C61.4339 67.0986 60.8201 67.2038 60.1361 67.2038C59.2417 67.2038 58.5051 67.0986 57.9088 66.8881C57.3125 66.6777 56.839 66.362 56.4883 65.9235C56.1375 65.4851 55.892 65.0291 55.7341 64.5381C55.5938 64.047 55.5062 63.2753 55.5062 62.2231V56.9968C55.5062 55.6114 55.6289 54.5942 55.8569 53.8927C56.1025 53.2087 56.5584 52.6475 57.2775 52.2441C57.979 51.8232 58.8383 51.6303 59.8555 51.6303C60.6798 51.6303 61.4163 51.7706 62.0652 52.0688C62.7141 52.3494 63.2052 52.7001 63.5209 53.121C63.8366 53.5419 64.0646 53.9979 64.1698 54.524C64.2925 55.0326 64.3452 55.8744 64.3452 56.9968ZM50.4202 55.7517C50.4202 54.9625 50.3851 54.4539 50.2974 54.261C50.2273 54.068 50.0344 53.9628 49.7538 53.9628C49.4732 53.9628 49.2978 54.0681 49.2101 54.2785C49.1224 54.489 49.0698 54.98 49.0698 55.7517V63.0649C49.0698 63.9418 49.1049 64.4679 49.1926 64.6433C49.2803 64.8187 49.4556 64.9063 49.7362 64.9063C50.0168 64.9063 50.1922 64.8011 50.2799 64.5907C50.3676 64.3802 50.4027 63.9067 50.4027 63.1701V55.7517H50.4202ZM54.1558 56.9968V61.9951C54.1558 63.135 54.0856 63.9593 53.9628 64.4855C53.8401 65.0116 53.577 65.4851 53.1912 65.9411C52.8053 66.397 52.3318 66.7127 51.7882 66.9056C51.2445 67.0986 50.6306 67.2038 49.9467 67.2038C49.0523 67.2038 48.3157 67.0986 47.7194 66.8881C47.1231 66.6777 46.6496 66.362 46.2989 65.9235C45.9481 65.4851 45.7026 65.0291 45.5447 64.5381C45.4044 64.047 45.3167 63.2753 45.3167 62.2231V56.9968C45.3167 55.6114 45.4395 54.5942 45.6675 53.8927C45.913 53.2087 46.369 52.6475 47.0881 52.2441C47.7896 51.8232 48.6489 51.6303 49.6661 51.6303C50.4904 51.6303 51.2269 51.7706 51.8758 52.0688C52.5247 52.3494 53.0158 52.7001 53.3315 53.121C53.6472 53.5419 53.8752 53.9979 53.9804 54.524C54.1031 55.0326 54.1558 55.8744 54.1558 56.9968ZM39.7573 61.732V55.3483L38.0912 61.732H39.7573ZM43.4928 51.9284V61.7496H44.5626V64.3101H43.4928V66.9407H39.7573V64.3101H35.3027V61.732L38.5472 51.9109H43.4928V51.9284ZM34.3907 51.9284V66.9407H30.6552V58.8734C30.6552 57.7159 30.6201 57.0144 30.5675 56.7689C30.5149 56.5409 30.3571 56.3479 30.1115 56.2427C29.866 56.12 29.3048 56.0673 28.4455 56.0673H28.0771V54.3311C29.8835 53.9453 31.269 53.1385 32.1985 51.9284H34.3907ZM58.3297 36.127C58.3297 35.4255 58.2946 34.987 58.2245 34.7941C58.1543 34.6012 57.9965 34.496 57.751 34.496C57.5581 34.496 57.4002 34.5837 57.295 34.7415C57.1898 34.8993 57.1371 35.3553 57.1371 36.127V43.1421C57.1371 44.0189 57.1722 44.5451 57.2424 44.7555C57.3125 44.966 57.4704 45.0537 57.7334 45.0537C57.9965 45.0537 58.1543 44.9309 58.242 44.7029C58.3122 44.4749 58.3473 43.9137 58.3473 43.0193V36.127H58.3297ZM62.2582 41.0551C62.2582 42.5633 62.2231 43.6331 62.153 44.2645C62.0828 44.8958 61.8548 45.4746 61.4865 45.9832C61.1182 46.5093 60.6096 46.8951 59.9782 47.1757C59.3469 47.4563 58.5928 47.5966 57.751 47.5966C56.9442 47.5966 56.2252 47.4563 55.5938 47.1933C54.9625 46.9302 54.4364 46.5444 54.0505 46.0182C53.6647 45.4921 53.4367 44.9134 53.349 44.2995C53.2788 43.6857 53.2438 42.5984 53.2438 41.0551V38.477C53.2438 36.9688 53.2788 35.899 53.349 35.2676C53.4191 34.6363 53.6471 34.0575 54.0154 33.5489C54.3837 33.0228 54.8923 32.637 55.5237 32.3564C56.1551 32.0758 56.8916 31.9355 57.751 31.9355C58.5577 31.9355 59.2768 32.0758 59.9081 32.3388C60.5395 32.6019 61.0656 32.9877 61.4515 33.5139C61.8373 34.04 62.0653 34.6187 62.153 35.2326C62.2231 35.8464 62.2582 36.9337 62.2582 38.477V41.0551ZM51.7882 36.8109H48.1578V35.7061C48.1578 35.1799 48.1053 34.8467 48.0176 34.7064C47.9299 34.5661 47.772 34.496 47.5616 34.496C47.3336 34.496 47.1582 34.5837 47.0355 34.7766C46.9127 34.9695 46.8601 35.2501 46.8601 35.6359C46.8601 36.1445 46.9302 36.5128 47.0705 36.7583C47.2108 37.0039 47.5616 37.3195 48.1754 37.6703C49.9116 38.705 50.999 39.5644 51.4549 40.2133C51.9109 40.8797 52.1389 41.9495 52.1389 43.4051C52.1389 44.4749 52.0161 45.2641 51.7706 45.7727C51.5251 46.2813 51.034 46.7022 50.315 47.053C49.596 47.4037 48.7716 47.5616 47.8071 47.5616C46.7548 47.5616 45.8779 47.3686 45.1414 46.9653C44.4048 46.5619 43.9313 46.0708 43.6858 45.457C43.4578 44.8432 43.3525 43.9663 43.3525 42.8439V41.8618H46.9829V43.6857C46.9829 44.2469 47.0355 44.6152 47.1407 44.7731C47.2459 44.9309 47.4213 45.0186 47.6843 45.0186C47.9474 45.0186 48.1403 44.9134 48.2631 44.7204C48.3858 44.51 48.456 44.2119 48.456 43.8085C48.456 42.9316 48.3332 42.3529 48.0877 42.0723C47.8422 41.7916 47.2284 41.3357 46.2638 40.7043C45.2992 40.0554 44.6503 39.5994 44.3346 39.3013C44.019 39.0032 43.7559 38.5998 43.5454 38.0912C43.335 37.5826 43.2298 36.9162 43.2298 36.127C43.2298 34.987 43.3701 34.1277 43.6682 33.6016C43.9663 33.0754 44.4399 32.6545 45.0887 32.3564C45.7376 32.0582 46.5269 31.9004 47.4564 31.9004C48.4735 31.9004 49.3329 32.0582 50.052 32.3914C50.771 32.7247 51.227 33.128 51.4725 33.6366C51.7005 34.1277 51.8232 34.987 51.8232 36.1796V36.8109H51.7882ZM41.967 32.2511V47.2634H38.0561V32.2511H41.967Z" fill="#302290"/>
</svg>
