<svg width="100" height="100" viewBox="0 0 100 100" fill="none" xmlns="http://www.w3.org/2000/svg">
<path fill-rule="evenodd" clip-rule="evenodd" d="M50 16.2622C68.625 16.2622 83.725 31.3622 83.725 49.9747C83.725 68.5997 68.625 83.6872 50 83.6872C31.375 83.6872 16.275 68.5872 16.275 49.9747C16.275 31.3497 31.375 16.2622 50 16.2622Z" fill="#302290"/>
<path d="M85.4375 50C85.4375 30.4375 69.575 14.575 50 14.575C40.2125 14.575 31.35 18.5375 24.9375 24.95C18.525 31.3625 14.5625 40.225 14.5625 50.0125C14.5625 59.8 18.525 68.6625 24.9375 75.075C31.35 81.4875 40.2125 85.45 50 85.45C59.7875 85.45 68.65 81.4875 75.0625 75.075C81.475 68.625 85.4375 59.7875 85.4375 50ZM50 13.625C70.0875 13.625 86.3875 29.9 86.3875 50C86.3875 60.0375 82.325 69.1375 75.7375 75.725C69.1375 82.3125 60.0625 86.375 50 86.375C39.9625 86.375 30.8625 82.3125 24.275 75.725C17.6875 69.1375 13.6125 60.0625 13.6125 50C13.6125 39.9625 17.675 30.8625 24.2625 24.275C30.85 17.6875 39.9625 13.625 50 13.625Z" fill="#2FBA59"/>
<path d="M83.9375 16.0749C75.25 7.3874 63.2625 2.0249 50.025 2.0249C36.7875 2.0249 24.775 7.3874 16.1125 16.0749C7.425 24.7624 2.0625 36.7374 2.0625 49.9749C2.0625 63.2124 7.425 75.2124 16.1125 83.8749C24.8 92.5624 36.7875 97.9249 50.025 97.9249C63.2625 97.9249 75.275 92.5624 83.9375 83.8749C92.625 75.1874 97.9875 63.2124 97.9875 49.9749C97.9625 36.7374 92.6 24.7624 83.9375 16.0749ZM50 1.0874C63.5125 1.0874 75.725 6.5499 84.6 15.4124C93.4625 24.2749 98.9375 36.4874 98.9375 49.9999C98.9375 63.5124 93.475 75.7249 84.6 84.5874C75.725 93.4249 63.5125 98.9124 50 98.9124C36.4875 98.9124 24.275 93.4499 15.4 84.5874C6.5625 75.7249 1.0625 63.5124 1.0625 49.9999C1.0625 36.4874 6.525 24.2749 15.4 15.4124C24.275 6.5499 36.4875 1.0874 50 1.0874Z" fill="#302290"/>
<path fill-rule="evenodd" clip-rule="evenodd" d="M95.125 54.2626L92.3625 52.2751L89.625 54.2626L90.675 51.0501L87.9375 49.0626H91.3375L92.3625 45.8501L93.4125 49.0626H96.8125L94.075 51.0501L95.125 54.2626Z" fill="#2FBA59"/>
<path fill-rule="evenodd" clip-rule="evenodd" d="M10.3625 54.2626L7.625 52.2751L4.8875 54.2626L5.9375 51.0501L3.175 49.0626H6.575L7.625 45.8501L8.675 49.0626H12.075L9.3125 51.0501L10.3625 54.2626Z" fill="#2FBA59"/>
<path fill-rule="evenodd" clip-rule="evenodd" d="M90.0125 70.1248L88.3 68.8748L86.6125 70.1248L87.25 68.1373L85.5625 66.9123H87.6625L88.3 64.9248L88.9375 66.9123H91.0625L89.35 68.1373L90.0125 70.1248Z" fill="#2FBA59"/>
<path fill-rule="evenodd" clip-rule="evenodd" d="M13.4125 70.1248L11.7 68.8748L10.0125 70.1248L10.65 68.1373L8.96249 66.9123H11.0625L11.7 64.9248L12.3375 66.9123H14.4625L12.75 68.1373L13.4125 70.1248Z" fill="#2FBA59"/>
<path fill-rule="evenodd" clip-rule="evenodd" d="M90.0125 35.7501L88.3 34.5251L86.6125 35.7501L87.25 33.7501L85.5625 32.5251H87.6625L88.3 30.5376L88.9375 32.5251H91.0625L89.35 33.7501L90.0125 35.7501Z" fill="#2FBA59"/>
<path fill-rule="evenodd" clip-rule="evenodd" d="M13.4125 35.7501L11.7 34.5251L10.0125 35.7501L10.65 33.7501L8.96249 32.5251H11.0625L11.7 30.5376L12.3375 32.5251H14.4625L12.75 33.7501L13.4125 35.7501Z" fill="#2FBA59"/>
<path d="M70.4375 52.2501C70.2375 50.4626 70.025 48.2126 69.825 45.5626C69.4125 48.6001 69.1625 50.8501 69.0625 52.2501H70.4375ZM72.6375 42.0251L74.9875 57.9126H70.775L70.55 55.0501H69.0625L68.8375 57.9126H64.575L66.675 42.0251H72.6375ZM58.5625 44.7376V55.1876C59.15 55.1876 59.5125 55.0626 59.6375 54.8251C59.7625 54.6001 59.8375 53.9251 59.8375 52.8876V46.7001C59.8375 45.9876 59.8125 45.5251 59.7625 45.3251C59.7125 45.1251 59.6125 44.9626 59.45 44.8876C59.3 44.7876 59 44.7376 58.5625 44.7376ZM54.425 42.0251H57.5125C59.5 42.0251 60.8625 42.1251 61.55 42.3001C62.2625 42.4751 62.775 42.7876 63.1625 43.2001C63.525 43.6126 63.75 44.1001 63.85 44.6001C63.95 45.1126 63.975 46.1376 63.975 47.6376V53.2001C63.975 54.6251 63.9 55.5751 63.775 56.0626C63.65 56.5501 63.4125 56.9251 63.0875 57.1876C62.75 57.4626 62.35 57.6501 61.8625 57.7501C61.375 57.8501 60.6375 57.9001 59.6375 57.9001H54.425V42.0251ZM46.425 42.0251H53.4V45.1876H50.5375V48.2251H53.0625V51.2501H50.5375V57.9126H46.4V42.0251H46.425ZM44.7875 46.8626H40.95V45.6876C40.95 45.1501 40.9 44.7876 40.8 44.6376C40.7 44.4876 40.55 44.4126 40.3125 44.4126C40.0625 44.4126 39.875 44.5126 39.75 44.7251C39.625 44.9251 39.575 45.2376 39.575 45.6501C39.575 46.1876 39.65 46.5751 39.8 46.8501C39.925 47.1001 40.3375 47.4376 40.975 47.8251C42.8125 48.9251 43.9625 49.8126 44.425 50.5126C44.9125 51.2001 45.1375 52.3501 45.1375 53.8876C45.1375 55.0126 45.0125 55.8501 44.725 56.3876C44.475 56.9251 43.9625 57.3876 43.1875 57.7376C42.425 58.1001 41.55 58.2751 40.55 58.2751C39.45 58.2751 38.5 58.0751 37.7125 57.6376C36.95 57.2251 36.4375 56.6876 36.175 56.0251C35.95 55.3876 35.8125 54.4626 35.8125 53.2626V52.2126H39.65V54.1501C39.65 54.7376 39.7 55.1251 39.8 55.3001C39.9 55.4751 40.1125 55.5501 40.3625 55.5501C40.6375 55.5501 40.85 55.4501 40.975 55.2126C41.1 55.0126 41.175 54.6751 41.175 54.2626C41.175 53.3126 41.05 52.7001 40.7875 52.4251C40.525 52.1501 39.8625 51.6626 38.85 50.9751C37.825 50.2876 37.1375 49.8001 36.8 49.4876C36.4625 49.1751 36.1875 48.7501 35.9875 48.2126C35.7625 47.6751 35.65 46.9876 35.65 46.1376C35.65 44.9126 35.8 44.0376 36.1125 43.4751C36.425 42.9126 36.925 42.4751 37.625 42.1501C38.3125 41.8376 39.1625 41.6626 40.125 41.6626C41.2 41.6626 42.1125 41.8376 42.8625 42.1751C43.6 42.5376 44.1125 42.9626 44.375 43.4751C44.625 44.0126 44.7375 44.9001 44.7375 46.1626V46.8501H44.7875V46.8626ZM34.4375 42.0251V52.6501C34.4375 53.8501 34.3875 54.6876 34.3125 55.1751C34.2375 55.6626 34 56.1751 33.625 56.6876C33.2375 57.2001 32.725 57.5876 32.0875 57.8626C31.45 58.1126 30.7125 58.2751 29.8625 58.2751C28.9125 58.2751 28.075 58.1251 27.3625 57.8126C26.65 57.5001 26.0875 57.1001 25.725 56.5876C25.3625 56.0751 25.1625 55.5376 25.0875 55.0001C25.0375 54.4376 24.9875 53.2626 24.9875 51.4751V42.0751H29.125V53.9751C29.125 54.6626 29.15 55.1251 29.225 55.3001C29.3 55.5001 29.45 55.5751 29.6875 55.5751C29.9375 55.5751 30.1 55.4751 30.175 55.2626C30.25 55.0626 30.275 54.5501 30.275 53.7501V42.0501H34.4375V42.0251Z" fill="#FEFEFE"/>
<path d="M22.325 22.3125C21.375 19.8 20.9625 18.4875 20.3125 15.8125C20.6625 15.5 20.8375 15.35 21.2 15.0625C23.7875 16.1 25.025 16.7 27.375 18.05C27.0375 18.2875 26.8625 18.4125 26.525 18.675C25.8125 18.275 25.4625 18.0875 24.7375 17.7125C23.775 18.475 23.3 18.875 22.375 19.7125C22.6375 20.4875 22.7625 20.8625 23.05 21.625C22.75 21.8875 22.6 22.025 22.325 22.3125ZM22.1375 19.025C22.9 18.3375 23.2875 18.0125 24.0875 17.375C23.425 17.0375 23.0875 16.875 22.4 16.5625C21.875 16.325 21.4625 16.125 21.15 15.95C21.325 16.3125 21.4625 16.7125 21.5875 17.125C21.7875 17.8875 21.9 18.2625 22.1375 19.025Z" fill="#302290"/>
<path d="M31.225 13.2123C31.6 13.1123 31.7875 13.0623 32.1625 12.9748C32.275 13.6623 32.1875 14.2748 31.9 14.8123C31.6125 15.3498 31.175 15.7873 30.55 16.1373C29.9125 16.4998 29.325 16.7123 28.7875 16.7373C28.25 16.7623 27.725 16.6373 27.2375 16.3623C26.7375 16.0873 26.325 15.7123 25.9875 15.2248C25.625 14.6998 25.425 14.1498 25.425 13.5873C25.4125 13.0248 25.5875 12.4748 25.95 11.9498C26.3125 11.4248 26.8 10.9873 27.4125 10.6373C28.1 10.2373 28.775 10.0623 29.3875 10.0873C30 10.1248 30.525 10.3498 30.9625 10.7748C30.6375 11.0123 30.475 11.1373 30.1625 11.3873C29.8 11.0748 29.425 10.8998 29.025 10.8873C28.625 10.8748 28.2 10.9873 27.7375 11.2498C27.2125 11.5498 26.8375 11.9123 26.6125 12.3123C26.3875 12.7123 26.3125 13.1248 26.3875 13.5373C26.4625 13.9373 26.6125 14.3123 26.825 14.6498C27.1125 15.0873 27.4375 15.4123 27.8 15.6498C28.1625 15.8748 28.55 15.9748 28.9625 15.9498C29.375 15.9248 29.7625 15.7998 30.1375 15.5873C30.5875 15.3248 30.9 14.9998 31.1 14.5998C31.3 14.1873 31.3375 13.7248 31.225 13.2123Z" fill="#302290"/>
<path d="M37.9 10.5124C38.2875 10.4749 38.475 10.4624 38.85 10.4499C38.8375 11.1374 38.65 11.7249 38.2875 12.1999C37.925 12.6749 37.4125 13.0249 36.7625 13.2624C36.075 13.5124 35.4875 13.5999 34.95 13.5249C34.425 13.4499 33.9375 13.2374 33.5125 12.8749C33.075 12.5124 32.7375 12.0624 32.4875 11.5374C32.225 10.9624 32.125 10.3874 32.2125 9.83739C32.3 9.28739 32.5625 8.77489 32.9875 8.32489C33.425 7.87489 33.975 7.53739 34.625 7.29989C35.3625 7.03739 36.0375 6.97489 36.6375 7.12489C37.2375 7.26239 37.7 7.58739 38.05 8.07489C37.7 8.24989 37.525 8.34989 37.175 8.53739C36.875 8.16239 36.5375 7.92489 36.15 7.83739C35.7625 7.74989 35.325 7.78739 34.8375 7.96239C34.275 8.16239 33.85 8.44989 33.575 8.79989C33.2875 9.14989 33.15 9.53739 33.15 9.94989C33.15 10.3624 33.2375 10.7499 33.4 11.1249C33.6 11.5999 33.8625 11.9874 34.175 12.2749C34.4875 12.5624 34.85 12.7249 35.25 12.7749C35.6625 12.8249 36.05 12.7749 36.45 12.6249C36.925 12.4499 37.2875 12.1874 37.55 11.8374C37.8 11.4749 37.925 11.0374 37.9 10.5124Z" fill="#302290"/>
<path d="M40.45 12.0249C39.85 9.64989 39.55 8.46239 38.95 6.07489C40.2875 5.73739 40.9625 5.59989 42.3125 5.36239C42.9875 5.24989 43.525 5.22489 43.8875 5.28739C44.2625 5.34989 44.5625 5.51239 44.8 5.76239C45.0375 6.01239 45.175 6.31239 45.2125 6.64989C45.2625 7.08739 45.1375 7.46239 44.8375 7.79989C44.5375 8.13739 44.0625 8.38739 43.4 8.57489C43.6625 8.63739 43.8625 8.71239 44.0125 8.78739C44.3125 8.96239 44.6125 9.19989 44.8875 9.48739C45.45 10.0874 45.725 10.3999 46.25 11.0124C45.8125 11.0499 45.5875 11.0749 45.15 11.1374C44.7375 10.6749 44.525 10.4499 44.0875 9.99989C43.775 9.67489 43.5 9.43739 43.3 9.27489C43.0875 9.11239 42.9125 8.99989 42.7625 8.94989C42.6125 8.89989 42.4625 8.86239 42.3125 8.86239C42.2 8.86239 42.025 8.88739 41.7875 8.93739C41.35 9.02489 41.1375 9.07489 40.7125 9.16239C40.95 10.2249 41.075 10.7499 41.3125 11.8124C40.9625 11.8999 40.8 11.9374 40.45 12.0249ZM40.55 8.48739C41.3625 8.29989 41.7625 8.22489 42.575 8.07489C43.0125 7.99989 43.3375 7.91239 43.575 7.79989C43.8125 7.68739 43.975 7.53739 44.0875 7.34989C44.1875 7.16239 44.2375 6.97489 44.2125 6.77489C44.175 6.48739 44.0125 6.26239 43.7375 6.12489C43.45 5.97489 43.025 5.93739 42.475 6.03739C41.525 6.19989 41.05 6.28739 40.1125 6.51239C40.2875 7.29989 40.375 7.68739 40.55 8.48739Z" fill="#302290"/>
<path d="M47.1125 10.95C46.9375 8.49997 46.8375 7.28747 46.6625 4.83747C48.8875 4.67497 50.0125 4.66247 52.2375 4.77497C52.225 5.06247 52.2125 5.21247 52.2 5.49997C50.4125 5.41247 49.5125 5.41247 47.7125 5.49997C47.75 6.24997 47.775 6.62497 47.8125 7.37497C49.425 7.28747 50.225 7.28747 51.8375 7.36247C51.825 7.64997 51.825 7.78747 51.8125 8.07497C50.225 8.01247 49.4375 8.01247 47.8625 8.08747C47.9 8.92497 47.925 9.33747 47.975 10.175C49.6375 10.0875 50.475 10.0875 52.15 10.175C52.1375 10.4625 52.125 10.6125 52.1125 10.9C50.1 10.8 49.1 10.8125 47.1125 10.95Z" fill="#302290"/>
<path d="M53.3 10.9875C53.5125 8.55 53.6125 7.325 53.8125 4.875C54.875 4.9625 55.4 5.025 56.4625 5.175C57.0625 5.2625 57.5 5.3625 57.8125 5.475C58.2375 5.6375 58.575 5.85 58.8375 6.1125C59.175 6.4625 59.4 6.8625 59.5 7.325C59.6 7.7875 59.5875 8.275 59.4625 8.8125C59.3625 9.2625 59.2 9.65 59 9.975C58.8 10.3 58.5875 10.55 58.35 10.75C58.1125 10.9375 57.875 11.0875 57.625 11.175C57.375 11.2625 57.1 11.3125 56.775 11.325C56.45 11.3375 56.1 11.3125 55.7 11.2625C54.7375 11.125 54.2625 11.075 53.3 10.9875ZM54.2625 10.35C54.8375 10.4125 55.125 10.45 55.7 10.525C56.15 10.5875 56.5 10.6125 56.7625 10.575C57.025 10.5375 57.25 10.475 57.425 10.375C57.675 10.225 57.8875 10 58.075 9.7125C58.2625 9.425 58.4 9.05 58.4875 8.5875C58.6125 7.9625 58.5875 7.45 58.4125 7.0625C58.2375 6.675 57.9625 6.3875 57.6125 6.2125C57.3625 6.0875 56.9375 5.975 56.35 5.8875C55.7125 5.8 55.4 5.7625 54.7625 5.6875C54.5625 7.5625 54.4625 8.4875 54.2625 10.35Z" fill="#302290"/>
<path d="M60.1 12.1623C60.7375 9.7873 61.05 8.6123 61.675 6.2373C62.075 6.3373 62.275 6.39981 62.6625 6.51231C61.975 8.8623 61.6375 10.0373 60.95 12.3998C60.6125 12.3123 60.4375 12.2623 60.1 12.1623Z" fill="#302290"/>
<path d="M64.0625 13.45C64.8375 11.4375 65.225 10.425 66 8.4C65.05 8.0375 64.575 7.8625 63.6125 7.5625C63.7125 7.2875 63.75 7.15 63.85 6.875C66.2 7.625 67.3625 8.0875 69.6125 9.175C69.4875 9.4375 69.425 9.5625 69.3 9.825C68.375 9.375 67.9125 9.175 66.9625 8.7875C66.1375 10.7875 65.725 11.7875 64.9 13.7875C64.5625 13.65 64.4 13.5875 64.0625 13.45Z" fill="#302290"/>
<path d="M67.8 15.1251C68.9125 12.9376 69.475 11.8501 70.5875 9.6626C72.625 10.7001 73.6125 11.2876 75.5375 12.6001C75.375 12.8376 75.2875 12.9626 75.125 13.2001C73.5875 12.1501 72.7875 11.6626 71.175 10.7876C70.8125 11.4501 70.6375 11.7751 70.2875 12.4376C71.7375 13.2251 72.45 13.6501 73.8375 14.5876C73.675 14.8251 73.6 14.9501 73.4375 15.1876C72.075 14.2626 71.375 13.8376 69.9375 13.0751C69.5375 13.8126 69.3375 14.1751 68.95 14.9126C70.4625 15.7251 71.2 16.1751 72.625 17.1626C72.4625 17.4001 72.375 17.5251 72.2125 17.7626C70.5 16.5751 69.6125 16.0501 67.8 15.1251Z" fill="#302290"/>
<path d="M73.25 18.4873C74.7 16.5123 75.4375 15.5248 76.8875 13.5498C77.7875 14.2123 78.225 14.5623 79.0875 15.2873C79.575 15.6998 79.925 16.0373 80.1375 16.3123C80.4375 16.6873 80.625 17.0748 80.725 17.4498C80.85 17.9498 80.8375 18.4248 80.6875 18.8748C80.5375 19.3248 80.2625 19.7373 79.8875 20.1248C79.5625 20.4498 79.2125 20.6998 78.875 20.8623C78.525 21.0248 78.2 21.1123 77.8875 21.1498C77.575 21.1748 77.2875 21.1623 77.025 21.0998C76.7625 21.0373 76.475 20.9123 76.1875 20.7498C75.9 20.5873 75.5875 20.3623 75.2625 20.0748C74.45 19.4123 74.0625 19.0873 73.25 18.4873ZM74.425 18.4873C74.9125 18.8623 75.15 19.0498 75.6125 19.4498C75.975 19.7498 76.275 19.9748 76.5375 20.0998C76.7875 20.2248 77.025 20.2873 77.2375 20.2998C77.5375 20.3123 77.85 20.2498 78.1625 20.0998C78.475 19.9498 78.8 19.7123 79.125 19.3748C79.5625 18.9123 79.8125 18.4623 79.85 18.0248C79.8875 17.5873 79.7875 17.1873 79.575 16.8373C79.4125 16.5873 79.1 16.2498 78.6125 15.8373C78.1 15.3998 77.8375 15.1873 77.3 14.7748C76.15 16.2623 75.575 16.9998 74.425 18.4873Z" fill="#302290"/>
<path d="M17.9875 82.0875C20.625 81.2625 21.9 80.7625 24.325 79.625C24.625 79.8875 24.7875 80.025 25.1 80.275C24.425 82.9 24.175 84.2625 23.8375 87.025C23.4375 86.7375 23.25 86.6 22.85 86.3125C22.9875 85.4875 23.075 85.0875 23.25 84.275C22.225 83.475 21.725 83.05 20.75 82.15C19.9875 82.4625 19.6125 82.6125 18.8375 82.9C18.4875 82.575 18.3125 82.4125 17.9875 82.0875ZM21.4 81.85C22.1875 82.55 22.5875 82.9 23.4 83.5375C23.575 82.8 23.6625 82.4375 23.8625 81.725C24.0125 81.175 24.15 80.7375 24.2875 80.4125C23.9625 80.65 23.6125 80.8625 23.225 81.05C22.5 81.3875 22.1375 81.55 21.4 81.85Z" fill="#302290"/>
<path d="M30.3875 88.4872C30.7 88.7372 30.8625 88.8622 31.1875 89.1122C30.7125 89.6247 30.1375 89.9122 29.475 89.9622C28.8125 90.0122 28.1125 89.8372 27.3875 89.4247C26.6375 88.9997 26.1125 88.5122 25.8125 87.9997C25.5 87.4872 25.3875 86.9372 25.4375 86.3622C25.5 85.7872 25.7 85.2622 26.0375 84.7747C26.4 84.2497 26.8375 83.8747 27.3375 83.6372C27.8375 83.3997 28.375 83.3247 28.9375 83.3872C29.5 83.4497 30.0375 83.6372 30.5625 83.9372C31.1625 84.2747 31.5875 84.6872 31.8625 85.1747C32.1375 85.6622 32.2375 86.2122 32.1625 86.7997C31.8 86.6997 31.6125 86.6622 31.25 86.5497C31.3125 86.0747 31.25 85.6747 31.075 85.3497C30.9 85.0247 30.6125 84.7497 30.2125 84.5122C29.75 84.2497 29.3 84.1122 28.875 84.1122C28.45 84.1122 28.0625 84.2247 27.725 84.4622C27.3875 84.6997 27.1125 84.9872 26.8875 85.3247C26.6 85.7622 26.425 86.1997 26.375 86.6247C26.325 87.0497 26.425 87.4622 26.6625 87.8372C26.9125 88.2122 27.2375 88.5247 27.65 88.7622C28.15 89.0497 28.65 89.1747 29.125 89.1372C29.6125 89.1122 30.025 88.8872 30.3875 88.4872Z" fill="#302290"/>
<path d="M37.3625 91.3122C37.7125 91.4997 37.8875 91.5997 38.25 91.7872C37.875 92.3747 37.3625 92.7622 36.725 92.9247C36.0875 93.0997 35.375 93.0497 34.6125 92.7747C33.825 92.4872 33.225 92.1122 32.8375 91.6622C32.45 91.2122 32.25 90.6997 32.2125 90.1247C32.175 89.5497 32.2875 88.9997 32.525 88.4622C32.7875 87.8872 33.15 87.4372 33.6 87.1122C34.05 86.7872 34.55 86.6122 35.1125 86.5747C35.675 86.5372 36.225 86.6122 36.775 86.8122C37.4125 87.0372 37.9 87.3622 38.25 87.7997C38.6 88.2372 38.7875 88.7497 38.8125 89.3372C38.4375 89.3122 38.25 89.2997 37.875 89.2622C37.85 88.7872 37.725 88.4122 37.5 88.1247C37.275 87.8372 36.95 87.6247 36.5125 87.4622C36.0125 87.2872 35.5625 87.2372 35.15 87.3122C34.7375 87.3872 34.3875 87.5747 34.1 87.8622C33.8125 88.1497 33.5875 88.4872 33.4375 88.8622C33.2375 89.3372 33.1375 89.7997 33.1625 90.2247C33.1875 90.6497 33.35 91.0372 33.65 91.3622C33.95 91.6872 34.325 91.9372 34.7625 92.0997C35.3 92.2997 35.8 92.3247 36.2625 92.1997C36.7125 92.0622 37.075 91.7622 37.3625 91.3122Z" fill="#302290"/>
<path d="M38.95 93.9871C39.55 91.6121 39.85 90.4246 40.45 88.0371C41.6 88.3246 42.1875 88.4496 43.35 88.6496C43.9375 88.7496 44.375 88.8746 44.675 89.0246C44.975 89.1746 45.1875 89.3996 45.35 89.6996C45.5 89.9996 45.5625 90.3121 45.525 90.6496C45.475 91.0871 45.275 91.4246 44.9125 91.6871C44.55 91.9371 44.0125 92.0621 43.3125 92.0371C43.55 92.1746 43.725 92.3121 43.8375 92.4246C44.0875 92.6746 44.3125 92.9871 44.525 93.3371C44.95 94.0621 45.175 94.4246 45.65 95.1371C45.1375 95.0871 44.8875 95.0621 44.375 94.9996C44.0375 94.4371 43.8625 94.1621 43.55 93.5996C43.3125 93.1996 43.125 92.8746 42.975 92.6621C42.825 92.4371 42.6875 92.2746 42.5625 92.1746C42.4375 92.0746 42.3 91.9871 42.1625 91.9371C42.0625 91.8996 41.8875 91.8496 41.6375 91.8121C41.2 91.7246 40.975 91.6746 40.5375 91.5746C40.3 92.6371 40.175 93.1621 39.9375 94.2246C39.55 94.1246 39.35 94.0871 38.95 93.9871ZM40.7125 90.8746C41.5125 91.0496 41.9125 91.1371 42.7125 91.2746C43.1375 91.3496 43.475 91.3621 43.725 91.3246C43.975 91.2871 44.175 91.1871 44.325 91.0371C44.475 90.8871 44.5625 90.7121 44.5875 90.5121C44.625 90.2246 44.5375 89.9746 44.3375 89.7621C44.125 89.5496 43.775 89.3996 43.2875 89.3121C42.4375 89.1621 42.0125 89.0871 41.175 88.8871C40.9875 89.6996 40.8875 90.0871 40.7125 90.8746Z" fill="#302290"/>
<path d="M46.6625 95.2248C46.8375 92.7748 46.9375 91.5623 47.1125 89.1123C49.0375 89.2498 50 89.2623 51.9375 89.1748C51.95 89.4623 51.9625 89.6123 51.975 89.8998C50.375 89.9748 49.5625 89.9748 47.9625 89.8998C47.925 90.6498 47.9 91.0248 47.8625 91.7748C49.4375 91.8498 50.225 91.8623 51.8 91.7873C51.8125 92.0748 51.8125 92.2123 51.825 92.4998C50.225 92.5623 49.425 92.5623 47.825 92.4873C47.7875 93.3248 47.7625 93.7373 47.7125 94.5748C49.575 94.6748 50.5125 94.6748 52.375 94.5748C52.3875 94.8623 52.4 95.0123 52.4125 95.2998C50.1125 95.3998 48.95 95.3873 46.6625 95.2248Z" fill="#302290"/>
<path d="M53.825 95.1873C53.6125 92.7498 53.5125 91.5248 53.3125 89.0748C54.225 88.9998 54.6875 88.9498 55.6 88.8123C56.1125 88.7373 56.5125 88.6998 56.7875 88.7123C57.175 88.7248 57.525 88.8123 57.8375 88.9623C58.2375 89.1623 58.575 89.4498 58.85 89.8248C59.125 90.1998 59.325 90.6498 59.4375 91.1873C59.5375 91.6373 59.575 92.0623 59.525 92.4373C59.475 92.8123 59.375 93.1498 59.2125 93.4123C59.05 93.6748 58.8625 93.9123 58.6375 94.0998C58.4125 94.2748 58.1375 94.4373 57.7875 94.5623C57.4375 94.6873 57.0375 94.7998 56.575 94.8623C55.4875 95.0248 54.925 95.0873 53.825 95.1873ZM54.7625 94.3623C55.4125 94.2873 55.725 94.2498 56.375 94.1623C56.875 94.0873 57.25 93.9873 57.525 93.8623C57.7875 93.7373 58 93.5998 58.1375 93.4248C58.3375 93.1873 58.4625 92.8998 58.525 92.5623C58.5875 92.2123 58.575 91.8248 58.475 91.3623C58.35 90.7373 58.125 90.2748 57.825 89.9873C57.525 89.6998 57.2 89.5248 56.85 89.4623C56.6 89.4248 56.2125 89.4498 55.675 89.5248C55.1125 89.5998 54.825 89.6373 54.25 89.6998C54.4625 91.5748 54.5625 92.4998 54.7625 94.3623Z" fill="#302290"/>
<path d="M61.675 93.8246C61.0375 91.4496 60.725 90.2746 60.1 87.8996C60.45 87.8121 60.6125 87.7621 60.9625 87.6621C61.65 90.0121 61.9875 91.1996 62.675 93.5496C62.275 93.6621 62.075 93.7121 61.675 93.8246Z" fill="#302290"/>
<path d="M66.275 92.3246C65.5 90.3121 65.1125 89.2996 64.3375 87.2746C63.4875 87.5996 63.0625 87.7496 62.2 88.0246C62.1125 87.7496 62.0625 87.6121 61.975 87.3371C64.0125 86.6871 65.0125 86.2871 66.9625 85.3496C67.0875 85.6121 67.15 85.7371 67.275 85.9996C66.45 86.3996 66.025 86.5871 65.1875 86.9246C66.0125 88.9246 66.425 89.9246 67.25 91.9246C66.85 92.0996 66.65 92.1871 66.275 92.3246Z" fill="#302290"/>
<path d="M70.5875 90.3999C69.475 88.2124 68.9125 87.1249 67.8 84.9374C69.5625 84.0374 70.4125 83.5249 72.075 82.3999C72.2375 82.6374 72.325 82.7624 72.4875 82.9999C71.1125 83.9499 70.4 84.3749 68.95 85.1624C69.3125 85.8249 69.4875 86.1499 69.8375 86.8124C71.2625 86.0499 71.9625 85.6249 73.3125 84.7124C73.475 84.9499 73.55 85.0749 73.7125 85.3124C72.3375 86.2499 71.625 86.6749 70.175 87.4499C70.575 88.1874 70.775 88.5499 71.1625 89.2874C72.85 88.3749 73.675 87.8749 75.275 86.7749C75.4375 87.0124 75.525 87.1374 75.6875 87.3749C73.7125 88.7249 72.6875 89.3374 70.5875 90.3999Z" fill="#302290"/>
<path d="M76.8875 86.4998C75.4375 84.5248 74.7 83.5373 73.25 81.5623C74.025 80.9873 74.4 80.6873 75.15 80.0623C75.575 79.7123 75.9 79.4498 76.1625 79.2998C76.525 79.0873 76.875 78.9623 77.2375 78.9123C77.7 78.8498 78.15 78.8998 78.5875 79.0623C79.025 79.2248 79.4375 79.4998 79.825 79.8873C80.15 80.2123 80.4 80.5623 80.55 80.9123C80.7 81.2623 80.775 81.6123 80.7875 81.9373C80.7875 82.2623 80.7375 82.5748 80.6375 82.8498C80.5375 83.1373 80.3625 83.4248 80.125 83.7373C79.8875 84.0498 79.575 84.3623 79.2 84.6748C78.2875 85.4498 77.825 85.8123 76.8875 86.4998ZM77.3 85.2873C77.8375 84.8748 78.1 84.6498 78.625 84.2123C79.025 83.8748 79.325 83.5623 79.5 83.3123C79.675 83.0498 79.7875 82.8123 79.825 82.5873C79.875 82.2748 79.85 81.9498 79.725 81.6248C79.6 81.2873 79.375 80.9623 79.0625 80.6248C78.625 80.1623 78.1875 79.8873 77.7625 79.8123C77.3375 79.7373 76.9625 79.7748 76.6125 79.9248C76.3625 80.0373 76.025 80.2748 75.6 80.6373C75.1375 81.0248 74.9 81.2123 74.425 81.5873C75.575 83.0623 76.15 83.7998 77.3 85.2873Z" fill="#302290"/>
</svg>
