<svg width="100" height="100" viewBox="0 0 100 100" fill="none" xmlns="http://www.w3.org/2000/svg">
<rect width="100" height="100" rx="50" fill="white"/>
<path d="M75.6044 24.3767C69.0453 17.8176 59.9958 13.7664 49.9993 13.7664C40.0028 13.7664 30.9359 17.8176 24.3943 24.3767C17.8352 30.9358 13.784 39.9852 13.784 49.9817C13.784 59.9782 17.8352 69.0452 24.3943 75.5868C30.9534 82.1459 40.0028 86.1971 49.9993 86.1971C59.9958 86.1971 69.0628 82.1459 75.6044 75.5868C82.1635 69.0277 86.2147 59.9782 86.2147 49.9817C86.2147 39.9852 82.1635 30.9358 75.6044 24.3767ZM49.9993 12.8193C60.2589 12.8193 69.5539 16.9758 76.2708 23.7103C82.9878 30.4272 87.1617 39.7222 87.1617 49.9817C87.1617 60.2413 83.0053 69.5363 76.2708 76.2532C69.5539 82.9702 60.2589 87.1441 49.9993 87.1441C39.7398 87.1441 30.4448 82.9877 23.7279 76.2532C17.0109 69.5363 12.8369 60.2413 12.8369 49.9817C12.8369 39.7222 16.9934 30.4272 23.7279 23.7103C30.4448 16.9758 39.7398 12.8193 49.9993 12.8193Z" fill="#2FBA59"/>
<path d="M84.6545 15.328C75.7804 6.45387 63.5391 0.982114 50 0.982114C36.4609 0.982114 24.2196 6.47141 15.3455 15.328C6.47142 24.202 0.999609 36.4434 0.999609 49.9825C0.999609 63.5216 6.48895 75.7629 15.3455 84.637C24.2196 93.511 36.4609 98.9828 50 98.9828C63.5391 98.9828 75.7804 93.4935 84.6545 84.637C93.5286 75.7629 99.0003 63.5216 99.0003 49.9825C99.0003 36.4609 93.5286 24.202 84.6545 15.328ZM50 0C63.8022 0 76.3065 5.59453 85.356 14.644C94.4055 23.6934 100 36.1803 100 50C100 63.8022 94.4055 76.3065 85.356 85.356C76.3065 94.4055 63.8197 100 50 100C36.1978 100 23.6935 94.4055 14.644 85.356C5.59454 76.3065 0 63.8197 0 50C0 36.1978 5.59454 23.6934 14.644 14.644C23.6935 5.59453 36.1978 0 50 0Z" fill="#302290"/>
<path d="M73.7293 18.0816C74.6062 18.7831 75.448 19.0812 76.2547 18.976C77.0615 18.8883 77.7805 18.4323 78.4294 17.6081C79.0783 16.7838 79.3589 15.9771 79.2712 15.1528C79.1835 14.346 78.6925 13.5919 77.8156 12.8904L76.4126 11.7855L72.3263 16.9592L73.7293 18.0816ZM78.3067 12.2415C79.0257 12.8027 79.5343 13.4166 79.8324 14.083C80.1306 14.7494 80.2358 15.4334 80.113 16.1349C80.0078 16.8364 79.6922 17.5204 79.1485 18.2044C78.6224 18.8708 78.0436 19.3443 77.3772 19.6074C76.7283 19.8704 76.0443 19.9406 75.3252 19.8003C74.6062 19.66 73.9047 19.3092 73.1856 18.748L71.046 17.0644L76.1495 10.593L78.3067 12.2415ZM72.7998 9.5758L68.8363 7.54142L67.556 10.0493L70.5375 11.5926L70.1516 12.3292L67.1702 10.7859L65.8198 13.4166L69.7833 15.4509L69.3975 16.1875L64.5922 13.7147L68.3628 6.38393L73.1681 8.85675L72.7998 9.5758ZM64.4869 5.05106L65.3814 5.34921L62.7332 13.1535L61.8387 12.8553L64.4869 5.05106ZM56.4196 3.27976L61.7511 4.15664L61.6108 4.96338L57.2088 4.24433L56.7528 7.01529L60.0675 7.55896L59.9271 8.36569L56.6125 7.82203L55.9987 11.5576L55.0692 11.3997L56.4196 3.27976ZM52.8068 2.87639L53.7539 2.94654L53.105 11.1542L52.1579 11.084L52.8068 2.87639ZM43.8626 3.10438L50.0183 2.63086L50.0885 3.45513L47.4753 3.64805L48.0366 11.049L47.0896 11.1191L46.5283 3.7182L43.9152 3.91112L43.8626 3.10438ZM40.4076 8.38323L43.4417 11.5225L42.3894 11.7505L39.408 8.59368L40.4076 8.38323ZM38.7591 4.12157C39.3905 3.98127 39.9341 3.98126 40.3726 4.10403C40.8286 4.22679 41.1793 4.45479 41.4599 4.75293C41.7405 5.05107 41.9334 5.43689 42.0211 5.89287C42.0913 6.20855 42.1088 6.52424 42.0562 6.82238C42.0211 7.12052 41.9159 7.41865 41.7405 7.68172C41.5652 7.94479 41.3197 8.19031 41.004 8.40077C40.6883 8.61122 40.2849 8.76906 39.8114 8.87429L37.8998 9.29519L38.6188 12.5747L37.7069 12.7852L35.9356 4.73539L38.7591 4.12157ZM41.1092 6.10333C41.004 5.61228 40.776 5.26152 40.4252 5.05106C40.0744 4.82307 39.5834 4.788 38.9345 4.9283L37.0229 5.34921L37.7244 8.50599L39.636 8.08509C40.0569 7.9974 40.3902 7.8571 40.6181 7.66419C40.8461 7.47127 41.0039 7.24328 41.0741 6.98022C41.1793 6.69961 41.1793 6.41901 41.1092 6.10333ZM32.9717 6.76976L28.9205 8.64629L30.0955 11.2068L33.1471 9.80378L33.4978 10.5579L30.4462 11.9609L31.6914 14.6442L35.7427 12.7677L36.0934 13.5218L31.1828 15.7841L27.7279 8.31308L32.6385 6.05071L32.9717 6.76976ZM20.9057 18.0465C20.5199 17.5554 20.2568 17.0469 20.099 16.5207C19.9412 15.9946 19.9061 15.4685 19.9587 14.9423C20.0289 14.4162 20.1867 13.9251 20.4498 13.4692C20.7128 13.0132 21.0636 12.5923 21.5196 12.2415C22.186 11.7154 22.8875 11.4173 23.6416 11.3296C24.3782 11.2419 25.1148 11.3822 25.8163 11.7505L25.3954 12.452C25.0095 12.2591 24.6413 12.1538 24.2554 12.1538C23.8696 12.1363 23.4838 12.2065 23.1155 12.3292C22.7472 12.4695 22.3964 12.6624 22.0632 12.908C21.6072 13.2762 21.2565 13.6972 21.0636 14.2057C20.8531 14.7143 20.8005 15.2405 20.9057 15.8017C20.9934 16.3629 21.2565 16.9241 21.6949 17.4678C22.1158 18.0114 22.5894 18.3973 23.1155 18.6253C23.6416 18.8532 24.1678 18.9234 24.7114 18.8532C25.2551 18.7831 25.7461 18.5551 26.2196 18.1868C26.5529 17.9237 26.8335 17.6256 27.0439 17.2748C27.2719 16.9416 27.4122 16.5558 27.4824 16.1349C27.5525 15.714 27.535 15.2931 27.4122 14.8371L28.1839 14.5916C28.4118 15.4334 28.3943 16.2226 28.1488 16.9416C27.8857 17.6607 27.4122 18.292 26.7283 18.8357C26.2723 19.1864 25.7812 19.4495 25.2726 19.5898C24.7641 19.7301 24.2379 19.7652 23.7118 19.6951C23.1856 19.6249 22.6771 19.4495 22.2035 19.1689C21.7125 18.9059 21.274 18.52 20.9057 18.0465Z" fill="#302290"/>
<path d="M77.4125 86.7063C78.2894 86.0224 78.7804 85.2682 78.8856 84.4615C78.9909 83.6548 78.7103 82.848 78.0789 82.0238C77.43 81.1995 76.711 80.7435 75.9043 80.6208C75.0975 80.5155 74.2381 80.7961 73.3613 81.4976L71.9583 82.585L76.0095 87.7761L77.4125 86.7063ZM72.8527 80.8663C73.5717 80.3051 74.2908 79.9543 75.0098 79.8316C75.7289 79.6913 76.4128 79.7614 77.0617 80.042C77.7106 80.3226 78.3069 80.7961 78.833 81.4626C79.3591 82.129 79.6573 82.813 79.7625 83.5145C79.8677 84.216 79.7625 84.8824 79.4468 85.5488C79.1312 86.2153 78.6226 86.8116 77.9035 87.3728L75.7639 89.0389L70.6956 82.5499L72.8527 80.8663ZM69.7309 84.0055L65.7675 86.0574L67.0652 88.5478L70.0467 87.0045L70.4325 87.7411L67.4511 89.2844L68.819 91.915L72.7825 89.8631L73.1684 90.5997L68.3806 93.0901L64.5924 85.7768L69.3802 83.2865L69.7309 84.0055ZM61.6811 86.5836L62.5756 86.2854L65.1887 94.1072L64.2943 94.4054L61.6811 86.5836ZM54.9291 88.1795L60.2431 87.2325L60.3834 88.0392L55.9989 88.8109L56.49 91.5818L59.7871 91.0031L59.9274 91.8098L56.6303 92.3885L57.2967 96.1065L56.3672 96.2644L54.9291 88.1795ZM51.5093 88.425L52.4563 88.3549L53.0877 96.5625L52.1406 96.6327L51.5093 88.425ZM43.8102 88.0567L49.966 88.5303L49.8958 89.3545L47.2827 89.1616L46.7215 96.5625L45.7745 96.4924L46.3356 89.0915L43.7225 88.8985L43.8102 88.0567ZM39.6713 91.6695L40.8639 95.861L39.8292 95.5804L38.7067 91.3889L39.6713 91.6695ZM40.2501 87.1272C40.8639 87.3026 41.3549 87.5481 41.6882 87.8814C42.0214 88.197 42.2494 88.5653 42.3371 88.9687C42.4423 89.3721 42.4248 89.793 42.302 90.2314C42.2143 90.5471 42.074 90.8277 41.8986 91.0732C41.7232 91.3187 41.4777 91.5292 41.1971 91.687C40.9165 91.8449 40.5833 91.9326 40.215 91.9676C39.8467 92.0027 39.4083 91.9501 38.9347 91.8098L37.0407 91.2837L36.1287 94.5282L35.2167 94.2651L37.4616 86.338L40.2501 87.1272ZM41.3725 89.9859C41.5128 89.5124 41.4777 89.0915 41.2673 88.7407C41.0744 88.3899 40.6534 88.1093 40.0221 87.934L38.1456 87.4078L37.2687 90.512L39.1627 91.0382C39.5836 91.1609 39.9344 91.1784 40.2326 91.1258C40.5307 91.0732 40.7762 90.9505 40.9691 90.74C41.1445 90.5471 41.2848 90.284 41.3725 89.9859ZM35.3921 86.4784L31.3234 84.6369L30.1659 87.1974L33.2175 88.5829L32.8843 89.337L29.8327 87.9515L28.6051 90.6348L32.6738 92.4762L32.3406 93.2304L27.43 91.0031L30.8323 83.4969L35.7429 85.7242L35.3921 86.4784ZM21.1515 81.4275C21.5374 80.9364 21.9582 80.5506 22.4493 80.27C22.9228 79.9894 23.4314 79.814 23.9576 79.7614C24.4837 79.6913 24.9923 79.7439 25.5184 79.8842C26.027 80.0245 26.5181 80.27 26.9741 80.6383C27.6405 81.1644 28.0964 81.7782 28.3595 82.4797C28.6226 83.1813 28.6576 83.9178 28.4647 84.6895L27.6931 84.444C27.7807 84.0231 27.7983 83.6372 27.7106 83.2514C27.6229 82.8656 27.4826 82.5148 27.2546 82.1816C27.0442 81.8484 26.7636 81.5502 26.4303 81.3047C25.9744 80.9364 25.4658 80.726 24.9397 80.6383C24.4135 80.5506 23.8698 80.6383 23.3612 80.8663C22.8351 81.0943 22.3616 81.4801 21.9232 82.0238C21.5023 82.5674 21.2392 83.1286 21.134 83.6898C21.0287 84.2511 21.0989 84.7772 21.2918 85.2858C21.5023 85.7944 21.8355 86.2153 22.2915 86.5836C22.6247 86.8466 22.9754 87.0395 23.3612 87.1798C23.7471 87.3201 24.1504 87.3552 24.5713 87.3377C24.9923 87.3026 25.3957 87.1799 25.8166 86.9694L26.2374 87.6709C25.4658 88.0918 24.7117 88.2672 23.94 88.197C23.1684 88.1269 22.4493 87.8112 21.7654 87.2675C21.3094 86.9168 20.9586 86.4959 20.6955 86.0399C20.4325 85.5839 20.2746 85.0753 20.222 84.5492C20.1694 84.0231 20.2045 83.4969 20.3623 82.9708C20.5026 82.4096 20.7657 81.901 21.1515 81.4275Z" fill="#302290"/>
<path fill-rule="evenodd" clip-rule="evenodd" d="M96.0887 54.3663L93.2827 52.332L90.4942 54.3663L91.564 51.0693L88.7579 49.0349L92.2304 49.0524L93.2827 45.7378L94.3525 49.0524L97.825 49.0349L95.0189 51.0693L96.0887 54.3663Z" fill="#2FBA59"/>
<path fill-rule="evenodd" clip-rule="evenodd" d="M9.50604 54.3663L6.7 52.332L3.91151 54.3663L4.98134 51.0693L2.17529 49.0349L5.64778 49.0524L6.7 45.7378L7.76983 49.0524L11.2423 49.0349L8.43627 51.0693L9.50604 54.3663Z" fill="#2FBA59"/>
<path fill-rule="evenodd" clip-rule="evenodd" d="M90.8626 70.5712L89.1264 69.3085L87.4077 70.5712L88.0742 68.5368L86.3379 67.2741H88.4775L89.1264 65.2397L89.7928 67.2741H91.9324L90.1962 68.5368L90.8626 70.5712Z" fill="#2FBA59"/>
<path fill-rule="evenodd" clip-rule="evenodd" d="M12.5917 70.5712L10.8555 69.3085L9.13679 70.5712L9.80323 68.5368L8.06702 67.2741H10.2066L10.8555 65.2397L11.5219 67.2741H13.6615L11.9253 68.5368L12.5917 70.5712Z" fill="#2FBA59"/>
<path fill-rule="evenodd" clip-rule="evenodd" d="M90.8626 35.4438L89.1264 34.1635L87.4077 35.4438L88.0742 33.3919L86.3379 32.1467H88.4775L89.1264 30.1123L89.7928 32.1467H91.9324L90.1962 33.3919L90.8626 35.4438Z" fill="#2FBA59"/>
<path fill-rule="evenodd" clip-rule="evenodd" d="M12.5917 35.4438L10.8555 34.1635L9.13679 35.4438L9.80323 33.3919L8.06702 32.1467H10.2066L10.8555 30.1123L11.5219 32.1467H13.6615L11.9253 33.3919L12.5917 35.4438Z" fill="#2FBA59"/>
<path d="M71.5886 52.3147V67.3445H67.8531V59.2772C67.8531 58.1197 67.818 57.4182 67.7654 57.1727C67.7128 56.9447 67.555 56.7518 67.3095 56.6465C67.064 56.5238 66.5027 56.4712 65.6434 56.4712H65.2751V54.7174C67.0815 54.3316 68.4669 53.5248 69.3964 52.3147H71.5886ZM60.7328 56.1379C60.7328 55.3488 60.6978 54.8402 60.6101 54.6472C60.5399 54.4543 60.347 54.3491 60.0664 54.3491C59.7858 54.3491 59.6104 54.4543 59.5227 54.6648C59.435 54.8752 59.3824 55.3663 59.3824 56.1379V63.4512C59.3824 64.3281 59.4175 64.8542 59.5052 65.0296C59.5929 65.2049 59.7682 65.2926 60.0488 65.2926C60.3294 65.2926 60.5048 65.1874 60.5925 64.977C60.6802 64.7665 60.7153 64.293 60.7153 63.5564V56.1379H60.7328ZM64.4683 57.4007V62.3989C64.4683 63.5389 64.3982 64.3631 64.2754 64.8893C64.1527 65.4154 63.8896 65.8889 63.5038 66.3449C63.1179 66.8009 62.6444 67.1166 62.1008 67.3095C61.5571 67.5024 60.9433 67.6076 60.2593 67.6076C59.3649 67.6076 58.6283 67.5024 58.032 67.2919C57.4357 67.0815 56.9622 66.7658 56.6115 66.3274C56.2607 65.8889 56.0152 65.4329 55.8574 64.9419C55.7171 64.4508 55.6294 63.6792 55.6294 62.6269V57.3831C55.6294 55.9976 55.7521 54.9805 55.9801 54.279C56.2256 53.595 56.6816 53.0338 57.4006 52.6304C58.1021 52.2095 58.9615 52.0166 59.9787 52.0166C60.8029 52.0166 61.5396 52.1569 62.1884 52.455C62.8373 52.7356 63.3284 53.0864 63.6441 53.5073C63.9597 53.9282 64.1878 54.3842 64.293 54.9103C64.4158 55.4364 64.4683 56.2607 64.4683 57.4007ZM50.5434 56.1379C50.5434 55.3488 50.5083 54.8402 50.4207 54.6472C50.3505 54.4543 50.1576 54.3491 49.877 54.3491C49.5964 54.3491 49.421 54.4543 49.3333 54.6648C49.2456 54.8752 49.193 55.3663 49.193 56.1379V63.4512C49.193 64.3281 49.2281 64.8542 49.3158 65.0296C49.4035 65.2049 49.5788 65.2926 49.8594 65.2926C50.14 65.2926 50.3154 65.1874 50.4031 64.977C50.4908 64.7665 50.5259 64.293 50.5259 63.5564V56.1379H50.5434ZM54.2789 57.4007V62.3989C54.2789 63.5389 54.2088 64.3631 54.086 64.8893C53.9633 65.4154 53.7002 65.8889 53.3144 66.3449C52.9285 66.8009 52.455 67.1166 51.9114 67.3095C51.3677 67.5024 50.7539 67.6076 50.0699 67.6076C49.1755 67.6076 48.4389 67.5024 47.8426 67.2919C47.2463 67.0815 46.7728 66.7658 46.4221 66.3274C46.0713 65.8889 45.8257 65.4329 45.6679 64.9419C45.5276 64.4508 45.44 63.6792 45.44 62.6269V57.3831C45.44 55.9976 45.5627 54.9805 45.7907 54.279C46.0362 53.595 46.4922 53.0338 47.2112 52.6304C47.9127 52.2095 48.7721 52.0166 49.7893 52.0166C50.6135 52.0166 51.3501 52.1569 51.999 52.455C52.6479 52.7356 53.139 53.0864 53.4546 53.5073C53.7703 53.9282 53.9984 54.3842 54.1036 54.9103C54.2264 55.4364 54.2789 56.2607 54.2789 57.4007ZM40.4241 61.8377C40.4241 61.259 40.3715 60.8907 40.2488 60.6977C40.126 60.5048 39.9331 60.4172 39.6876 60.4172C39.4421 60.4172 39.2491 60.5048 39.1439 60.6977C39.0386 60.8731 38.986 61.259 38.986 61.8552V63.8019C38.986 64.4508 39.0387 64.8717 39.1614 65.0471C39.2842 65.24 39.4771 65.3277 39.7402 65.3277C40.0033 65.3277 40.1962 65.24 40.2839 65.0471C40.3716 64.8542 40.4241 64.4333 40.4241 63.7668V61.8377ZM40.354 55.5943C40.354 55.0857 40.3014 54.7525 40.2137 54.5946C40.126 54.4368 39.9507 54.3491 39.6876 54.3491C39.4421 54.3491 39.2667 54.4368 39.179 54.6122C39.0913 54.7875 39.0562 55.1208 39.0562 55.5943V56.7342C39.0562 57.1902 39.1088 57.4884 39.1965 57.6637C39.3018 57.8391 39.4596 57.9268 39.7051 57.9268C39.9506 57.9268 40.126 57.8391 40.2137 57.6637C40.3014 57.4884 40.3365 57.1376 40.3365 56.6115V55.5943H40.354ZM42.4585 58.8212C43.0022 59.0492 43.4406 59.3824 43.7212 59.8209C44.0194 60.2593 44.1597 61.3116 44.1597 62.9777C44.1597 64.1878 44.0369 65.0822 43.8089 65.6609C43.5634 66.2397 43.1074 66.7132 42.441 67.0815C41.757 67.4498 40.845 67.6251 39.7051 67.6251C38.5827 67.6251 37.7058 67.4498 37.0569 67.099C36.408 66.7483 35.9345 66.2747 35.6539 65.696C35.3733 65.1172 35.233 64.1527 35.233 62.8023C35.233 61.8903 35.3031 61.1011 35.4434 60.4347C35.5837 59.7682 36.0222 59.2246 36.7588 58.8388C36.3028 58.6108 35.952 58.26 35.724 57.769C35.4961 57.2779 35.3733 56.6641 35.3733 55.9275C35.3733 54.6297 35.7241 53.6651 36.4431 53.0162C37.1621 52.3673 38.2319 52.0517 39.6525 52.0517C41.301 52.0517 42.441 52.3849 43.0724 53.0864C43.7037 53.7704 44.0194 54.7525 44.0194 56.0327C44.0194 56.8395 43.9141 57.4357 43.7037 57.7865C43.5283 58.1197 43.0899 58.4705 42.4585 58.8212ZM33.8475 52.3147V67.3445H30.112V59.2772C30.112 58.1197 30.0769 57.4182 30.0243 57.1727C29.9717 56.9447 29.8138 56.7518 29.5683 56.6465C29.3228 56.5238 28.7616 56.4712 27.9022 56.4712H27.5339V54.7174C29.3403 54.3316 30.7258 53.5248 31.6553 52.3147H33.8475ZM74.2193 37.2148H70.589V36.1099C70.589 35.5838 70.5364 35.2505 70.4487 35.1102C70.361 34.9699 70.2032 34.8998 69.9927 34.8998C69.7648 34.8998 69.5893 34.9875 69.4666 35.1804C69.3438 35.3733 69.2912 35.6539 69.2912 36.0397C69.2912 36.5483 69.3614 36.9166 69.5017 37.1622C69.642 37.4077 69.9927 37.7234 70.6065 38.0741C72.3428 39.1088 73.4301 39.9682 73.8861 40.6171C74.3421 41.2835 74.5701 42.3533 74.5701 43.8089C74.5701 44.8787 74.4473 45.6679 74.2018 46.1765C73.9563 46.6851 73.4652 47.106 72.7461 47.4568C72.0271 47.8075 71.2028 47.9654 70.2382 47.9654C69.186 47.9654 68.3091 47.7725 67.5725 47.3691C66.836 46.9657 66.3624 46.4747 66.1169 45.8609C65.8889 45.247 65.7837 44.3701 65.7837 43.2477V42.2656H69.414V44.0895C69.414 44.6507 69.4666 45.019 69.5718 45.1769C69.677 45.3347 69.8524 45.4224 70.1155 45.4224C70.3785 45.4224 70.5715 45.3172 70.6942 45.1243C70.817 44.9138 70.8871 44.6157 70.8871 44.2123C70.8871 43.3354 70.7644 42.7567 70.5189 42.4761C70.2733 42.1955 69.6595 41.7395 68.6949 41.1081C67.7303 40.4592 67.0814 40.0033 66.7658 39.7051C66.4501 39.407 66.187 39.0036 65.9766 38.495C65.7661 37.9864 65.6609 37.32 65.6609 36.5308C65.6609 35.3733 65.8012 34.5315 66.0994 34.0054C66.3975 33.4792 66.871 33.0583 67.5199 32.7602C68.1688 32.462 68.958 32.3042 69.8875 32.3042C70.9047 32.3042 71.764 32.462 72.4831 32.7953C73.2021 33.1285 73.6581 33.5318 73.9036 34.0404C74.1316 34.5315 74.2544 35.3908 74.2544 36.5834V37.2148H74.2193ZM60.9783 42.3182C60.803 40.6171 60.5925 38.5126 60.3821 35.9871C59.9962 38.8808 59.7507 40.9854 59.6455 42.3182H60.9783ZM63.0478 32.655L65.2751 47.6672H61.2765L61.066 44.9664H59.663L59.4526 47.6672H55.4189L57.4006 32.655H63.0478ZM54.7525 37.2148H51.1222V36.1099C51.1222 35.5838 51.0695 35.2505 50.9818 35.1102C50.8941 34.9699 50.7363 34.8998 50.5259 34.8998C50.2979 34.8998 50.1225 34.9875 49.9997 35.1804C49.877 35.3733 49.8244 35.6539 49.8244 36.0397C49.8244 36.5483 49.8945 36.9166 50.0348 37.1622C50.1751 37.4077 50.5259 37.7234 51.1397 38.0741C52.8759 39.1088 53.9633 39.9682 54.4193 40.6171C54.8752 41.2835 55.1032 42.3533 55.1032 43.8089C55.1032 44.8787 54.9804 45.6679 54.7349 46.1765C54.4894 46.6851 53.9984 47.106 53.2793 47.4568C52.5603 47.8075 51.736 47.9654 50.7714 47.9654C49.7191 47.9654 48.8423 47.7725 48.1057 47.3691C47.3691 46.9657 46.8956 46.4747 46.6501 45.8609C46.4221 45.247 46.3168 44.3701 46.3168 43.2477V42.2656H49.9471V44.0895C49.9471 44.6507 49.9997 45.019 50.1049 45.1769C50.2102 45.3347 50.3856 45.4224 50.6487 45.4224C50.9117 45.4224 51.1046 45.3172 51.2274 45.1243C51.3501 44.9138 51.4203 44.6157 51.4203 44.2123C51.4203 43.3354 51.2975 42.7567 51.052 42.4761C50.8065 42.1955 50.1926 41.7395 49.2281 41.1081C48.2635 40.4592 47.6146 40.0033 47.2989 39.7051C46.9833 39.407 46.7202 39.0036 46.5097 38.495C46.2993 37.9864 46.1941 37.32 46.1941 36.5308C46.1941 35.3733 46.3344 34.5315 46.6325 34.0054C46.9306 33.4792 47.4042 33.0583 48.0531 32.7602C48.702 32.462 49.4912 32.3042 50.4207 32.3042C51.4378 32.3042 52.2972 32.462 53.0162 32.7953C53.7353 33.1285 54.1912 33.5318 54.4368 34.0404C54.6647 34.5315 54.7875 35.3908 54.7875 36.5834V37.2148H54.7525ZM44.9138 32.655V47.6672H41.0029V41.3712H39.8629V47.6672H35.952V32.655H39.8629V38.0215H41.0029V32.655H44.9138ZM30.568 36.5308C30.568 35.8293 30.5329 35.3908 30.4627 35.1979C30.3926 35.005 30.2348 34.8998 29.9892 34.8998C29.7963 34.8998 29.6385 34.9875 29.5332 35.1453C29.428 35.3032 29.3754 35.7591 29.3754 36.5308V43.5459C29.3754 44.4228 29.4105 44.9489 29.4806 45.1593C29.5508 45.3698 29.7086 45.4575 29.9717 45.4575C30.2347 45.4575 30.3926 45.3347 30.4803 45.1067C30.5504 44.8787 30.5855 44.3175 30.5855 43.4231V36.5308H30.568ZM34.4789 41.4589C34.4789 42.9671 34.4438 44.0369 34.3737 44.6683C34.3035 45.2996 34.0755 45.8784 33.7072 46.387C33.3389 46.9131 32.8303 47.2989 32.199 47.5796C31.5676 47.8602 30.8135 48.0005 29.9717 48.0005C29.1649 48.0005 28.4459 47.8601 27.8145 47.5971C27.1832 47.334 26.657 46.9482 26.2712 46.4221C25.8854 45.8959 25.6574 45.3172 25.5697 44.7034C25.4995 44.0895 25.4645 43.0022 25.4645 41.4589V38.8808C25.4645 37.3726 25.4995 36.3028 25.5697 35.6714C25.6399 35.0401 25.8678 34.4613 26.2361 33.9527C26.6044 33.4266 27.113 33.0408 27.7444 32.7602C28.3757 32.4796 29.1123 32.3393 29.9717 32.3393C30.7784 32.3393 31.4974 32.4796 32.1288 32.7426C32.7601 33.0057 33.2863 33.3915 33.6721 33.9177C34.0579 34.4438 34.286 35.0225 34.3737 35.6364C34.4438 36.2502 34.4789 37.3375 34.4789 38.8808V41.4589Z" fill="#302290"/>
</svg>
