<svg width="100" height="100" viewBox="0 0 100 100" fill="none" xmlns="http://www.w3.org/2000/svg">
<rect width="100" height="100" rx="50" fill="white"/>
<path fill-rule="evenodd" clip-rule="evenodd" d="M49.9997 15.5215C69.0281 15.5215 84.4613 30.9547 84.4613 49.9831C84.4613 69.0115 69.0281 84.4447 49.9997 84.4447C30.9713 84.4447 15.5381 69.0115 15.5381 49.9831C15.5381 30.9547 30.9537 15.5215 49.9997 15.5215Z" fill="#302290"/>
<path d="M75.6043 24.3777C69.0452 17.8186 59.9958 13.7673 49.9993 13.7673C40.0028 13.7673 30.9358 17.8186 24.3943 24.3777C17.8352 30.9368 13.7839 39.9862 13.7839 49.9827C13.7839 59.9792 17.8352 69.0462 24.3943 75.5878C30.9534 82.1469 40.0028 86.1981 49.9993 86.1981C59.9958 86.1981 69.0628 82.1469 75.6043 75.5878C82.1634 69.0287 86.2147 59.9792 86.2147 49.9827C86.2147 39.9862 82.1634 30.9368 75.6043 24.3777ZM49.9993 12.8203C60.2588 12.8203 69.5538 16.9767 76.2708 23.7112C82.9877 30.4282 87.1617 39.7232 87.1617 49.9827C87.1617 60.2423 83.0053 69.5373 76.2708 76.2542C69.5538 82.9711 60.2588 87.1451 49.9993 87.1451C39.7397 87.1451 30.4448 82.9887 23.7278 76.2542C17.0109 69.5373 12.8369 60.2423 12.8369 49.9827C12.8369 39.7232 16.9933 30.4282 23.7278 23.7112C30.4448 16.9943 39.7397 12.8203 49.9993 12.8203Z" fill="#2FBA59"/>
<path d="M84.6545 15.328C75.7804 6.45388 63.5391 0.982112 50 0.982112C36.4609 0.982112 24.2196 6.47141 15.3455 15.328C6.47142 24.202 0.999662 36.4434 0.999662 49.9825C0.999662 63.5216 6.48895 75.7629 15.3455 84.637C24.2196 93.511 36.4609 98.9828 50 98.9828C63.5391 98.9828 75.7804 93.4935 84.6545 84.637C93.5286 75.7629 99.0003 63.5216 99.0003 49.9825C99.0003 36.4609 93.511 24.202 84.6545 15.328ZM50 0C63.8022 0 76.3065 5.59453 85.356 14.644C94.4055 23.6934 100 36.1803 100 50C100 63.8022 94.4055 76.3066 85.356 85.356C76.3065 94.4055 63.8197 100 50 100C36.1978 100 23.6935 94.4055 14.644 85.356C5.59454 76.3066 0 63.8197 0 50C0 36.1978 5.59454 23.6934 14.644 14.644C23.6935 5.59453 36.1978 0 50 0Z" fill="#302290"/>
<path d="M73.7293 18.0816C74.6062 18.7831 75.448 19.0812 76.2547 18.976C77.0615 18.8883 77.7805 18.4323 78.4294 17.6081C79.0783 16.7838 79.3589 15.9771 79.2712 15.1528C79.1835 14.346 78.6925 13.5919 77.8156 12.8904L76.4126 11.7855L72.3263 16.9592L73.7293 18.0816ZM78.3067 12.2591C79.0257 12.8203 79.5343 13.4341 79.8324 14.1005C80.1306 14.767 80.2358 15.4509 80.113 16.1524C80.0078 16.8539 79.6922 17.5379 79.1485 18.2219C78.6224 18.8883 78.0436 19.3618 77.3772 19.6249C76.7283 19.888 76.0443 19.9581 75.3252 19.8178C74.6062 19.6775 73.9047 19.3268 73.1856 18.7655L71.046 17.0819L76.1495 10.6105L78.3067 12.2591ZM72.7998 9.57579L68.8363 7.54142L67.556 10.0493L70.5375 11.5926L70.1516 12.3292L67.1702 10.7859L65.8198 13.4165L69.7833 15.4509L69.3975 16.1875L64.5922 13.7147L68.3628 6.38393L73.1681 8.85675L72.7998 9.57579ZM64.4869 5.05106L65.3814 5.3492L62.7332 13.1535L61.8387 12.8553L64.4869 5.05106ZM56.4196 3.27975L61.7511 4.15664L61.6108 4.96337L57.2088 4.24433L56.7528 7.01529L60.0675 7.55895L59.9271 8.36569L56.6125 7.82202L55.9987 11.5576L55.0692 11.3997L56.4196 3.27975ZM52.8068 2.87639L53.7539 2.94654L53.105 11.1542L52.1579 11.084L52.8068 2.87639ZM43.8626 3.10438L50.0183 2.63086L50.0885 3.45513L47.4754 3.64805L48.0366 11.049L47.0896 11.1191L46.5283 3.7182L43.9152 3.91111L43.8626 3.10438ZM40.4076 8.38323L43.4417 11.5225L42.3894 11.7505L39.408 8.59368L40.4076 8.38323ZM38.7591 4.12156C39.3905 3.98126 39.9341 3.98126 40.3726 4.10403C40.8286 4.22679 41.1793 4.45478 41.4599 4.75292C41.7405 5.0686 41.9334 5.43689 42.0211 5.89287C42.0913 6.20855 42.1088 6.52423 42.0562 6.82237C42.0211 7.12051 41.9159 7.41865 41.7405 7.68172C41.5652 7.94478 41.3197 8.19031 41.004 8.40076C40.6883 8.61122 40.2849 8.76906 39.8114 8.87428L37.8998 9.29519L38.6188 12.5747L37.7069 12.7852L35.9356 4.73538L38.7591 4.12156ZM41.1092 6.10333C41.004 5.61227 40.776 5.26152 40.4252 5.05106C40.0744 4.82307 39.5834 4.788 38.9345 4.9283L37.0229 5.3492L37.7244 8.50599L39.636 8.08509C40.0569 7.9974 40.3902 7.8571 40.6181 7.66418C40.8461 7.47127 41.0039 7.24328 41.0741 6.98021C41.1793 6.69961 41.1793 6.419 41.1092 6.10333ZM32.9717 6.76976L28.9205 8.64629L30.0955 11.2068L33.1471 9.80378L33.4978 10.5579L30.4462 11.9609L31.6915 14.6442L35.7427 12.7677L36.0934 13.5218L31.1828 15.7841L27.7279 8.31308L32.6385 6.05071L32.9717 6.76976ZM20.9057 18.0465C20.5199 17.5554 20.2568 17.0469 20.099 16.5207C19.9412 15.9946 19.9061 15.4685 19.9587 14.9423C20.0289 14.4162 20.1867 13.9251 20.4498 13.4692C20.7128 13.0132 21.0636 12.5923 21.5196 12.2415C22.186 11.7154 22.8875 11.4172 23.6416 11.3296C24.3782 11.2419 25.1148 11.3822 25.8163 11.7505L25.3954 12.452C25.0095 12.2591 24.6413 12.1538 24.2554 12.1538C23.8696 12.1363 23.4838 12.2064 23.1155 12.3292C22.7472 12.4695 22.3964 12.6624 22.0632 12.908C21.6072 13.2762 21.2565 13.6972 21.0636 14.2057C20.8531 14.7143 20.8005 15.2405 20.9057 15.8017C20.9934 16.3629 21.2565 16.9241 21.6949 17.4678C22.1158 18.0114 22.5894 18.3973 23.1155 18.6252C23.6416 18.8532 24.1678 18.9234 24.7114 18.8532C25.2551 18.7831 25.7461 18.5551 26.2196 18.1868C26.5529 17.9237 26.8335 17.6256 27.0439 17.2748C27.2719 16.9416 27.4122 16.5558 27.4824 16.1349C27.5525 15.714 27.535 15.2931 27.4122 14.8371L28.1839 14.5916C28.3768 15.4334 28.3768 16.2226 28.1137 16.9592C27.8507 17.6782 27.3772 18.3096 26.6932 18.8532C26.2372 19.204 25.7461 19.4671 25.2375 19.6074C24.7289 19.7477 24.2028 19.7827 23.6767 19.7126C23.1506 19.6424 22.642 19.4671 22.1684 19.1865C21.6949 18.9058 21.274 18.52 20.9057 18.0465Z" fill="#302290"/>
<path d="M77.4125 86.7063C78.2894 86.0224 78.7804 85.2682 78.8856 84.4615C78.9909 83.6548 78.7103 82.848 78.0789 82.0238C77.43 81.1995 76.711 80.7435 75.9043 80.6208C75.0975 80.5155 74.2381 80.7961 73.3613 81.4976L71.9583 82.585L76.0095 87.7761L77.4125 86.7063ZM72.8352 80.8663C73.5542 80.3051 74.2732 79.9543 74.9923 79.8316C75.7113 79.6913 76.3953 79.7614 77.0442 80.042C77.6931 80.3226 78.2894 80.7961 78.8155 81.4626C79.3416 82.129 79.6398 82.813 79.745 83.5145C79.8502 84.216 79.745 84.8824 79.4293 85.5488C79.1136 86.2153 78.6051 86.8116 77.886 87.3728L75.7464 89.0389L70.678 82.5499L72.8352 80.8663ZM69.7309 84.0055L65.7675 86.0574L67.0652 88.5478L70.0467 87.0045L70.4325 87.7411L67.4511 89.2844L68.819 91.915L72.7825 89.8631L73.1684 90.5997L68.3806 93.0901L64.5924 85.7768L69.3802 83.2865L69.7309 84.0055ZM61.6811 86.5836L62.5756 86.2854L65.1887 94.1072L64.2943 94.4054L61.6811 86.5836ZM54.9292 88.197L60.2431 87.25L60.3834 88.0567L55.9989 88.8284L56.49 91.5994L59.7871 91.0206L59.9274 91.8273L56.6303 92.4061L57.2967 96.1241L56.3672 96.2819L54.9292 88.197ZM51.5093 88.425L52.4563 88.3549L53.0877 96.5625L52.1406 96.6327L51.5093 88.425ZM43.8102 88.0567L49.966 88.5303L49.8958 89.3545L47.2827 89.1616L46.7215 96.5625L45.7745 96.4924L46.3356 89.0915L43.7225 88.8985L43.8102 88.0567ZM39.6713 91.6695L40.8639 95.861L39.8292 95.5629L38.7068 91.3714L39.6713 91.6695ZM40.2501 87.1272C40.8639 87.3026 41.3549 87.5481 41.6882 87.8814C42.0214 88.197 42.2494 88.5653 42.3371 88.9687C42.4423 89.3721 42.4248 89.793 42.302 90.2314C42.2143 90.5471 42.074 90.8277 41.8986 91.0732C41.7232 91.3188 41.4953 91.5292 41.1971 91.687C40.9165 91.8449 40.5833 91.9326 40.215 91.9676C39.8467 92.0027 39.4083 91.9501 38.9347 91.8098L37.0407 91.2837L36.1287 94.5282L35.2167 94.2651L37.4616 86.338L40.2501 87.1272ZM41.3725 89.9859C41.5128 89.5124 41.4777 89.0915 41.2673 88.7407C41.0744 88.39 40.6535 88.1094 40.0221 87.934L38.1456 87.4078L37.2687 90.512L39.1627 91.0382C39.5836 91.1609 39.9344 91.1785 40.2326 91.1258C40.5307 91.0732 40.7762 90.9505 40.9691 90.74C41.1445 90.5471 41.2848 90.3016 41.3725 89.9859ZM35.3921 86.4959L31.3234 84.6544L30.1659 87.2149L33.2175 88.6004L32.8843 89.3545L29.8327 87.9691L28.6051 90.6523L32.6738 92.4938L32.3406 93.2479L27.43 91.0206L30.8323 83.5145L35.7429 85.7418L35.3921 86.4959ZM21.1515 81.4275C21.5374 80.9364 21.9582 80.5506 22.4493 80.27C22.9228 79.9894 23.4314 79.814 23.9576 79.7614C24.4837 79.6913 24.9923 79.7439 25.5184 79.8842C26.027 80.0245 26.5181 80.27 26.9741 80.6383C27.6405 81.1644 28.0964 81.7782 28.3595 82.4797C28.6226 83.1813 28.6576 83.9178 28.4647 84.6895L27.6931 84.444C27.7807 84.0231 27.7983 83.6372 27.7106 83.2514C27.6229 82.8656 27.4826 82.5148 27.2546 82.1816C27.0442 81.8484 26.7636 81.5503 26.4304 81.3047C25.9744 80.9364 25.4658 80.726 24.9397 80.6383C24.4135 80.5506 23.8699 80.6383 23.3613 80.8663C22.8352 81.0943 22.3616 81.4801 21.9232 82.0238C21.5023 82.5674 21.2392 83.1286 21.134 83.6899C21.0287 84.2511 21.0814 84.7772 21.2918 85.2858C21.5023 85.7944 21.8355 86.2153 22.2915 86.5836C22.6247 86.8466 22.9755 87.0396 23.3613 87.1799C23.7471 87.3202 24.1504 87.3552 24.5713 87.3377C24.9923 87.3026 25.3957 87.1799 25.8166 86.9694L26.2374 87.6709C25.4658 88.0918 24.7117 88.2672 23.94 88.197C23.1684 88.1269 22.4493 87.8112 21.7654 87.2675C21.3094 86.9168 20.9586 86.4959 20.6955 86.0399C20.4325 85.5839 20.2746 85.0753 20.222 84.5492C20.1694 84.0231 20.2045 83.4969 20.3623 82.9708C20.5026 82.4096 20.7657 81.901 21.1515 81.4275Z" fill="#302290"/>
<path fill-rule="evenodd" clip-rule="evenodd" d="M96.0895 54.3668L93.2835 52.3325L90.4951 54.3668L91.5648 51.0697L88.7588 49.0354L92.2313 49.0529L93.2835 45.7383L94.3533 49.0529L97.8258 49.0354L95.0198 51.0697L96.0895 54.3668Z" fill="#2FBA59"/>
<path fill-rule="evenodd" clip-rule="evenodd" d="M9.50604 54.3668L6.70005 52.3325L3.89401 54.3668L4.98134 51.0697L2.17529 49.0354L5.63022 49.0529L6.70005 45.7383L7.76983 49.0529L11.2423 49.0354L8.43627 51.0697L9.50604 54.3668Z" fill="#2FBA59"/>
<path fill-rule="evenodd" clip-rule="evenodd" d="M90.8631 70.5712L89.1268 69.3085L87.3906 70.5712L88.057 68.5368L86.3208 67.2741H88.4779L89.1268 65.2397L89.7932 67.2741H91.9328L90.1966 68.5368L90.8631 70.5712Z" fill="#2FBA59"/>
<path fill-rule="evenodd" clip-rule="evenodd" d="M12.5921 70.5712L10.8559 69.3085L9.13716 70.5712L9.8036 68.5368L8.06738 67.2741H10.207L10.8559 65.2397L11.5223 67.2741H13.6619L11.9256 68.5368L12.5921 70.5712Z" fill="#2FBA59"/>
<path fill-rule="evenodd" clip-rule="evenodd" d="M90.8631 35.4438L89.1268 34.1811L87.3906 35.4438L88.057 33.3919L86.3208 32.1467H88.4779L89.1268 30.1123L89.7932 32.1467H91.9328L90.1966 33.3919L90.8631 35.4438Z" fill="#2FBA59"/>
<path fill-rule="evenodd" clip-rule="evenodd" d="M12.5921 35.4438L10.8559 34.1811L9.13716 35.4438L9.8036 33.3919L8.06738 32.1467H10.207L10.8559 30.1123L11.5223 32.1467H13.6619L11.9256 33.3919L12.5921 35.4438Z" fill="#2FBA59"/>
<path d="M63.2941 53.8761V58.015C63.4169 58.015 63.5221 58.0325 63.6098 58.0325C63.9956 58.0325 64.2586 57.9448 64.4165 57.7519C64.5568 57.559 64.6445 57.1732 64.6445 56.5593V55.2265C64.6445 54.6653 64.5568 54.3145 64.3814 54.1391C64.2061 53.9462 63.8378 53.8761 63.2941 53.8761ZM59.0675 51.1051H63.3117C64.4691 51.1051 65.346 51.1928 65.9598 51.3682C66.5736 51.5436 67.0472 51.8066 67.3453 52.1398C67.661 52.4906 67.8714 52.894 67.9766 53.385C68.0819 53.8761 68.1345 54.6127 68.1345 55.6298V57.0504C68.1345 58.0851 68.0293 58.8392 67.8188 59.3128C67.6084 59.7863 67.205 60.1546 66.6438 60.4001C66.0651 60.6456 65.3284 60.7859 64.4165 60.7859H63.2765V67.3275H59.05V51.1051H59.0675ZM57.3663 51.1051V67.3275H53.6659L53.6484 56.3664L52.1752 67.3275H49.5972L48.0538 56.6119L48.0363 67.3275H44.3358V51.1051H49.79C49.9479 52.0872 50.1057 53.2447 50.2987 54.56L50.8949 58.6814L51.8595 51.1051H57.3663ZM42.7223 57.0855H38.4958V55.6123C38.4958 54.6828 38.4607 54.1041 38.373 53.8761C38.3029 53.6481 38.11 53.5253 37.8118 53.5253C37.5663 53.5253 37.3909 53.6305 37.2856 53.8235C37.198 54.0164 37.1454 54.5425 37.1454 55.3668V63.1535C37.1454 63.8726 37.198 64.3636 37.2856 64.5916C37.3733 64.8196 37.5663 64.9424 37.8294 64.9424C38.1275 64.9424 38.3379 64.8196 38.4431 64.5565C38.5484 64.2935 38.601 63.7849 38.601 63.0308V61.1016H37.7767V58.6463H42.7048V67.345H40.0391L39.6532 66.1875C39.3726 66.6961 39.0044 67.0644 38.5659 67.3275C38.1275 67.573 37.6189 67.7133 37.0226 67.7133C36.3211 67.7133 35.6546 67.5379 35.0408 67.2047C34.427 66.854 33.9535 66.4331 33.6378 65.9245C33.3221 65.4159 33.1117 64.8898 33.0416 64.3285C32.9714 63.7673 32.9188 62.9255 32.9188 61.8207V56.9978C32.9188 55.4545 33.0065 54.332 33.1643 53.6305C33.3397 52.929 33.8132 52.2801 34.6024 51.7014C35.3916 51.1226 36.4088 50.8245 37.6715 50.8245C38.8991 50.8245 39.9338 51.07 40.7406 51.5786C41.5473 52.0872 42.091 52.6835 42.3365 53.385C42.582 54.0865 42.7048 55.1037 42.7048 56.4366V57.0855H42.7223ZM65.0479 36.8119C65.0479 36.0578 65.0128 35.5842 64.9251 35.3738C64.8374 35.1633 64.6796 35.0581 64.4165 35.0581C64.206 35.0581 64.0307 35.1458 63.9254 35.3212C63.8202 35.4965 63.7501 35.9876 63.7501 36.8294V44.4057C63.7501 45.3527 63.7852 45.9315 63.8553 46.1419C63.9255 46.3699 64.1008 46.4752 64.3814 46.4752C64.662 46.4752 64.8374 46.3524 64.9251 46.0893C65.0128 45.8438 65.0479 45.23 65.0479 44.2829V36.8119ZM69.2745 42.1433C69.2745 43.7744 69.2394 44.9318 69.1517 45.5983C69.0815 46.2822 68.836 46.8961 68.4326 47.4573C68.0293 48.0185 67.4856 48.4569 66.8016 48.7551C66.1177 49.0532 65.3109 49.211 64.399 49.211C63.5221 49.211 62.7504 49.0707 62.0664 48.7901C61.3825 48.5095 60.8213 48.0886 60.4004 47.5099C59.9795 46.9487 59.7339 46.3173 59.6462 45.6509C59.5761 44.9845 59.5235 43.8094 59.5235 42.1433V39.3724C59.5235 37.7414 59.5585 36.5839 59.6462 35.9175C59.7164 35.2335 59.9619 34.6197 60.3653 34.0585C60.7686 33.4973 61.3124 33.0588 61.9963 32.7607C62.6803 32.4625 63.487 32.3047 64.399 32.3047C65.2759 32.3047 66.0475 32.445 66.7315 32.7256C67.4154 33.0062 67.9767 33.4271 68.3976 34.0058C68.8185 34.5671 69.064 35.1984 69.1517 35.8648C69.2218 36.5313 69.2745 37.7063 69.2745 39.3724V42.1433ZM57.9451 32.6379V48.8603H53.7185V42.0557H52.4909V48.8603H48.2643V32.6379H52.4909V38.4429H53.7185V32.6379H57.9451ZM47.44 32.6379L45.5634 48.8603H40.3021C39.8286 46.3699 39.4077 43.5288 39.0219 40.337C38.8465 41.7049 38.4607 44.546 37.8469 48.8603H32.6207L30.7266 32.6379H34.8304L35.2688 38.3026L35.6898 43.7743C35.8476 40.9332 36.2334 37.2152 36.8648 32.6204H41.2316C41.2842 33.0939 41.4421 34.8827 41.6876 37.9869L42.1611 44.1602C42.4067 40.2317 42.81 36.391 43.3362 32.6204H47.44V32.6379Z" fill="#FEFEFE"/>
</svg>
