<svg width="100" height="100" viewBox="0 0 100 100" fill="none" xmlns="http://www.w3.org/2000/svg">
<rect width="100" height="100" rx="50" fill="white"/>
<path fill-rule="evenodd" clip-rule="evenodd" d="M49.9993 15.5215C69.0277 15.5215 84.4609 30.9547 84.4609 49.9831C84.4609 69.0115 69.0277 84.4447 49.9993 84.4447C30.9709 84.4447 15.5377 69.0115 15.5377 49.9831C15.5202 30.9547 30.9534 15.5215 49.9993 15.5215Z" fill="#302290"/>
<path d="M75.6044 24.3777C69.0453 17.8186 59.9958 13.7673 49.9993 13.7673C40.0028 13.7673 30.9358 17.8186 24.3943 24.3777C17.8352 30.9368 13.784 39.9862 13.784 49.9827C13.784 59.9792 17.8352 69.0462 24.3943 75.5878C30.9534 82.1469 40.0028 86.1981 49.9993 86.1981C59.9958 86.1981 69.0628 82.1469 75.6044 75.5878C82.1635 69.0287 86.2147 59.9792 86.2147 49.9827C86.2147 39.9862 82.1459 30.9368 75.6044 24.3777ZM49.9993 12.8203C60.2589 12.8203 69.5538 16.9767 76.2708 23.7112C82.9877 30.4282 87.1617 39.7232 87.1617 49.9827C87.1617 60.2423 83.0052 69.5373 76.2708 76.2542C69.5538 82.9711 60.2589 87.1451 49.9993 87.1451C39.7397 87.1451 30.4448 82.9887 23.7278 76.2542C17.0109 69.5373 12.8369 60.2423 12.8369 49.9827C12.8369 39.7232 16.9933 30.4282 23.7278 23.7112C30.4448 16.9943 39.7222 12.8203 49.9993 12.8203Z" fill="#2FBA59"/>
<path d="M84.6545 15.328C75.7804 6.45388 63.5391 0.982112 50 0.982112C36.4609 0.982112 24.2196 6.47141 15.3455 15.328C6.47141 24.202 0.999649 36.4434 0.999649 49.9825C0.999649 63.5216 6.48895 75.7629 15.3455 84.637C24.2196 93.511 36.4609 98.9828 50 98.9828C63.5391 98.9828 75.7804 93.4935 84.6545 84.637C93.5286 75.7629 99.0003 63.5216 99.0003 49.9825C99.0003 36.4609 93.511 24.202 84.6545 15.328ZM50 0C63.8022 0 76.3065 5.59453 85.356 14.644C94.4055 23.6934 100 36.1803 100 50C100 63.8022 94.4055 76.3066 85.356 85.356C76.3065 94.4055 63.8197 100 50 100C36.1978 100 23.6934 94.4055 14.644 85.356C5.59453 76.3066 0 63.8197 0 50C0 36.1978 5.59453 23.6934 14.644 14.644C23.6934 5.59453 36.1803 0 50 0Z" fill="#302290"/>
<path d="M73.711 18.0816C74.5879 18.7831 75.4297 19.0812 76.2364 18.976C77.0432 18.8883 77.7622 18.4323 78.4111 17.6081C79.06 16.7838 79.3406 15.9771 79.2529 15.1528C79.1652 14.346 78.6742 13.5919 77.7973 12.8904L76.3943 11.7855L72.308 16.9592L73.711 18.0816ZM78.3059 12.2591C79.0249 12.8203 79.5335 13.4341 79.8317 14.1005C80.1298 14.767 80.235 15.4509 80.1123 16.1524C80.007 16.8539 79.6914 17.5379 79.1477 18.2219C78.6216 18.8883 78.0428 19.3618 77.3764 19.6249C76.7275 19.888 76.0435 19.9581 75.3245 19.8178C74.6054 19.6775 73.9039 19.3268 73.1849 18.7655L71.0453 17.0819L76.1488 10.6105L78.3059 12.2591ZM72.799 9.57579L68.8355 7.54142L67.5553 10.0493L70.5367 11.5926L70.1509 12.3292L67.1695 10.7859L65.819 13.4165L69.7826 15.4509L69.3967 16.1875L64.5914 13.7147L68.362 6.38393L73.1673 8.85675L72.799 9.57579ZM64.4862 5.05106L65.3806 5.3492L62.7324 13.1535L61.838 12.8553L64.4862 5.05106ZM56.4013 3.27975L61.7328 4.15664L61.5925 4.96337L57.1905 4.24433L56.7521 7.01529L60.0667 7.55895L59.9264 8.36569L56.6118 7.82202L55.9979 11.5576L55.0684 11.3997L56.4013 3.27975ZM52.7885 2.87639L53.7356 2.94654L53.0867 11.1542L52.1396 11.084L52.7885 2.87639ZM43.8443 3.10438L50 2.63086L50.0702 3.45513L47.4571 3.64805L48.0183 11.049L47.0712 11.1191L46.51 3.7182L43.8969 3.91111L43.8443 3.10438ZM40.4069 8.38323L43.4409 11.5225L42.3887 11.7505L39.4073 8.59368L40.4069 8.38323ZM38.7584 4.12156C39.3897 3.98126 39.9334 3.98126 40.3718 4.10403C40.8278 4.22679 41.1786 4.45478 41.4592 4.75292C41.7398 5.0686 41.9327 5.43689 42.0204 5.89287C42.0905 6.20855 42.1081 6.52423 42.0555 6.82237C42.0204 7.12051 41.9151 7.41865 41.7398 7.68172C41.5644 7.94478 41.3189 8.19031 41.0032 8.40076C40.6875 8.61122 40.2841 8.76906 39.8106 8.87428L37.899 9.29519L38.6181 12.5747L37.7061 12.7852L35.9348 4.73538L38.7584 4.12156ZM41.0909 6.10333C40.9857 5.61227 40.7577 5.26152 40.4069 5.05106C40.0562 4.82307 39.5651 4.788 38.9162 4.9283L37.0046 5.3492L37.7061 8.50599L39.6177 8.08509C40.0386 7.9974 40.3718 7.8571 40.5998 7.66418C40.8278 7.47127 40.9857 7.24328 41.0558 6.98021C41.161 6.69961 41.161 6.419 41.0909 6.10333ZM32.9709 6.76976L28.9197 8.64629L30.0947 11.2068L33.1463 9.80378L33.4971 10.5579L30.4455 11.9609L31.6907 14.6442L35.7419 12.7677L36.0926 13.5218L31.1821 15.7841L27.7272 8.31308L32.6377 6.05071L32.9709 6.76976ZM20.8874 18.0465C20.5016 17.5554 20.2386 17.0469 20.0807 16.5207C19.9229 15.9946 19.8878 15.4685 19.9404 14.9423C20.0106 14.4162 20.1684 13.9251 20.4315 13.4692C20.6945 13.0132 21.0453 12.5923 21.5013 12.2415C22.1677 11.7154 22.8692 11.4172 23.6233 11.3296C24.3599 11.2419 25.0965 11.3822 25.798 11.7505L25.3771 12.452C24.9913 12.2591 24.623 12.1538 24.2196 12.1538C23.8338 12.1363 23.4479 12.2064 23.0797 12.3292C22.7114 12.4695 22.3606 12.6624 22.0274 12.908C21.5714 13.2762 21.2207 13.6972 21.0277 14.2057C20.8173 14.7143 20.7647 15.2405 20.8699 15.8017C20.9576 16.3629 21.2207 16.9241 21.6591 17.4678C22.08 18.0114 22.5535 18.3973 23.0797 18.6252C23.6058 18.8532 24.1319 18.9234 24.6756 18.8532C25.2193 18.7831 25.7103 18.5551 26.1838 18.1868C26.5171 17.9237 26.7976 17.6256 27.0081 17.2748C27.2361 16.9416 27.3764 16.5558 27.4465 16.1349C27.5167 15.714 27.4992 15.2931 27.3764 14.8371L28.1481 14.5916C28.376 15.4334 28.3585 16.2226 28.113 16.9416C27.8499 17.6607 27.3764 18.292 26.6924 18.8357C26.2365 19.1865 25.7454 19.4495 25.2368 19.5898C24.7282 19.7301 24.2021 19.7652 23.6759 19.695C23.1498 19.6249 22.6412 19.4495 22.1677 19.1689C21.6942 18.9059 21.2733 18.52 20.8874 18.0465Z" fill="#302290"/>
<path d="M77.3939 86.7064C78.2708 86.0224 78.7619 85.2683 78.8671 84.4615C78.9723 83.6548 78.6917 82.8481 78.0604 82.0238C77.4115 81.1995 76.6924 80.7436 75.8857 80.6208C75.079 80.5156 74.2196 80.7962 73.3427 81.4977L71.9397 82.585L75.9909 87.7762L77.3939 86.7064ZM72.8341 80.8663C73.5532 80.3051 74.2722 79.9544 74.9913 79.8316C75.7103 79.6913 76.3943 79.7614 77.0432 80.042C77.6921 80.3226 78.2884 80.7962 78.8145 81.4626C79.3406 82.129 79.6388 82.813 79.744 83.5145C79.8492 84.216 79.744 84.8825 79.4283 85.5489C79.1126 86.2153 78.604 86.8116 77.885 87.3728L75.7454 89.0389L70.677 82.5499L72.8341 80.8663ZM69.7299 84.0056L65.7664 86.0575L67.0642 88.5478L70.0456 87.0045L70.4315 87.7411L67.45 89.2844L68.818 91.9151L72.7815 89.8632L73.1673 90.5997L68.3795 93.0901L64.5914 85.7769L69.3792 83.2865L69.7299 84.0056ZM61.6801 86.5836L62.5746 86.2855L65.1877 94.1073L64.2933 94.4054L61.6801 86.5836ZM54.9106 88.1971L60.2245 87.25L60.3648 88.0568L55.9804 88.8284L56.4714 91.5994L59.7685 91.0207L59.9088 91.8274L56.6117 92.4061L57.2782 96.1241L56.3487 96.282L54.9106 88.1971ZM51.5083 88.4251L52.4553 88.3549L53.0867 96.5626L52.1396 96.6327L51.5083 88.4251ZM43.7917 88.0568L49.9474 88.5303L49.8773 89.3546L47.2641 89.1617L46.7029 96.5626L45.7559 96.4924L46.3171 89.0915L43.704 88.8986L43.7917 88.0568ZM39.6703 91.6695L40.8629 95.8611L39.8282 95.5629L38.6882 91.3889L39.6703 91.6695ZM40.2315 87.1273C40.8453 87.3027 41.3364 87.5482 41.6696 87.8814C42.0028 88.1971 42.2308 88.5654 42.3185 88.9687C42.4237 89.3721 42.4062 89.793 42.2834 90.2315C42.1958 90.5471 42.0555 90.8277 41.8801 91.0733C41.7047 91.3188 41.4767 91.5292 41.1786 91.6871C40.898 91.8449 40.5647 91.9326 40.1965 91.9677C39.8282 92.0028 39.3897 91.9501 38.9162 91.8098L37.0221 91.2837L36.1102 94.5282L35.1982 94.2651L37.443 86.3381L40.2315 87.1273ZM41.3715 89.9859C41.5118 89.5124 41.4767 89.0915 41.2663 88.7407C41.0733 88.39 40.6524 88.1094 40.0211 87.934L38.1445 87.4079L37.2677 90.5121L39.1617 91.0382C39.5826 91.161 39.9334 91.1785 40.2315 91.1259C40.5297 91.0733 40.7752 90.9505 40.9681 90.7401C41.1435 90.5471 41.2838 90.3016 41.3715 89.9859ZM35.3911 86.4959L31.3224 84.6545L30.1649 87.215L33.2164 88.6004L32.8832 89.3546L29.8317 87.9691L28.604 90.6524L32.6728 92.4938L32.3396 93.2479L27.429 91.0207L30.8313 83.5145L35.7419 85.7418L35.3911 86.4959ZM21.133 81.4275C21.5188 80.9365 21.9397 80.5506 22.4308 80.2876C22.9043 80.007 23.4129 79.8316 23.939 79.779C24.4651 79.7088 24.9737 79.7614 25.4999 79.9017C26.0085 80.042 26.4995 80.2876 26.9555 80.6559C27.6219 81.182 28.0779 81.7958 28.341 82.4973C28.604 83.1988 28.6391 83.9354 28.4462 84.7071L27.6745 84.4615C27.7622 84.0406 27.7798 83.6548 27.6921 83.269C27.6044 82.8832 27.4641 82.5324 27.2361 82.1992C27.0256 81.866 26.745 81.5678 26.4118 81.3223C25.9558 80.954 25.4472 80.7436 24.9211 80.6559C24.395 80.5682 23.8513 80.6559 23.3427 80.8839C22.8166 81.1118 22.3431 81.4977 21.9046 82.0413C21.4837 82.585 21.2207 83.1462 21.1154 83.7074C21.0102 84.2686 21.0804 84.7948 21.2733 85.3034C21.4837 85.812 21.8169 86.2329 22.2729 86.6012C22.6061 86.8642 22.9569 87.0571 23.3427 87.1974C23.7285 87.3377 24.1319 87.3728 24.5528 87.3553C24.9737 87.3202 25.3771 87.1974 25.798 86.987L26.2189 87.6885C25.4472 88.1094 24.6931 88.2848 23.9215 88.2146C23.1498 88.1445 22.4308 87.8288 21.7468 87.2851C21.2908 86.9344 20.9401 86.5135 20.677 86.0575C20.4139 85.6015 20.2561 85.0929 20.2035 84.5668C20.1509 84.0406 20.1859 83.5145 20.3438 82.9884C20.5016 82.4096 20.7647 81.901 21.133 81.4275Z" fill="#302290"/>
<path fill-rule="evenodd" clip-rule="evenodd" d="M96.0887 54.3668L93.2827 52.3325L90.4766 54.3668L91.564 51.0697L88.7579 49.0354L92.2129 49.0529L93.2827 45.7383L94.3525 49.0529L97.8249 49.0354L95.0014 51.0697L96.0887 54.3668Z" fill="#2FBA59"/>
<path fill-rule="evenodd" clip-rule="evenodd" d="M9.50589 54.3668L6.69986 52.3325L3.89384 54.3668L4.98116 51.0697L2.15759 49.0354L5.63006 49.0529L6.69986 45.7383L7.76967 49.0529L11.2421 49.0354L8.41855 51.0697L9.50589 54.3668Z" fill="#2FBA59"/>
<path fill-rule="evenodd" clip-rule="evenodd" d="M90.8631 70.5712L89.1268 69.3085L87.3906 70.5712L88.057 68.5368L86.3208 67.2741H88.4604L89.1268 65.2397L89.7933 67.2741H91.9329L90.1966 68.5368L90.8631 70.5712Z" fill="#2FBA59"/>
<path fill-rule="evenodd" clip-rule="evenodd" d="M12.5916 70.5712L10.8553 69.3085L9.11912 70.5712L9.78555 68.5368L8.04932 67.2741H10.2065L10.8553 65.2397L11.5218 67.2741H13.6614L11.9251 68.5368L12.5916 70.5712Z" fill="#2FBA59"/>
<path fill-rule="evenodd" clip-rule="evenodd" d="M90.8631 35.4438L89.1268 34.1811L87.3906 35.4438L88.057 33.3919L86.3208 32.1467H88.4604L89.1268 30.1123L89.7933 32.1467H91.9329L90.1966 33.3919L90.8631 35.4438Z" fill="#2FBA59"/>
<path fill-rule="evenodd" clip-rule="evenodd" d="M12.5916 35.4438L10.8553 34.1811L9.11912 35.4438L9.78555 33.3919L8.04932 32.1467H10.2065L10.8553 30.1123L11.5218 32.1467H13.6614L11.9251 33.3919L12.5916 35.4438Z" fill="#2FBA59"/>
<path d="M62.7506 53.7001V57.839C62.8734 57.839 62.9786 57.8565 63.0663 57.8565C63.4521 57.8565 63.7152 57.7688 63.873 57.5759C64.0133 57.383 64.101 56.9972 64.101 56.3833V55.0505C64.101 54.4893 64.0133 54.1385 63.838 53.9631C63.6451 53.7878 63.2943 53.7001 62.7506 53.7001ZM58.524 50.9291H62.7682C63.9257 50.9291 64.8026 51.0168 65.4164 51.1922C66.0302 51.3676 66.5037 51.6306 66.8018 51.9638C67.1175 52.3146 67.328 52.718 67.4332 53.209C67.5384 53.7001 67.591 54.4367 67.591 55.4538V56.8744C67.591 57.9091 67.4858 58.6632 67.2754 59.1368C67.0649 59.6103 66.6615 59.9786 66.1003 60.2241C65.5216 60.4696 64.785 60.6099 63.8555 60.6099H62.7156V67.1515H58.489V50.9291H58.524ZM56.8229 50.9291V67.1515H53.1224L53.1049 56.1904L51.6317 67.1515H49.0537L47.5104 56.436L47.4928 67.1515H43.7924V50.9291H49.2466C49.4044 51.9112 49.5623 53.0687 49.7552 54.384L50.3515 58.5054L51.316 50.9291H56.8229ZM42.1614 56.927H37.9348V55.4538C37.9348 54.5244 37.8997 53.9456 37.812 53.7176C37.7419 53.4896 37.549 53.3669 37.2508 53.3669C37.0053 53.3669 36.8299 53.4721 36.7247 53.665C36.637 53.8579 36.5844 54.384 36.5844 55.2083V62.9951C36.5844 63.7141 36.637 64.2052 36.7247 64.4332C36.8124 64.6611 37.0053 64.7839 37.2684 64.7839C37.5665 64.7839 37.7769 64.6611 37.8822 64.3981C37.9874 64.135 38.04 63.6264 38.04 62.8723V60.9431H37.2157V58.4879H42.1438V67.1866H39.4781L39.0923 66.0291C38.8117 66.5377 38.4434 66.906 38.0049 67.169C37.5665 67.4146 37.0579 67.5549 36.4616 67.5549C35.7601 67.5549 35.0937 67.3795 34.4798 67.0463C33.866 66.6955 33.3925 66.2746 33.0768 65.766C32.7612 65.2574 32.5507 64.7313 32.4806 64.1701C32.4104 63.6089 32.3578 62.7671 32.3578 61.6622V56.8393C32.3578 55.296 32.4455 54.1736 32.6033 53.4721C32.7787 52.7706 33.2522 52.1217 34.0414 51.5429C34.8306 50.9642 35.8478 50.6661 37.1105 50.6661C38.3381 50.6661 39.3729 50.9116 40.1796 51.4202C40.9863 51.9288 41.53 52.5251 41.7755 53.2266C42.0211 53.9281 42.1438 54.9453 42.1438 56.2781V56.927H42.1614ZM58.8923 32.4619V43.3178C58.8923 44.5454 58.8573 45.4223 58.7696 45.9133C58.6819 46.4044 58.4539 46.9305 58.0505 47.4567C57.6647 47.9828 57.1386 48.3862 56.4897 48.6492C55.8408 48.9123 55.0867 49.0526 54.2098 49.0526C53.2452 49.0526 52.3858 48.8947 51.6493 48.5791C50.9127 48.2634 50.3515 47.8425 49.9832 47.3339C49.6149 46.8253 49.4044 46.2816 49.3343 45.7029C49.2641 45.1241 49.2291 43.9316 49.2291 42.0901V32.4795H53.4556V44.6506C53.4556 45.3521 53.4907 45.8081 53.5609 46.001C53.631 46.1939 53.7889 46.2992 54.0169 46.2992C54.2799 46.2992 54.4553 46.1939 54.5254 45.9659C54.5956 45.738 54.6307 45.2294 54.6307 44.4226V32.4619H58.8923ZM40.7934 32.4619H47.826V35.7064H45.02V38.8106H47.6507V41.8797H45.02V45.4574H48.1242V48.7018H40.7934V32.4619Z" fill="#FEFEFE"/>
</svg>
