<svg width="100" height="100" viewBox="0 0 100 100" fill="none" xmlns="http://www.w3.org/2000/svg">
<rect width="100" height="100" rx="50" fill="white"/>
<path fill-rule="evenodd" clip-rule="evenodd" d="M49.9993 15.5215C69.0277 15.5215 84.4609 30.9547 84.4609 49.9831C84.4609 69.0115 69.0277 84.4447 49.9993 84.4447C30.9709 84.4447 15.5377 69.0115 15.5377 49.9831C15.5377 30.9547 30.9534 15.5215 49.9993 15.5215Z" fill="#302290"/>
<path d="M75.6044 24.3777C69.0453 17.8186 59.9958 13.7673 49.9993 13.7673C40.0028 13.7673 30.9358 17.8186 24.3943 24.3777C17.8352 30.9368 13.784 39.9862 13.784 49.9827C13.784 69.9757 30.0063 86.1981 49.9993 86.1981C59.9958 86.1981 69.0628 82.1469 75.6044 75.5878C82.1635 69.0287 86.2147 59.9792 86.2147 49.9827C86.2147 39.9862 82.1635 30.9368 75.6044 24.3777ZM49.9993 12.8203C60.2589 12.8203 69.5539 16.9767 76.2708 23.7112C82.9878 30.4282 87.1617 39.7232 87.1617 49.9827C87.1617 60.2423 83.0053 69.5373 76.2708 76.2542C69.5539 82.9711 60.2589 87.1451 49.9993 87.1451C29.4802 87.1451 12.8369 70.5018 12.8369 49.9827C12.8369 39.7232 16.9934 30.4282 23.7278 23.7112C30.4448 16.9943 39.7222 12.8203 49.9993 12.8203Z" fill="#2FBA59"/>
<path d="M84.6545 15.328C75.7804 6.45388 63.5391 0.982112 50 0.982112C36.4609 0.982112 24.2196 6.47141 15.3455 15.328C6.47142 24.202 0.999636 36.4434 0.999636 49.9825C0.999636 63.5216 6.48895 75.7629 15.3455 84.637C24.2196 93.511 36.4609 98.9828 50 98.9828C63.5391 98.9828 75.7804 93.4935 84.6545 84.637C93.5286 75.7629 99.0004 63.5216 99.0004 49.9825C99.0004 36.4609 93.511 24.202 84.6545 15.328ZM50 0C63.8022 0 76.3066 5.59453 85.356 14.644C94.4055 23.6934 100 36.1803 100 50C100 63.8022 94.4055 76.3066 85.356 85.356C76.3066 94.4055 63.8197 100 50 100C36.1978 100 23.6934 94.4055 14.644 85.356C5.59451 76.3066 0 63.8197 0 50C0 36.1978 5.59451 23.6934 14.644 14.644C23.6934 5.59453 36.1978 0 50 0Z" fill="#302290"/>
<path d="M78.7794 21.8169C79.5686 22.6237 80.3578 23.027 81.1645 23.0446C81.9713 23.0621 82.7429 22.6938 83.497 21.9748C84.2512 21.2557 84.637 20.4841 84.6545 19.6598C84.672 18.8355 84.2862 18.0288 83.5146 17.2221L82.2694 15.9418L77.5342 20.5367L78.7794 21.8169ZM84.1108 16.6433C84.7422 17.2922 85.1631 17.9762 85.3736 18.6602C85.584 19.3617 85.584 20.0456 85.3911 20.7296C85.1982 21.4136 84.7773 22.0449 84.1635 22.6412C83.5496 23.2375 82.9183 23.6233 82.2343 23.7987C81.5503 23.9741 80.8664 23.939 80.1824 23.711C79.4984 23.483 78.832 23.027 78.2006 22.3782L76.3066 20.4315L82.2168 14.6966L84.1108 16.6433ZM79.0951 13.2235L75.4121 10.698L73.8162 13.013L76.5872 14.9071L76.1136 15.5911L73.3427 13.697L71.6766 16.1347L75.3595 18.6602L74.886 19.3441L70.4314 16.2926L75.0965 9.50548L79.551 12.557L79.0951 13.2235ZM68.5724 11.2592L69.046 15.5911L68.0814 15.1351L67.6605 10.8208L68.5724 11.2592ZM69.8878 6.87482C70.4665 7.15542 70.9049 7.4711 71.1856 7.85693C71.4662 8.22522 71.624 8.62859 71.6415 9.04949C71.6766 9.4704 71.5889 9.87377 71.396 10.2947C71.2557 10.5928 71.0803 10.8383 70.8523 11.0488C70.6243 11.2592 70.3788 11.4346 70.0631 11.5398C69.765 11.6451 69.4142 11.6802 69.046 11.6626C68.6777 11.6275 68.2568 11.5048 67.8183 11.2943L66.047 10.4525L64.6089 13.4865L63.7496 13.0832L67.2747 5.64718L69.8878 6.87482ZM70.5367 9.87377C70.7471 9.43532 70.7822 9.01442 70.6419 8.62859C70.5016 8.24276 70.1333 7.90954 69.537 7.62894L67.7657 6.78713L66.3802 9.69839L68.1515 10.5402C68.5374 10.7331 68.8881 10.8208 69.1863 10.8033C69.4844 10.8033 69.7475 10.7156 69.9754 10.5577C70.221 10.3999 70.3964 10.1719 70.5367 9.87377ZM63.6969 5.34904L59.3476 4.34939L58.7162 7.08527L61.9783 7.83939L61.7853 8.64613L58.5233 7.89201L57.8569 10.7682L62.2063 11.7678L62.0133 12.5746L56.752 11.3645L58.611 3.3322L63.8723 4.5423L63.6969 5.34904ZM49.2283 2.771L55.4016 2.84115L55.3841 3.66542L52.771 3.63034L52.6833 11.0488L51.7362 11.0313L51.8239 3.61281L49.1932 3.57773L49.2283 2.771ZM43.0024 9.66331C43.0726 9.87377 43.2129 10.0667 43.3883 10.2421C43.5636 10.4174 43.8092 10.5577 44.0898 10.663C44.3704 10.7507 44.7387 10.7682 45.142 10.7156C45.7383 10.6279 46.1592 10.4174 46.4048 10.1018C46.6503 9.78608 46.738 9.43532 46.6854 9.04949C46.6328 8.75135 46.5275 8.50583 46.3346 8.34799C46.1417 8.17261 45.8962 8.04985 45.598 7.96216C45.2999 7.87447 44.9667 7.80432 44.5984 7.76924C44.2827 7.73417 43.9495 7.68155 43.6338 7.62894C43.3181 7.57633 43.02 7.48864 42.7394 7.36587C42.4588 7.24311 42.2308 7.06773 42.0554 6.83974C41.8625 6.61175 41.7397 6.29607 41.6871 5.91025C41.617 5.45426 41.6696 5.03336 41.8274 4.66507C42.0028 4.29678 42.2659 3.9811 42.6342 3.73557C43.0025 3.49004 43.4409 3.3322 43.9846 3.24451C44.4406 3.17436 44.8439 3.17436 45.2122 3.26205C45.5805 3.34974 45.8786 3.49004 46.1592 3.68296C46.4223 3.89341 46.6328 4.13894 46.7906 4.41954L46.0189 4.85798C45.9312 4.68261 45.8085 4.52477 45.6331 4.38446C45.4577 4.24416 45.2297 4.13894 44.9667 4.06879C44.7036 3.99864 44.4055 3.9811 44.0898 4.03371C43.7741 4.08632 43.511 4.17401 43.2655 4.33185C43.0375 4.47215 42.8621 4.66507 42.7394 4.89306C42.6166 5.12105 42.5815 5.36658 42.6342 5.66472C42.6868 5.9804 42.8095 6.20839 43.0024 6.36623C43.2129 6.52407 43.4584 6.62929 43.7741 6.69944C44.0898 6.76959 44.423 6.82221 44.7913 6.87482C45.1245 6.92743 45.4577 6.99758 45.7734 7.06773C46.0891 7.13789 46.3697 7.24311 46.6328 7.38341C46.8958 7.52371 47.1063 7.69909 47.2992 7.94462C47.4746 8.17261 47.5973 8.48829 47.6499 8.85658C47.7201 9.25995 47.6675 9.66331 47.5272 10.0491C47.3869 10.435 47.1414 10.7507 46.7731 11.0313C46.4223 11.2943 45.9312 11.4872 45.3174 11.5749C44.8088 11.6451 44.3353 11.6451 43.9319 11.5398C43.5286 11.4346 43.1778 11.2768 42.8797 11.0313C42.5991 10.8033 42.3711 10.5051 42.2308 10.1719L43.0024 9.66331ZM37.7236 4.57738L38.6356 4.31431L40.8979 12.2414L39.986 12.5044L37.7236 4.57738ZM35.0228 7.94462C34.4967 7.54125 33.9705 7.31326 33.3918 7.26065C32.8306 7.20804 32.2694 7.31326 31.7257 7.57633C31.182 7.82186 30.7611 8.17261 30.4279 8.62859C30.1122 9.08457 29.9369 9.59316 29.8842 10.1544C29.8492 10.7331 29.9719 11.3294 30.2701 11.9432C30.5507 12.557 30.9365 13.0481 31.3925 13.3813C31.8485 13.7145 32.3571 13.925 32.9007 13.9601C33.4444 14.0127 33.9881 13.9074 34.5317 13.6619C34.9351 13.469 35.2859 13.2235 35.5665 12.9253C35.8471 12.6272 36.0575 12.294 36.1978 11.9081C36.3381 11.5223 36.3907 11.1189 36.3557 10.698L35.9523 9.83869L33.3918 11.0313L33.0761 10.3297L36.5135 8.75135L37.2501 10.3473C37.3027 10.9085 37.2501 11.4346 37.0922 11.9608C36.9344 12.4869 36.6538 12.9604 36.2855 13.3988C35.9172 13.8373 35.4437 14.1705 34.9 14.4336C34.3739 14.6791 33.8478 14.8194 33.3041 14.8369C32.7604 14.8545 32.2518 14.7843 31.7608 14.5914C31.2697 14.416 30.8137 14.1354 30.4104 13.7496C30.007 13.3638 29.6738 12.9078 29.4107 12.329C29.1476 11.7678 29.0073 11.2066 28.9723 10.663C28.9547 10.1018 29.0249 9.59316 29.2003 9.08457C29.3756 8.59351 29.6563 8.13753 30.0245 7.7517C30.3928 7.36588 30.8313 7.03266 31.3574 6.78713C31.8485 6.55914 32.3395 6.41884 32.8481 6.38376C33.3567 6.34869 33.8478 6.4013 34.3213 6.5416C34.7948 6.6819 35.2332 6.92743 35.6191 7.27819L35.0228 7.94462ZM25.9558 10.698L22.2554 13.2059L23.8337 15.5384L26.6047 13.6619L27.0607 14.3459L24.2897 16.2224L25.9383 18.6602L29.6387 16.1523L30.0947 16.8362L25.6226 19.8703L21.0102 13.0481L25.4823 10.0141L25.9558 10.698ZM20.1508 20.0632L24.43 20.8874L23.711 21.6766L19.4668 20.8173L20.1508 20.0632ZM16.3451 17.5202C16.7836 17.0467 17.222 16.731 17.6605 16.5732C18.0989 16.4153 18.5198 16.3803 18.9232 16.4855C19.3265 16.5732 19.6948 16.7836 20.0456 17.0818C20.2911 17.2922 20.4665 17.5377 20.6243 17.8183C20.7646 18.099 20.8523 18.3971 20.8523 18.7128C20.8699 19.0285 20.7997 19.3617 20.6594 19.7124C20.5191 20.0632 20.2911 20.4139 19.9579 20.7822L18.625 22.2379L21.1154 24.5002L20.484 25.2017L14.3984 19.6423L16.3451 17.5202ZM19.3967 17.7833C19.0284 17.4501 18.6426 17.2922 18.2392 17.3098C17.8358 17.3273 17.3974 17.5728 16.959 18.0639L15.6436 19.502L18.0288 21.6766L19.3616 20.221C19.6598 19.9053 19.8351 19.5897 19.9228 19.3091C20.0105 19.0109 20.0105 18.7478 19.9053 18.4848C19.8001 18.2393 19.6422 18.0113 19.3967 17.7833Z" fill="#302290"/>
<path d="M82.7961 82.6202C83.5678 81.8134 83.9536 80.9892 83.9185 80.1824C83.901 79.3757 83.5152 78.604 82.7611 77.9025C82.007 77.1835 81.2177 76.8327 80.3935 76.8502C79.5692 76.8678 78.78 77.2712 78.0083 78.0954L76.7807 79.3757L81.551 83.9179L82.7961 82.6202ZM77.4296 77.5167C78.061 76.8503 78.7098 76.4118 79.3938 76.1663C80.0778 75.9208 80.7793 75.8857 81.4633 76.0611C82.1472 76.2364 82.8137 76.6223 83.4275 77.201C84.0413 77.7797 84.4447 78.4111 84.6551 79.0951C84.8656 79.7615 84.848 80.463 84.6551 81.147C84.4447 81.8485 84.0238 82.5149 83.41 83.1814L81.5334 85.1456L75.5706 79.4634L77.4296 77.5167ZM74.8165 80.9716L71.1511 83.5146L72.7646 85.8296L75.518 83.9179L75.9915 84.6019L73.2381 86.5135L74.9217 88.9337L78.5871 86.3908L79.0606 87.0747L74.6236 90.1614L69.9235 83.3918L74.3605 80.3052L74.8165 80.9716ZM68.573 89.074L72.2034 91.5118L71.2213 91.9502L67.6611 89.4949L68.573 89.074ZM66.0827 85.2508C66.6614 84.9877 67.1876 84.865 67.6611 84.9001C68.1346 84.9351 68.5204 85.0754 68.8712 85.321C69.2044 85.5665 69.4675 85.8997 69.6604 86.3206C69.8007 86.6188 69.8708 86.9169 69.8884 87.215C69.9059 87.5307 69.8708 87.8289 69.7481 88.127C69.6428 88.4251 69.4499 88.7057 69.1869 88.9863C68.9238 89.2494 68.5555 89.4949 68.1171 89.6878L66.3282 90.5121L67.7312 93.5812L66.8719 93.9671L63.452 86.4785L66.0827 85.2508ZM68.7835 86.6889C68.5731 86.2329 68.2749 85.9348 67.9066 85.7945C67.5208 85.6542 67.0297 85.7243 66.4334 85.9874L64.6621 86.7941L65.995 89.7229L67.7839 88.8987C68.1697 88.7233 68.4678 88.5128 68.6607 88.2848C68.8537 88.0568 68.9589 87.7938 68.9764 87.5132C68.9764 87.2676 68.9238 86.987 68.7835 86.6889ZM62.1893 87.5833L57.84 88.583L58.4713 91.3189L61.7333 90.5647L61.9263 91.3715L58.6642 92.1256L59.3307 95.0018L63.68 94.0021L63.873 94.8089L58.6116 96.019L56.7526 87.9867L62.014 86.7766L62.1893 87.5833ZM49.4745 88.4602L55.6478 88.3199L55.6653 89.1442L53.0522 89.1968L53.21 96.6152L52.263 96.6328L52.1051 89.2143L49.4745 89.2669V88.4602ZM42.9329 93.8794C42.9505 94.0898 43.0206 94.3178 43.1434 94.5458C43.2661 94.7738 43.4591 94.9667 43.7046 95.1421C43.9501 95.3175 44.2833 95.4227 44.7042 95.4753C45.3005 95.563 45.7565 95.4753 46.0897 95.2298C46.4229 94.9842 46.5983 94.6686 46.6509 94.3003C46.686 94.0021 46.6334 93.7391 46.5106 93.5286C46.3703 93.3182 46.1774 93.1252 45.9143 92.9499C45.6513 92.792 45.3531 92.6342 45.0199 92.4763C44.7218 92.3536 44.4236 92.2133 44.1255 92.073C43.8273 91.9327 43.5643 91.7573 43.3363 91.5644C43.1083 91.3715 42.9329 91.1435 42.8277 90.8629C42.7225 90.5823 42.6874 90.2491 42.74 89.8808C42.7926 89.4248 42.968 89.039 43.2311 88.7233C43.4941 88.4076 43.8273 88.1971 44.2658 88.0568C44.6867 87.9165 45.1602 87.8815 45.6863 87.9516C46.1423 88.0042 46.5457 88.127 46.8614 88.3024C47.1946 88.4777 47.4401 88.7057 47.6506 88.9688C47.8435 89.2319 47.9838 89.53 48.0539 89.8632L47.177 90.0737C47.142 89.8808 47.0718 89.7054 46.9315 89.5125C46.7912 89.3196 46.6158 89.1617 46.3879 89.0214C46.1599 88.8811 45.8793 88.7934 45.5636 88.7408C45.2479 88.7057 44.9673 88.7233 44.7042 88.7934C44.4412 88.8636 44.2132 89.0039 44.0378 89.1793C43.8624 89.3546 43.7572 89.6002 43.7221 89.8808C43.687 90.1964 43.7396 90.442 43.8799 90.6524C44.0378 90.8629 44.2483 91.0383 44.5289 91.1961C44.8095 91.3539 45.1076 91.4942 45.4584 91.6521C45.7565 91.7924 46.0546 91.9502 46.3352 92.1081C46.6158 92.2659 46.8614 92.4413 47.0894 92.6517C47.2998 92.8622 47.4577 93.0902 47.5629 93.3708C47.6681 93.6514 47.7032 93.9671 47.6506 94.3353C47.598 94.7387 47.4401 95.1245 47.2121 95.4402C46.9666 95.7734 46.6334 96.019 46.2125 96.1768C45.7916 96.3346 45.2654 96.3873 44.6516 96.2996C44.143 96.2294 43.7046 96.0891 43.3363 95.8787C42.968 95.6682 42.6699 95.4051 42.4594 95.107C42.2489 94.8089 42.1086 94.4756 42.0736 94.1074L42.9329 93.8794ZM40.2847 87.0397L41.1967 87.2852L38.9694 95.2122L38.0574 94.9667L40.2847 87.0397ZM36.7246 88.6531C36.6895 87.9867 36.5141 87.443 36.1809 86.9695C35.8477 86.5135 35.4092 86.1628 34.848 85.8997C34.3044 85.6542 33.7607 85.549 33.217 85.6016C32.6734 85.6542 32.1648 85.8471 31.7088 86.1978C31.2528 86.5486 30.8845 87.0221 30.5864 87.6535C30.3058 88.2673 30.183 88.8636 30.2181 89.4423C30.2532 90.0211 30.4461 90.5297 30.7617 90.9681C31.0774 91.4241 31.5159 91.7573 32.0595 92.0028C32.4629 92.1957 32.8838 92.2834 33.2872 92.3185C33.7081 92.336 34.0939 92.2834 34.4622 92.1256C34.8305 91.9853 35.1813 91.7573 35.4794 91.4592L35.8652 90.5998L33.2872 89.4248L33.6028 88.7233L37.0403 90.2841L36.3037 91.8976C35.9178 92.301 35.4794 92.6166 34.9708 92.8271C34.4622 93.0551 33.9361 93.1603 33.3573 93.1603C32.7961 93.1603 32.2174 93.0376 31.6737 92.7745C31.1476 92.529 30.6916 92.2133 30.3233 91.8275C29.955 91.4416 29.6744 90.9856 29.499 90.4946C29.3061 90.0035 29.236 89.4774 29.2535 88.9162C29.271 88.355 29.4114 87.8113 29.6744 87.2326C29.9375 86.6714 30.2532 86.1978 30.6565 85.812C31.0599 85.4262 31.4983 85.1456 32.0069 84.9702C32.498 84.7773 33.0241 84.7071 33.5502 84.7247C34.0939 84.7422 34.62 84.8825 35.1462 85.1105C35.6372 85.3385 36.0581 85.6191 36.4264 85.9874C36.7947 86.3381 37.0578 86.7591 37.2683 87.215C37.4787 87.671 37.5664 88.1621 37.5488 88.6882L36.7246 88.6531ZM30.1479 83.5672L26.5176 80.9716L24.8866 83.269L27.6225 85.2157L27.149 85.8822L24.4131 83.9355L22.6944 86.3381L26.3247 88.9337L25.8512 89.6002L21.4492 86.4609L26.237 79.7615L30.639 82.9008L30.1479 83.5672ZM20.3093 80.5156L19.1869 84.7247L18.4503 83.953L19.6078 79.779L20.3093 80.5156ZM23.1153 76.9029C23.5537 77.3764 23.8344 77.8324 23.9747 78.2708C24.0974 78.7268 24.0974 79.1477 23.9747 79.5511C23.8519 79.9544 23.6239 80.3052 23.2907 80.6209C23.0627 80.8488 22.7996 81.0067 22.519 81.147C22.2384 81.2698 21.9403 81.3224 21.6071 81.3224C21.2914 81.3224 20.9582 81.2347 20.6074 81.0593C20.2742 80.9015 19.9235 80.6384 19.5902 80.2701L18.2398 78.8495L15.8021 81.1645L15.1532 80.4806L21.116 74.7983L23.1153 76.9029ZM22.6243 79.9369C22.975 79.6037 23.1679 79.2178 23.1855 78.8145C23.203 78.4111 22.975 77.9551 22.519 77.4816L21.1686 76.0611L18.8361 78.2883L20.1865 79.7089C20.4847 80.0246 20.7653 80.235 21.0634 80.3403C21.344 80.4455 21.6246 80.463 21.8877 80.3929C22.1507 80.3052 22.3963 80.1649 22.6243 79.9369Z" fill="#302290"/>
<path fill-rule="evenodd" clip-rule="evenodd" d="M96.0887 54.3668L93.2827 52.3325L90.4766 54.3668L91.564 51.0697L88.7579 49.0354L92.2129 49.0529L93.2827 45.7383L94.3524 49.0529L97.8249 49.0354L95.0014 51.0697L96.0887 54.3668Z" fill="#2FBA59"/>
<path fill-rule="evenodd" clip-rule="evenodd" d="M9.50607 54.3668L6.70003 52.3325L3.89401 54.3668L4.98134 51.0697L2.17529 49.0354L5.63022 49.0529L6.70003 45.7383L7.76983 49.0529L11.2423 49.0354L8.41871 51.0697L9.50607 54.3668Z" fill="#2FBA59"/>
<path fill-rule="evenodd" clip-rule="evenodd" d="M90.8631 70.5712L89.1268 69.3085L87.3906 70.5712L88.057 68.5368L86.3208 67.2741H88.4779L89.1268 65.2397L89.7933 67.2741H91.9329L90.1966 68.5368L90.8631 70.5712Z" fill="#2FBA59"/>
<path fill-rule="evenodd" clip-rule="evenodd" d="M12.5916 70.5712L10.8554 69.3085L9.11912 70.5712L9.78556 68.5368L8.04932 67.2741H10.2064L10.8554 65.2397L11.5218 67.2741H13.6614L11.9251 68.5368L12.5916 70.5712Z" fill="#2FBA59"/>
<path fill-rule="evenodd" clip-rule="evenodd" d="M90.8631 35.4438L89.1268 34.1811L87.3906 35.4438L88.057 33.3919L86.3208 32.1467H88.4779L89.1268 30.1123L89.7933 32.1467H91.9329L90.1966 33.3919L90.8631 35.4438Z" fill="#2FBA59"/>
<path fill-rule="evenodd" clip-rule="evenodd" d="M12.5916 35.4438L10.8554 34.1811L9.11912 35.4438L9.78556 33.3919L8.04932 32.1467H10.2064L10.8554 30.1123L11.5218 32.1467H13.6614L11.9251 33.3919L12.5916 35.4438Z" fill="#2FBA59"/>
<path d="M71.4664 52.3146C71.2734 50.4731 71.0455 48.1932 70.835 45.4749C70.4141 48.5966 70.151 50.8765 70.0458 52.3146H71.4664ZM73.6936 41.8621L76.1138 58.0845H71.7996L71.5716 55.1732H70.0458L69.8178 58.0845H65.4509L67.5905 41.8621H73.6936ZM66.2752 41.8621V45.1066H63.7848V58.102H59.5582V45.1066H57.0504V41.8621H66.2752ZM49.5267 41.8621H56.5593V45.1066H53.7533V48.2108H56.3839V51.2799H53.7533V54.8575H56.8574V58.102H49.5267V41.8621ZM47.8255 41.8621V58.0845H44.1251L44.1075 47.1234L42.6344 58.0845H40.0563L38.513 47.3689L38.4955 58.0845H34.795V41.8621H40.2492C40.4071 42.8442 40.5649 44.0017 40.7578 45.317L41.3541 49.4384L42.3187 41.8621H47.8255ZM33.1289 46.7902H29.218V45.5976C29.218 45.0364 29.1654 44.6857 29.0602 44.5278C28.9549 44.37 28.7971 44.2998 28.5691 44.2998C28.3236 44.2998 28.1307 44.4051 27.9904 44.6155C27.8676 44.826 27.7974 45.1241 27.7974 45.545C27.7974 46.0887 27.8676 46.4921 28.0254 46.7727C28.1657 47.0357 28.5691 47.3689 29.218 47.7723C31.0945 48.8947 32.2696 49.8067 32.7606 50.5257C33.2517 51.2448 33.4972 52.3847 33.4972 53.9807C33.4972 55.1381 33.3569 55.98 33.0938 56.5412C32.8308 57.0848 32.3046 57.5408 31.533 57.9091C30.7613 58.2774 29.8669 58.4703 28.8322 58.4703C27.7098 58.4703 26.7452 58.2599 25.9385 57.8214C25.1493 57.4005 24.6231 56.8568 24.3776 56.1904C24.1321 55.524 24.0093 54.5945 24.0093 53.3668V52.297H27.9202V54.2788C27.9202 54.8926 27.9728 55.2785 28.0781 55.4538C28.1833 55.6292 28.3762 55.7169 28.6568 55.7169C28.9374 55.7169 29.1479 55.6117 29.2882 55.3837C29.4285 55.1732 29.4986 54.84 29.4986 54.4016C29.4986 53.4545 29.3758 52.8232 29.1128 52.525C28.8497 52.2269 28.1833 51.7358 27.131 51.0519C26.0788 50.3504 25.3948 49.8593 25.044 49.5436C24.7108 49.2279 24.4302 48.7895 24.2022 48.2458C23.9742 47.6846 23.869 46.9831 23.869 46.1238C23.869 44.8786 24.0268 43.9666 24.3425 43.4054C24.6582 42.8267 25.1668 42.3882 25.8858 42.055C26.5874 41.7218 27.4467 41.564 28.4464 41.564C29.5337 41.564 30.4632 41.7393 31.2524 42.0901C32.024 42.4408 32.5327 42.8968 32.7782 43.423C33.0237 43.9666 33.1465 44.8786 33.1465 46.1588V46.7902H33.1289Z" fill="#FEFEFE"/>
</svg>
