<svg width="100" height="100" viewBox="0 0 100 100" fill="none" xmlns="http://www.w3.org/2000/svg">
<rect width="100" height="100" rx="50" fill="white"/>
<path d="M75.6044 24.3767C69.0453 17.8176 59.9958 13.7664 49.9993 13.7664C40.0028 13.7664 30.9359 17.8176 24.3943 24.3767C17.8352 30.9358 13.784 39.9852 13.784 49.9817C13.784 59.9782 17.8352 69.0452 24.3943 75.5868C30.9534 82.1283 40.0028 86.1971 49.9993 86.1971C59.9958 86.1971 69.0628 82.1459 75.6044 75.5868C82.1635 69.0277 86.2147 59.9782 86.2147 49.9817C86.2147 39.9852 82.1635 30.9358 75.6044 24.3767ZM49.9993 12.8193C60.2589 12.8193 69.5539 16.9758 76.2708 23.7103C82.9878 30.4272 87.1617 39.7222 87.1617 49.9817C87.1617 60.2413 83.0053 69.5363 76.2708 76.2532C69.5539 82.9702 60.2589 87.1441 49.9993 87.1441C39.7398 87.1441 30.4448 82.9877 23.7278 76.2532C17.0109 69.5363 12.8369 60.2413 12.8369 49.9817C12.8369 39.7222 16.9934 30.4272 23.7278 23.7103C30.4448 16.9758 39.7222 12.8193 49.9993 12.8193Z" fill="#2FBA59"/>
<path d="M84.6545 15.328C75.7804 6.45387 63.5391 0.982114 50 0.982114C36.4609 0.982114 24.2196 6.47141 15.3455 15.328C6.47142 24.202 0.999636 36.4434 0.999636 49.9825C0.999636 63.5216 6.48895 75.7629 15.3455 84.637C24.2196 93.511 36.4609 98.9828 50 98.9828C63.5391 98.9828 75.7804 93.4935 84.6545 84.637C93.5286 75.7629 99.0004 63.5216 99.0004 49.9825C99.0004 36.4609 93.511 24.202 84.6545 15.328ZM50 0C63.8022 0 76.3066 5.59453 85.356 14.644C94.4055 23.6934 100 36.1803 100 50C100 63.8022 94.4055 76.3065 85.356 85.356C76.3066 94.4055 63.8197 100 50 100C36.1978 100 23.6934 94.4055 14.644 85.356C5.59451 76.3065 0 63.8197 0 50C0 36.1978 5.59451 23.6934 14.644 14.644C23.6934 5.59453 36.1803 0 50 0Z" fill="#302290"/>
<path d="M73.7114 18.0816C74.5883 18.7831 75.4301 19.0812 76.2368 18.976C77.0436 18.8883 77.7626 18.4323 78.4115 17.6081C79.0604 16.7838 79.341 15.9771 79.2533 15.1528C79.1656 14.346 78.6746 13.5919 77.7977 12.8904L76.3947 11.7855L72.3084 16.9592L73.7114 18.0816ZM78.3063 12.2415C79.0253 12.8027 79.5339 13.4166 79.832 14.083C80.1302 14.7494 80.2354 15.4334 80.1127 16.1349C80.0074 16.8364 79.6917 17.5204 79.1481 18.2044C78.6219 18.8708 78.0432 19.3443 77.3768 19.6074C76.7279 19.8704 76.0439 19.9406 75.3249 19.8003C74.6058 19.66 73.9043 19.3092 73.1853 18.748L71.0457 17.0644L76.1491 10.593L78.3063 12.2415ZM72.7994 9.5758L68.8359 7.54142L67.5556 10.0493L70.5371 11.5926L70.1512 12.3292L67.1698 10.7859L65.8194 13.4166L69.7829 15.4509L69.3971 16.1875L64.5918 13.7147L68.3624 6.38393L73.1677 8.85675L72.7994 9.5758ZM64.4865 5.05106L65.381 5.34921L62.7328 13.1535L61.8384 12.8553L64.4865 5.05106ZM56.4192 3.27976L61.7507 4.15664L61.6104 4.96338L57.2084 4.24433L56.7524 7.01529L60.0671 7.55896L59.9268 8.36569L56.6121 7.82203L55.9983 11.5576L55.0688 11.3997L56.4192 3.27976ZM52.7889 2.87639L53.7359 2.94654L53.087 11.1542L52.14 11.084L52.7889 2.87639ZM43.8447 3.10438L50.0004 2.63086L50.0706 3.45513L47.4574 3.64805L48.0186 11.049L47.0716 11.1191L46.5104 3.7182L43.8973 3.91112L43.8447 3.10438ZM40.4073 8.38323L43.4413 11.5225L42.389 11.7505L39.4076 8.59368L40.4073 8.38323ZM38.7587 4.12157C39.3901 3.98127 39.9338 3.98126 40.3722 4.10403C40.8282 4.22679 41.1789 4.45479 41.4596 4.75293C41.7402 5.05107 41.9331 5.43689 42.0207 5.89287C42.0909 6.20855 42.1084 6.52424 42.0558 6.82238C42.0208 7.12052 41.9155 7.41865 41.7402 7.68172C41.5648 7.94479 41.3192 8.19031 41.0036 8.40077C40.6879 8.61122 40.2845 8.76906 39.811 8.87429L37.8994 9.29519L38.6184 12.5747L37.7065 12.7852L35.9352 4.73539L38.7587 4.12157ZM41.1088 6.10333C41.0036 5.61228 40.7756 5.26152 40.4248 5.05106C40.0741 4.82307 39.583 4.788 38.9341 4.9283L37.0225 5.34921L37.724 8.50599L39.6356 8.08509C40.0565 7.9974 40.3898 7.8571 40.6178 7.66419C40.8457 7.47127 41.0036 7.24328 41.0737 6.98022C41.1614 6.69961 41.1614 6.41901 41.1088 6.10333ZM32.9713 6.76976L28.9201 8.64629L30.0951 11.2068L33.1467 9.80378L33.4974 10.5579L30.4459 11.9609L31.691 14.6442L35.7422 12.7677L36.093 13.5218L31.1825 15.7841L27.7275 8.31308L32.6381 6.05071L32.9713 6.76976ZM20.8878 18.0465C20.502 17.5554 20.2389 17.0469 20.0811 16.5207C19.9232 15.9946 19.8882 15.4685 19.9408 14.9423C20.0109 14.4162 20.1688 13.9251 20.4318 13.4692C20.6949 13.0132 21.0456 12.5923 21.5016 12.2415C22.1681 11.7154 22.8696 11.4173 23.6237 11.3296C24.3603 11.2419 25.0969 11.3822 25.7984 11.7505L25.3775 12.452C24.9916 12.2591 24.6233 12.1538 24.22 12.1538C23.8341 12.1363 23.4483 12.2065 23.08 12.3292C22.7117 12.4695 22.361 12.6624 22.0278 12.908C21.5718 13.2762 21.221 13.6972 21.0281 14.2057C20.8177 14.7143 20.765 15.2405 20.8703 15.8017C20.958 16.3629 21.221 16.9241 21.6595 17.4678C22.0804 18.0114 22.5539 18.3973 23.08 18.6253C23.6062 18.8532 24.1323 18.9234 24.6759 18.8532C25.2196 18.7831 25.7107 18.5551 26.1842 18.1868C26.5174 17.9237 26.798 17.6256 27.0085 17.2748C27.2365 16.9416 27.3768 16.5558 27.4469 16.1349C27.5171 15.714 27.4995 15.2931 27.3768 14.8371L28.1484 14.5916C28.3764 15.4334 28.3589 16.2226 28.1134 16.9416C27.8503 17.6607 27.3768 18.292 26.6928 18.8357C26.2368 19.1864 25.7458 19.4495 25.2372 19.5898C24.7286 19.7301 24.2024 19.7652 23.6763 19.6951C23.1502 19.6249 22.6416 19.4495 22.1681 19.1689C21.6946 18.9059 21.2737 18.52 20.8878 18.0465Z" fill="#302290"/>
<path d="M77.3939 86.7063C78.2708 86.0224 78.7619 85.2682 78.8671 84.4615C78.9724 83.6548 78.6917 82.848 78.0604 82.0238C77.4115 81.1995 76.6924 80.7435 75.8857 80.6208C75.079 80.5155 74.2196 80.7961 73.3427 81.4976L71.9397 82.585L75.9909 87.7761L77.3939 86.7063ZM72.8342 80.8663C73.5532 80.3051 74.2722 79.9543 74.9913 79.8316C75.7103 79.6913 76.3943 79.7614 77.0432 80.042C77.6921 80.3226 78.2884 80.7961 78.8145 81.4626C79.3406 82.129 79.6388 82.813 79.744 83.5145C79.8492 84.216 79.744 84.8824 79.4283 85.5488C79.1126 86.2153 78.6041 86.8116 77.885 87.3728L75.7454 89.0389L70.677 82.5499L72.8342 80.8663ZM69.73 84.0055L65.7665 86.0574L67.0642 88.5478L70.0457 87.0045L70.4315 87.7411L67.4501 89.2844L68.8005 91.915L72.764 89.8631L73.1498 90.5997L68.362 93.0901L64.5739 85.7768L69.3617 83.2865L69.73 84.0055ZM61.6802 86.5836L62.5746 86.2854L65.1877 94.1072L64.2933 94.4054L61.6802 86.5836ZM54.9281 88.1795L60.2421 87.2325L60.3824 88.0392L55.9979 88.8109L56.489 91.5818L59.7861 91.0031L59.9264 91.8098L56.6293 92.3885L57.2957 96.1065L56.3662 96.2644L54.9281 88.1795ZM51.5083 88.425L52.4553 88.3549L53.0867 96.5625L52.1396 96.6327L51.5083 88.425ZM43.7917 88.0567L49.9474 88.5303L49.8773 89.3545L47.2642 89.1616L46.7029 96.5625L45.7559 96.4924L46.3171 89.0915L43.704 88.8985L43.7917 88.0567ZM39.6703 91.6695L40.8629 95.861L39.8282 95.5629L38.7058 91.3714L39.6703 91.6695ZM40.2316 87.1272C40.8454 87.3026 41.3364 87.5481 41.6696 87.8814C42.0029 88.197 42.2308 88.5653 42.3185 88.9687C42.4237 89.3721 42.4062 89.793 42.2835 90.2314C42.1958 90.5471 42.0555 90.8277 41.8801 91.0732C41.7047 91.3187 41.4767 91.5292 41.1786 91.687C40.898 91.8449 40.5648 91.9326 40.1965 91.9676C39.8282 92.0027 39.3897 91.9501 38.9162 91.8098L37.0222 91.2837L36.1102 94.5282L35.1982 94.2651L37.443 86.338L40.2316 87.1272ZM41.3715 89.9859C41.5118 89.5124 41.4767 89.0915 41.2663 88.7407C41.0734 88.3899 40.6524 88.1093 40.0211 87.934L38.1446 87.4078L37.2677 90.512L39.1618 91.0382C39.5827 91.1609 39.9334 91.1784 40.2316 91.1258C40.5297 91.0732 40.7752 90.9505 40.9681 90.74C41.1435 90.5471 41.2838 90.284 41.3715 89.9859ZM35.3911 86.4784L31.3224 84.6369L30.1649 87.1974L33.2165 88.5829L32.8833 89.337L29.8317 87.9515L28.604 90.6348L32.6728 92.4762L32.3396 93.2304L27.429 91.0031L30.8313 83.4969L35.7419 85.7242L35.3911 86.4784ZM21.133 81.4275C21.5188 80.9364 21.9397 80.5506 22.4308 80.27C22.9043 79.9894 23.4129 79.814 23.939 79.7614C24.4651 79.6913 24.9737 79.7439 25.4999 79.8842C26.0085 80.0245 26.4995 80.27 26.9555 80.6383C27.6219 81.1644 28.0779 81.7782 28.341 82.4797C28.6041 83.1813 28.6391 83.9178 28.4462 84.6895L27.6746 84.444C27.7622 84.0231 27.7798 83.6372 27.6921 83.2514C27.6044 82.8656 27.4641 82.5148 27.2361 82.1816C27.0257 81.8484 26.745 81.5502 26.4118 81.3047C25.9559 80.9364 25.4472 80.726 24.9211 80.6383C24.395 80.5506 23.8513 80.6383 23.3427 80.8663C22.8166 81.0943 22.3431 81.4801 21.9046 82.0238C21.4837 82.5674 21.2207 83.1286 21.1154 83.6898C21.0102 84.2511 21.0804 84.7772 21.2733 85.2858C21.4837 85.7944 21.817 86.2153 22.2729 86.5836C22.6061 86.8466 22.9569 87.0395 23.3427 87.1798C23.7286 87.3201 24.1319 87.3552 24.5528 87.3377C24.9737 87.3026 25.3771 87.1799 25.798 86.9694L26.2189 87.6709C25.4473 88.0918 24.6931 88.2672 23.9215 88.197C23.1498 88.1269 22.4308 87.8112 21.7468 87.2675C21.2908 86.9168 20.9401 86.4959 20.677 86.0399C20.4139 85.5839 20.2561 85.0753 20.2035 84.5492C20.1509 84.0231 20.1859 83.4969 20.3438 82.9708C20.5016 82.4096 20.7647 81.901 21.133 81.4275Z" fill="#302290"/>
<path fill-rule="evenodd" clip-rule="evenodd" d="M96.0895 54.3663L93.2835 52.332L90.4775 54.3663L91.5648 51.0693L88.7588 49.0349L92.2137 49.0524L93.2835 45.7378L94.3533 49.0524L97.8258 49.0349L95.0022 51.0693L96.0895 54.3663Z" fill="#2FBA59"/>
<path fill-rule="evenodd" clip-rule="evenodd" d="M9.50607 54.3663L6.70003 52.332L3.89401 54.3663L4.98134 51.0693L2.17529 49.0349L5.63022 49.0524L6.70003 45.7378L7.76983 49.0524L11.2423 49.0349L8.41874 51.0693L9.50607 54.3663Z" fill="#2FBA59"/>
<path fill-rule="evenodd" clip-rule="evenodd" d="M90.8631 70.5712L89.1268 69.3085L87.3906 70.5712L88.057 68.5368L86.3208 67.2741H88.4604L89.1268 65.2397L89.7933 67.2741H91.9329L90.1966 68.5368L90.8631 70.5712Z" fill="#2FBA59"/>
<path fill-rule="evenodd" clip-rule="evenodd" d="M12.5916 70.5712L10.8554 69.3085L9.11912 70.5712L9.78556 68.5368L8.04932 67.2741H10.2064L10.8554 65.2397L11.5218 67.2741H13.6614L11.9252 68.5368L12.5916 70.5712Z" fill="#2FBA59"/>
<path fill-rule="evenodd" clip-rule="evenodd" d="M90.8631 35.4438L89.1268 34.1635L87.3906 35.4438L88.057 33.3919L86.3208 32.1467H88.4604L89.1268 30.1123L89.7933 32.1467H91.9329L90.1966 33.3919L90.8631 35.4438Z" fill="#2FBA59"/>
<path fill-rule="evenodd" clip-rule="evenodd" d="M12.5916 35.4438L10.8554 34.1635L9.11912 35.4438L9.78556 33.3919L8.04932 32.1467H10.2064L10.8554 30.1123L11.5218 32.1467H13.6614L11.9252 33.3919L12.5916 35.4438Z" fill="#2FBA59"/>
<path d="M70.4838 55.7517C70.4838 54.9625 70.4487 54.4539 70.3611 54.261C70.2909 54.068 70.098 53.9628 69.8174 53.9628C69.5368 53.9628 69.3614 54.0681 69.2737 54.2785C69.186 54.489 69.1334 54.98 69.1334 55.7517V63.0649C69.1334 63.9418 69.1685 64.4679 69.2562 64.6433C69.3439 64.8187 69.5193 64.9063 69.7999 64.9063C70.0805 64.9063 70.2558 64.8011 70.3435 64.5907C70.4312 64.3802 70.4663 63.9067 70.4663 63.1701V55.7517H70.4838ZM74.2193 56.9968V61.9951C74.2193 63.135 74.1492 63.9593 74.0264 64.4855C73.9037 65.0116 73.6406 65.4851 73.2548 65.9411C72.8689 66.397 72.3954 66.7127 71.8518 66.9056C71.3081 67.0986 70.6943 67.2038 70.0103 67.2038C69.1159 67.2038 68.3793 67.0986 67.783 66.8881C67.1867 66.6777 66.7132 66.362 66.3625 65.9235C66.0117 65.4851 65.7662 65.0291 65.6084 64.5381C65.468 64.047 65.3804 63.2753 65.3804 62.2231V56.9968C65.3804 55.6114 65.5031 54.5942 65.7311 53.8927C65.9766 53.2087 66.4326 52.6475 67.1517 52.2441C67.8532 51.8232 68.7125 51.6303 69.7297 51.6303C70.554 51.6303 71.2905 51.7706 71.9394 52.0688C72.5883 52.3494 73.0794 52.7001 73.3951 53.121C73.7108 53.5419 73.9388 53.9979 74.044 54.524C74.1667 55.0326 74.2193 55.8744 74.2193 56.9968ZM60.2944 55.7517C60.2944 54.9625 60.2593 54.4539 60.1716 54.261C60.1015 54.068 59.9086 53.9628 59.628 53.9628C59.3474 53.9628 59.172 54.0681 59.0843 54.2785C58.9966 54.489 58.944 54.98 58.944 55.7517V63.0649C58.944 63.9418 58.9791 64.4679 59.0668 64.6433C59.1545 64.8187 59.3298 64.9063 59.6104 64.9063C59.891 64.9063 60.0664 64.8011 60.1541 64.5907C60.2418 64.3802 60.2769 63.9067 60.2769 63.1701V55.7517H60.2944ZM64.0475 56.9968V61.9951C64.0475 63.135 63.9773 63.9593 63.8546 64.4855C63.7318 65.0116 63.4687 65.4851 63.0829 65.9411C62.6971 66.397 62.2236 66.7127 61.6799 66.9056C61.1362 67.0986 60.5224 67.2038 59.8384 67.2038C58.944 67.2038 58.2074 67.0986 57.6111 66.8881C57.0149 66.6777 56.5413 66.362 56.1906 65.9235C55.8398 65.4851 55.5943 65.0291 55.4365 64.5381C55.2962 64.047 55.2085 63.2753 55.2085 62.2231V56.9968C55.2085 55.6114 55.3312 54.5942 55.5592 53.8927C55.8048 53.2087 56.2607 52.6475 56.9798 52.2441C57.6813 51.8232 58.5406 51.6303 59.5578 51.6303C60.3821 51.6303 61.1187 51.7706 61.7676 52.0688C62.4165 52.3494 62.9075 52.7001 63.2232 53.121C63.5389 53.5419 63.7669 53.9979 63.8721 54.524C63.9773 55.0326 64.0475 55.8744 64.0475 56.9968ZM50.1226 55.7517C50.1226 54.9625 50.0875 54.4539 49.9998 54.261C49.9296 54.068 49.7367 53.9628 49.4561 53.9628C49.1755 53.9628 49.0001 54.0681 48.9124 54.2785C48.8248 54.489 48.7721 54.98 48.7721 55.7517V63.0649C48.7721 63.9418 48.8072 64.4679 48.8949 64.6433C48.9826 64.8187 49.158 64.9063 49.4386 64.9063C49.7192 64.9063 49.8946 64.8011 49.9822 64.5907C50.0699 64.3802 50.105 63.9067 50.105 63.1701V55.7517H50.1226ZM53.8581 56.9968V61.9951C53.8581 63.135 53.7879 63.9593 53.6651 64.4855C53.5424 65.0116 53.2793 65.4851 52.8935 65.9411C52.5077 66.397 52.0342 66.7127 51.4905 66.9056C50.9468 67.0986 50.333 67.2038 49.649 67.2038C48.7546 67.2038 48.018 67.0986 47.4217 66.8881C46.8254 66.6777 46.3519 66.362 46.0012 65.9235C45.6504 65.4851 45.4049 65.0291 45.2471 64.5381C45.1068 64.047 45.0191 63.2753 45.0191 62.2231V56.9968C45.0191 55.6114 45.1418 54.5942 45.3698 53.8927C45.6153 53.2087 46.0713 52.6475 46.7904 52.2441C47.4919 51.8232 48.3512 51.6303 49.3684 51.6303C50.1927 51.6303 50.9293 51.7706 51.5782 52.0688C52.2271 52.3494 52.7181 52.7001 53.0338 53.121C53.3495 53.5419 53.5775 53.9979 53.6827 54.524C53.8055 55.0326 53.8581 55.8744 53.8581 56.9968ZM43.5634 64.3802V66.9407H35.3207V64.8011C37.7585 60.8025 39.2141 58.3473 39.6701 57.4002C40.126 56.4532 40.3716 55.7166 40.3716 55.1905C40.3716 54.7871 40.3014 54.4714 40.1611 54.2785C40.0208 54.0856 39.8104 53.9804 39.5298 53.9804C39.2492 53.9804 39.0387 54.0856 38.8984 54.3136C38.7581 54.5416 38.688 54.98 38.688 55.6289V57.0495H35.3207V56.5058C35.3207 55.664 35.3733 54.9976 35.4435 54.524C35.5312 54.033 35.7416 53.5595 36.0748 53.0859C36.408 52.6124 36.864 52.2617 37.4077 52.0161C37.9514 51.7706 38.6003 51.6479 39.3719 51.6479C40.8626 51.6479 41.985 52.0161 42.7567 52.7527C43.5108 53.4893 43.8967 54.4188 43.8967 55.5588C43.8967 56.4181 43.6862 57.3301 43.2478 58.2946C42.8093 59.2592 41.5466 61.2936 39.4421 64.3978H43.5634V64.3802ZM34.0405 64.3802V66.9407H25.7977V64.8011C28.2355 60.8025 29.6911 58.3473 30.1471 57.4002C30.6031 56.4532 30.8486 55.7166 30.8486 55.1905C30.8486 54.7871 30.7785 54.4714 30.6382 54.2785C30.4979 54.0856 30.2874 53.9804 30.0068 53.9804C29.7262 53.9804 29.5157 54.0856 29.3754 54.3136C29.2351 54.5416 29.165 54.98 29.165 55.6289V57.0495H25.7977V56.5058C25.7977 55.664 25.8504 54.9976 25.9205 54.524C26.0082 54.033 26.2186 53.5595 26.5519 53.0859C26.8851 52.6124 27.3411 52.2617 27.8847 52.0161C28.4284 51.7706 29.0773 51.6479 29.8489 51.6479C31.3396 51.6479 32.4621 52.0161 33.2337 52.7527C33.9878 53.4893 34.3737 54.4188 34.3737 55.5588C34.3737 56.4181 34.1632 57.3301 33.7248 58.2946C33.2863 59.2592 32.0236 61.2936 29.9191 64.3978H34.0405V64.3802ZM58.3302 36.127C58.3302 35.4255 58.2951 34.987 58.225 34.7941C58.1548 34.6012 57.997 34.496 57.7514 34.496C57.5585 34.496 57.4007 34.5837 57.2955 34.7415C57.1902 34.8993 57.1376 35.3553 57.1376 36.127V43.1421C57.1376 44.0189 57.1727 44.5451 57.2429 44.7555C57.313 44.966 57.4708 45.0537 57.7339 45.0537C57.997 45.0537 58.1548 44.9309 58.2425 44.7029C58.3126 44.4749 58.3477 43.9137 58.3477 43.0193V36.127H58.3302ZM62.2411 41.0551C62.2411 42.5633 62.206 43.6331 62.1359 44.2645C62.0657 44.8958 61.8377 45.4746 61.4695 45.9832C61.1012 46.5093 60.5926 46.8951 59.9612 47.1757C59.3298 47.4563 58.5757 47.5966 57.7339 47.5966C56.9272 47.5966 56.2081 47.4563 55.5768 47.1933C54.9454 46.9302 54.4193 46.5444 54.0335 46.0182C53.6476 45.4921 53.4196 44.9134 53.332 44.2995C53.2618 43.6857 53.2267 42.5984 53.2267 41.0551V38.477C53.2267 36.9688 53.2618 35.899 53.332 35.2676C53.4021 34.6363 53.6301 34.0575 53.9984 33.5489C54.3667 33.0228 54.8753 32.637 55.5066 32.3564C56.138 32.0758 56.8746 31.9355 57.7339 31.9355C58.5406 31.9355 59.2597 32.0758 59.891 32.3388C60.5224 32.6019 61.0485 32.9877 61.4344 33.5139C61.8202 34.04 62.0482 34.6187 62.1359 35.2326C62.206 35.8464 62.2411 36.9337 62.2411 38.477V41.0551ZM51.7886 36.8109H48.1583V35.7061C48.1583 35.1799 48.1057 34.8467 48.018 34.7064C47.9303 34.5661 47.7725 34.496 47.562 34.496C47.334 34.496 47.1587 34.5837 47.0359 34.7766C46.9131 34.9695 46.8605 35.2501 46.8605 35.6359C46.8605 36.1445 46.9307 36.5128 47.071 36.7583C47.2113 37.0039 47.562 37.3195 48.1759 37.6703C49.9121 38.705 50.9994 39.5644 51.4554 40.2133C51.9114 40.8797 52.1394 41.9495 52.1394 43.4051C52.1394 44.4749 52.0166 45.2641 51.7711 45.7727C51.5255 46.2813 51.0345 46.7022 50.3155 47.053C49.5964 47.4037 48.7721 47.5616 47.8076 47.5616C46.7553 47.5616 45.8784 47.3686 45.1418 46.9653C44.4052 46.5619 43.9317 46.0708 43.6862 45.457C43.4582 44.8432 43.353 43.9663 43.353 42.8439V41.8618H46.9833V43.6857C46.9833 44.2469 47.0359 44.6152 47.1411 44.7731C47.2463 44.9309 47.4217 45.0186 47.6848 45.0186C47.9479 45.0186 48.1408 44.9134 48.2635 44.7204C48.3863 44.51 48.4564 44.2119 48.4564 43.8085C48.4564 42.9316 48.3337 42.3529 48.0882 42.0723C47.8426 41.7916 47.2288 41.3357 46.2642 40.7043C45.2997 40.0554 44.6508 39.5994 44.3351 39.3013C44.0194 39.0032 43.7564 38.5998 43.5459 38.0912C43.3355 37.5826 43.2302 36.9162 43.2302 36.127C43.2302 34.987 43.3705 34.1277 43.6687 33.6016C43.9668 33.0754 44.4403 32.6545 45.0892 32.3564C45.7381 32.0582 46.5273 31.9004 47.4568 31.9004C48.474 31.9004 49.3333 32.0582 50.0524 32.3914C50.7714 32.7247 51.2274 33.128 51.4729 33.6366C51.7009 34.1277 51.8237 34.987 51.8237 36.1796V36.8109H51.7886ZM41.9675 32.2511V47.2634H38.0566V32.2511H41.9675Z" fill="#302290"/>
</svg>
