<svg width="100" height="100" viewBox="0 0 100 100" fill="none" xmlns="http://www.w3.org/2000/svg">
<rect width="100" height="100" rx="50" fill="white"/>
<path d="M75.6219 24.3777C69.0628 17.8186 60.0133 13.7674 50.0169 13.7674C40.0204 13.7674 30.9534 17.8186 24.4118 24.3777C17.8527 30.9368 13.8015 39.9862 13.8015 49.9827C13.8015 59.9792 17.8527 69.0462 24.4118 75.5877C30.9709 82.1469 40.0204 86.1981 50.0169 86.1981C60.0133 86.1981 69.0803 82.1469 75.6219 75.5877C82.181 69.0286 86.2322 59.9792 86.2322 49.9827C86.2322 39.9862 82.1635 30.9368 75.6219 24.3777ZM49.9993 12.8203C60.2589 12.8203 69.5538 16.9768 76.2708 23.7112C82.9877 30.4282 87.1617 39.7231 87.1617 49.9827C87.1617 60.2423 83.0053 69.5373 76.2708 76.2542C69.5538 82.9711 60.2589 87.1451 49.9993 87.1451C39.7398 87.1451 30.4448 82.9887 23.7278 76.2542C17.0109 69.5373 12.8369 60.2423 12.8369 49.9827C12.8369 39.7231 16.9934 30.4282 23.7278 23.7112C30.4623 16.9768 39.7398 12.8203 49.9993 12.8203Z" fill="#2FBA59"/>
<path d="M84.6545 15.328C75.7804 6.45387 63.5391 0.982114 50 0.982114C36.4609 0.982114 24.2196 6.47141 15.3455 15.328C6.47141 24.202 0.999649 36.4434 0.999649 49.9825C0.999649 63.5216 6.48895 75.7629 15.3455 84.637C24.2196 93.511 36.4609 98.9828 50 98.9828C63.5391 98.9828 75.7804 93.4935 84.6545 84.637C93.5286 75.7629 99.0004 63.5216 99.0004 49.9825C99.0179 36.4609 93.5286 24.202 84.6545 15.328ZM50 0C63.8022 0 76.3065 5.59453 85.356 14.644C94.4055 23.6934 100 36.1803 100 50C100 63.8022 94.4055 76.3065 85.356 85.356C76.3065 94.4055 63.8197 100 50 100C36.1978 100 23.6934 94.4055 14.644 85.356C5.59453 76.3065 0 63.8197 0 50C0 36.1978 5.59453 23.6934 14.644 14.644C23.6934 5.59453 36.1978 0 50 0Z" fill="#302290"/>
<path d="M73.7293 18.0816C74.6062 18.7831 75.448 19.0812 76.2548 18.976C77.0615 18.8883 77.7805 18.4323 78.4294 17.6081C79.0783 16.7838 79.3589 15.9771 79.2712 15.1528C79.1836 14.346 78.6925 13.5919 77.8156 12.8904L76.4126 11.7855L72.3263 16.9592L73.7293 18.0816ZM78.3242 12.2415C79.0433 12.8027 79.5518 13.4166 79.85 14.083C80.1481 14.7494 80.2533 15.4334 80.1306 16.1349C80.0254 16.8364 79.7097 17.5204 79.166 18.2044C78.6399 18.8708 78.0611 19.3443 77.3947 19.6074C76.7458 19.8704 76.0618 19.9406 75.3428 19.8003C74.6237 19.66 73.9222 19.3092 73.2032 18.748L71.0636 17.0644L76.1671 10.593L78.3242 12.2415ZM72.8174 9.5758L68.8538 7.54142L67.5736 10.0493L70.555 11.5926L70.1692 12.3292L67.1878 10.7859L65.8374 13.4166L69.8009 15.4509L69.415 16.1875L64.6097 13.7147L68.3803 6.38393L73.1857 8.85675L72.8174 9.5758ZM64.5045 5.05106L65.3989 5.34921L62.7507 13.1535L61.8563 12.8553L64.5045 5.05106ZM56.4196 3.27976L61.7511 4.15664L61.6108 4.96338L57.2088 4.24433L56.7528 7.01529L60.0674 7.55896L59.9271 8.36569L56.6125 7.82203L55.9987 11.5576L55.0692 11.3997L56.4196 3.27976ZM52.8068 2.87639L53.7539 2.94654L53.105 11.1542L52.1579 11.084L52.8068 2.87639ZM43.8626 3.10438L50.0184 2.63086L50.0885 3.45513L47.4754 3.64805L48.0366 11.049L47.0895 11.1191L46.5459 3.73574L43.9328 3.92865L43.8626 3.10438ZM40.4252 8.38323L43.4592 11.5225L42.407 11.7505L39.4256 8.59368L40.4252 8.38323ZM38.7767 4.12157C39.408 3.98127 39.9517 3.98126 40.3901 4.10403C40.8461 4.22679 41.1969 4.45479 41.4775 4.75293C41.7581 5.06861 41.951 5.43689 42.0387 5.89287C42.1088 6.20855 42.1264 6.52424 42.0738 6.82238C42.0387 7.12052 41.9335 7.41865 41.7581 7.68172C41.5827 7.94479 41.3372 8.19031 41.0215 8.40077C40.7058 8.61122 40.3025 8.76906 39.8289 8.87429L37.9173 9.29519L38.6364 12.5747L37.7244 12.7852L35.9531 4.73539L38.7767 4.12157ZM41.1092 6.10333C41.004 5.61228 40.776 5.26152 40.4252 5.05106C40.0745 4.82307 39.5834 4.788 38.9345 4.9283L37.0229 5.34921L37.7244 8.50599L39.636 8.08509C40.0569 7.9974 40.3902 7.8571 40.6181 7.66419C40.8461 7.47127 41.004 7.24328 41.0741 6.98022C41.1793 6.69961 41.1793 6.41901 41.1092 6.10333ZM32.9892 6.76976L28.938 8.64629L30.113 11.2068L33.1646 9.80378L33.5154 10.5579L30.4638 11.9609L31.709 14.6442L35.7602 12.7677L36.111 13.5218L31.2004 15.7841L27.7455 8.31308L32.656 6.05071L32.9892 6.76976ZM20.9058 18.0465C20.5199 17.5554 20.2569 17.0469 20.099 16.5207C19.9412 15.9946 19.9061 15.4685 19.9587 14.9423C20.0289 14.4162 20.1867 13.9251 20.4498 13.4692C20.7128 13.0132 21.0636 12.5923 21.5196 12.2415C22.186 11.7154 22.8875 11.4173 23.6416 11.3296C24.3782 11.2419 25.1148 11.3822 25.8163 11.7505L25.3954 12.452C25.0096 12.2591 24.6413 12.1538 24.2379 12.1538C23.8521 12.1363 23.4663 12.2065 23.098 12.3292C22.7297 12.4695 22.3789 12.6624 22.0457 12.908C21.5897 13.2762 21.239 13.6972 21.0461 14.2057C20.8356 14.7143 20.783 15.2405 20.8882 15.8017C20.9759 16.3629 21.239 16.9241 21.6774 17.4678C22.0983 18.0114 22.5718 18.3973 23.098 18.6253C23.6241 18.8532 24.1502 18.9234 24.6939 18.8532C25.2376 18.7831 25.7286 18.5551 26.2021 18.1868C26.5354 17.9237 26.816 17.6256 27.0264 17.2748C27.2544 16.9416 27.3947 16.5558 27.4649 16.1349C27.535 15.714 27.5175 15.2931 27.3947 14.8371L28.1664 14.5916C28.3943 15.4334 28.3768 16.2226 28.1313 16.9416C27.8682 17.6607 27.3947 18.292 26.7107 18.8357C26.2548 19.1864 25.7637 19.4495 25.2551 19.5898C24.7465 19.7301 24.2204 19.7652 23.6943 19.6951C23.1681 19.6249 22.6595 19.4495 22.186 19.1689C21.7125 18.9059 21.2916 18.52 20.9058 18.0465Z" fill="#302290"/>
<path d="M77.4125 86.7068C78.2894 86.0229 78.798 85.2687 78.8857 84.462C78.9909 83.6553 78.7103 82.8485 78.0789 82.0243C77.43 81.2 76.711 80.744 75.9042 80.6212C75.0975 80.516 74.2382 80.7966 73.3613 81.4981L71.9582 82.5855L76.0095 87.7766L77.4125 86.7068ZM72.8527 80.8668C73.5717 80.3056 74.2908 79.9548 75.0098 79.832C75.7289 79.6917 76.4128 79.7619 77.0617 80.0425C77.7106 80.3231 78.3069 80.7966 78.833 81.4631C79.3592 82.1295 79.6573 82.8135 79.7625 83.515C79.8678 84.2165 79.7625 84.8829 79.4469 85.5493C79.1312 86.2158 78.6226 86.812 77.9035 87.3733L75.7639 89.0393L70.6955 82.5504L72.8527 80.8668ZM69.7485 84.006L65.785 86.0579L67.0828 88.5483L70.0642 87.005L70.45 87.7415L67.4686 89.2849L68.8365 91.9155L72.8001 89.8636L73.1859 90.6002L68.3981 93.0905L64.61 85.7773L69.3977 83.287L69.7485 84.006ZM61.6987 86.5841L62.5931 86.2859L65.2062 94.1077L64.3118 94.4059L61.6987 86.5841ZM54.9291 88.18L60.2431 87.2329L60.3834 88.0397L55.9989 88.8113L56.49 91.5823L59.7871 91.0036L59.9274 91.8103L56.6303 92.389L57.2967 96.107L56.3672 96.2649L54.9291 88.18ZM51.5268 88.4255L52.4739 88.3554L53.1052 96.563L52.1582 96.6332L51.5268 88.4255ZM43.8102 88.0572L49.966 88.5307L49.8958 89.355L47.2827 89.1621L46.7215 96.563L45.7745 96.4929L46.3357 89.092L43.7225 88.899L43.8102 88.0572ZM39.6889 91.67L40.8814 95.8615L39.8467 95.5634L38.7243 91.3718L39.6889 91.67ZM40.2501 87.1277C40.8639 87.3031 41.355 87.5486 41.6882 87.8818C42.0214 88.1975 42.2494 88.5658 42.3371 88.9692C42.4423 89.3726 42.4248 89.7935 42.302 90.2319C42.2143 90.5476 42.074 90.8282 41.8986 91.0737C41.7232 91.3192 41.4953 91.5297 41.1971 91.6875C40.9165 91.8454 40.5833 91.9331 40.215 91.9681C39.8467 92.0032 39.4083 91.9506 38.9348 91.8103L37.0407 91.2842L36.1287 94.5286L35.2168 94.2656L37.4616 86.3385L40.2501 87.1277ZM41.39 89.9864C41.5303 89.5129 41.4953 89.0919 41.2848 88.7412C41.0919 88.3904 40.671 88.1098 40.0396 87.9345L38.1631 87.4083L37.2862 90.5125L39.1803 91.0386C39.6012 91.1614 39.9519 91.1789 40.2501 91.1263C40.5482 91.0737 40.7938 90.9509 40.9867 90.7405C41.162 90.5476 41.3023 90.2845 41.39 89.9864ZM35.4097 86.4788L31.3409 84.6374L30.1834 87.1979L33.235 88.5834L32.9018 89.3375L29.8502 87.952L28.6226 90.6353L32.6913 92.4767L32.3581 93.2309L27.4476 91.0036L30.8499 83.4974L35.7604 85.7247L35.4097 86.4788ZM21.1515 81.428C21.5374 80.9369 21.9583 80.5511 22.4493 80.2705C22.9228 79.9899 23.4314 79.8145 23.9576 79.7619C24.4837 79.6917 24.9923 79.7444 25.5184 79.8847C26.027 80.025 26.5181 80.2705 26.974 80.6388C27.6405 81.1649 28.0964 81.7787 28.3595 82.4802C28.6226 83.1817 28.6577 83.9183 28.4647 84.69L27.6931 84.4445C27.7808 84.0236 27.7983 83.6377 27.7106 83.2519C27.6229 82.8661 27.4826 82.5153 27.2546 82.1821C27.0442 81.8489 26.7636 81.5507 26.4304 81.3052C25.9744 80.9369 25.4658 80.7265 24.9397 80.6388C24.4135 80.5511 23.8699 80.6388 23.3613 80.8668C22.8351 81.0948 22.3616 81.4806 21.9232 82.0243C21.5023 82.5679 21.2392 83.1291 21.134 83.6903C21.0288 84.2515 21.0989 84.7777 21.2918 85.2863C21.5023 85.7949 21.8355 86.2158 22.2915 86.5841C22.6247 86.8471 22.9754 87.04 23.3613 87.1803C23.7471 87.3206 24.1505 87.3557 24.5714 87.3382C24.9923 87.3031 25.3956 87.1803 25.8165 86.9699L26.2375 87.6714C25.4658 88.0923 24.7117 88.2677 23.94 88.1975C23.1684 88.1274 22.4493 87.8117 21.7653 87.268C21.3094 86.9173 20.9586 86.4964 20.6955 86.0404C20.4325 85.5844 20.2746 85.0758 20.222 84.5497C20.1694 84.0235 20.2045 83.4974 20.3623 82.9713C20.5202 82.4101 20.7832 81.9015 21.1515 81.428Z" fill="#302290"/>
<path fill-rule="evenodd" clip-rule="evenodd" d="M96.1062 54.3668L93.3002 52.3325L90.4942 54.3668L91.5815 51.0697L88.7579 49.0354L92.2304 49.0529L93.3002 45.7383L94.37 49.0529L97.8425 49.0354L95.0189 51.0697L96.1062 54.3668Z" fill="#2FBA59"/>
<path fill-rule="evenodd" clip-rule="evenodd" d="M9.52359 54.3668L6.71756 52.3325L3.91152 54.3668L4.99886 51.0697L2.17529 49.0354L5.64776 49.0529L6.71756 45.7383L7.78736 49.0529L11.2423 49.0354L8.43625 51.0697L9.52359 54.3668Z" fill="#2FBA59"/>
<path fill-rule="evenodd" clip-rule="evenodd" d="M90.8801 70.5712L89.1439 69.3085L87.4077 70.5712L88.0741 68.5368L86.3379 67.2741H88.4775L89.1439 65.2397L89.7928 67.2741H91.95L90.2137 68.5368L90.8801 70.5712Z" fill="#2FBA59"/>
<path fill-rule="evenodd" clip-rule="evenodd" d="M12.6093 70.5712L10.873 69.3085L9.13681 70.5712L9.80325 68.5368L8.06702 67.2741H10.2066L10.873 65.2397L11.5395 67.2741H13.6791L11.9428 68.5368L12.6093 70.5712Z" fill="#2FBA59"/>
<path fill-rule="evenodd" clip-rule="evenodd" d="M90.8801 35.4438L89.1439 34.1635L87.4077 35.4438L88.0741 33.3919L86.3379 32.1467H88.4775L89.1439 30.1123L89.7928 32.1467H91.95L90.2137 33.3919L90.8801 35.4438Z" fill="#2FBA59"/>
<path fill-rule="evenodd" clip-rule="evenodd" d="M12.6093 35.4438L10.873 34.1635L9.13681 35.4438L9.80325 33.3919L8.06702 32.1467H10.2066L10.873 30.1123L11.5395 32.1467H13.6791L11.9428 33.3919L12.6093 35.4438Z" fill="#2FBA59"/>
<path d="M68.2217 51.9114V66.9237H64.4862V58.8563C64.4862 57.6989 64.4511 56.9973 64.3985 56.7518C64.3459 56.5238 64.188 56.3309 63.9425 56.2257C63.697 56.1029 63.1358 56.0503 62.2764 56.0503H61.9081V54.3141C63.7145 53.9282 65.1 53.1215 66.0295 51.9114H68.2217ZM57.3659 55.7346C57.3659 54.9454 57.3308 54.4368 57.2431 54.2439C57.173 54.051 56.9801 53.9458 56.6994 53.9458C56.4188 53.9458 56.2435 54.051 56.1558 54.2615C56.0681 54.4719 56.0155 54.963 56.0155 55.7346V63.0478C56.0155 63.9247 56.0506 64.4509 56.1382 64.6262C56.2259 64.8016 56.4013 64.8893 56.6819 64.8893C56.9625 64.8893 57.1379 64.7841 57.2256 64.5736C57.3133 64.3632 57.3483 63.8897 57.3483 63.1531V55.7346H57.3659ZM61.1014 56.9973V61.9956C61.1014 63.1355 61.0313 63.9598 60.9085 64.4859C60.7857 65.0121 60.5227 65.4856 60.1368 65.9416C59.751 66.3975 59.2775 66.7132 58.7338 66.9061C58.1901 67.0991 57.5763 67.2043 56.8924 67.2043C55.9979 67.2043 55.2613 67.0991 54.6651 66.8886C54.0688 66.6781 53.5953 66.3625 53.2445 65.924C52.8938 65.4856 52.6482 65.0296 52.4904 64.5386C52.3501 64.0475 52.2624 63.2758 52.2624 62.2236V56.9973C52.2624 55.6119 52.3852 54.5947 52.6132 53.8932C52.8587 53.2092 53.3147 52.648 54.0337 52.2446C54.7352 51.8237 55.5946 51.6308 56.6118 51.6308C57.436 51.6308 58.1726 51.7711 58.8215 52.0692C59.4704 52.3498 59.9615 52.7006 60.2771 53.1215C60.5928 53.5424 60.8208 53.9984 60.926 54.5245C61.0488 55.0331 61.1014 55.8574 61.1014 56.9973ZM47.1765 55.7346C47.1765 54.9454 47.1414 54.4368 47.0537 54.2439C46.9836 54.051 46.7906 53.9458 46.51 53.9458C46.2294 53.9458 46.0541 54.051 45.9664 54.2615C45.8787 54.4719 45.8261 54.963 45.8261 55.7346V63.0478C45.8261 63.9247 45.8612 64.4509 45.9488 64.6262C46.0365 64.8016 46.2119 64.8893 46.4925 64.8893C46.7731 64.8893 46.9485 64.7841 47.0362 64.5736C47.1239 64.3632 47.1589 63.8897 47.1589 63.1531V55.7346H47.1765ZM50.9295 56.9973V61.9956C50.9295 63.1355 50.8594 63.9598 50.7366 64.4859C50.6139 65.0121 50.3508 65.4856 49.965 65.9416C49.5791 66.3975 49.1056 66.7132 48.562 66.9061C48.0183 67.0991 47.4045 67.2043 46.7205 67.2043C45.8261 67.2043 45.0895 67.0991 44.4932 66.8886C43.8969 66.6781 43.4234 66.3625 43.0726 65.924C42.7219 65.4856 42.4764 65.0296 42.3185 64.5386C42.1782 64.0475 42.0905 63.2758 42.0905 62.2236V56.9973C42.0905 55.6119 42.2133 54.5947 42.4413 53.8932C42.6868 53.2092 43.1428 52.648 43.8618 52.2446C44.5634 51.8237 45.4227 51.6308 46.4399 51.6308C47.2642 51.6308 48.0007 51.7711 48.6496 52.0692C49.2985 52.3498 49.7896 52.7006 50.1053 53.1215C50.4209 53.5424 50.6489 53.9984 50.7542 54.5245C50.8594 55.0331 50.9295 55.8574 50.9295 56.9973ZM35.549 58.26C35.549 58.8914 35.6367 59.2772 35.7945 59.4351C35.9523 59.5754 36.1277 59.6631 36.3031 59.6631C36.5662 59.6631 36.7591 59.5754 36.8818 59.3825C37.0046 59.1895 37.0572 58.8213 37.0572 58.2776V55.5592C37.0572 54.8928 37.0046 54.4719 36.8818 54.2615C36.7766 54.051 36.5837 53.9458 36.3031 53.9458C36.1453 53.9458 35.9699 54.0335 35.7945 54.1913C35.6191 54.3491 35.5314 54.7701 35.5314 55.4716V58.26H35.549ZM31.8134 62.9426H35.549C35.549 63.6441 35.5665 64.0826 35.584 64.2755C35.6016 64.4509 35.6717 64.6087 35.812 64.7315C35.9523 64.8542 36.1277 64.9244 36.3557 64.9244C36.5486 64.9244 36.7065 64.8718 36.8292 64.749C36.952 64.6262 37.0221 64.4859 37.0397 64.293C37.0572 64.1001 37.0572 63.7318 37.0572 63.1706V60.7855C36.8643 61.1889 36.5837 61.487 36.2154 61.6799C35.8471 61.8728 35.3736 61.978 34.8299 61.978C34.146 61.978 33.5321 61.7851 33.006 61.4168C32.4799 61.0486 32.1467 60.5926 32.0064 60.084C31.8661 59.5578 31.7959 58.8563 31.7959 57.9795V56.7869C31.7959 55.7346 31.831 54.9454 31.9187 54.4368C32.0064 53.9282 32.2168 53.4372 32.5676 53.0163C32.9183 52.5778 33.3918 52.2446 34.0057 51.9991C34.6195 51.7536 35.321 51.6308 36.1453 51.6308C37.1449 51.6308 37.9692 51.7711 38.6181 52.0517C39.267 52.3323 39.758 52.7357 40.1088 53.2618C40.4595 53.7879 40.67 54.3316 40.7226 54.9104C40.7752 55.4891 40.8103 56.594 40.8103 58.26V60.347C40.8103 62.1359 40.7928 63.3285 40.7401 63.9247C40.6875 64.521 40.4771 65.0998 40.0912 65.6434C39.7054 66.1871 39.1968 66.5905 38.5479 66.8535C37.899 67.1166 37.1449 67.2569 36.2856 67.2569C35.2333 67.2569 34.3564 67.0815 33.69 66.7483C33.0235 66.4151 32.5325 65.924 32.2343 65.3102C31.9537 64.6613 31.8134 63.8897 31.8134 62.9426ZM58.3129 36.1275C58.3129 35.426 58.2778 34.9875 58.2077 34.7946C58.1375 34.6017 57.9797 34.4965 57.7342 34.4965C57.5413 34.4965 57.3834 34.5842 57.2782 34.742C57.173 34.8998 57.1203 35.3558 57.1203 36.1275V43.1425C57.1203 44.0194 57.1554 44.5456 57.2256 44.756C57.2957 44.9665 57.4536 45.0542 57.7166 45.0542C57.9797 45.0542 58.1375 44.9314 58.2252 44.7034C58.2954 44.4754 58.3305 43.9142 58.3305 43.0198V36.1275H58.3129ZM62.2238 41.0556C62.2238 42.5638 62.1887 43.6336 62.1186 44.265C62.0484 44.8963 61.8205 45.4751 61.4522 45.9837C61.0839 46.4922 60.5753 46.8956 59.9439 47.1762C59.3126 47.4568 58.5584 47.5971 57.7166 47.5971C56.9099 47.5971 56.1909 47.4568 55.5595 47.1938C54.9281 46.9307 54.402 46.5449 54.0162 46.0187C53.6304 45.4926 53.4024 44.9139 53.3147 44.3C53.2445 43.6862 53.2094 42.5989 53.2094 41.0556V38.4775C53.2094 36.9693 53.2445 35.8995 53.3147 35.2681C53.3848 34.6368 53.6128 34.058 53.9811 33.5494C54.3494 33.0233 54.858 32.6375 55.4893 32.3569C56.1207 32.0763 56.8573 31.9359 57.7166 31.9359C58.5234 31.9359 59.2424 32.0763 59.8738 32.3393C60.5051 32.6024 61.0313 32.9882 61.4171 33.5143C61.8029 34.0405 62.0309 34.6192 62.1186 35.233C62.1887 35.8469 62.2238 36.9342 62.2238 38.4775V41.0556ZM51.7538 36.8114H48.1235V35.7066C48.1235 35.1804 48.0709 34.8472 47.9832 34.7069C47.8955 34.5666 47.7377 34.4965 47.5272 34.4965C47.2992 34.4965 47.1239 34.5841 47.0011 34.7771C46.8783 34.97 46.8257 35.2506 46.8257 35.6364C46.8257 36.145 46.8959 36.5133 47.0362 36.7588C47.1765 37.0043 47.5272 37.32 48.1411 37.6708C49.8773 38.7055 50.9646 39.5649 51.4206 40.2137C51.8766 40.8802 52.1046 41.95 52.1046 43.4056C52.1046 44.4754 51.9818 45.2646 51.7363 45.7732C51.4907 46.2818 50.9997 46.7027 50.2806 47.0535C49.5616 47.4042 48.7373 47.5621 47.7727 47.5621C46.7205 47.5621 45.8436 47.3691 45.107 46.9658C44.3704 46.5624 43.8969 46.0713 43.6514 45.4575C43.4234 44.8437 43.3182 43.9668 43.3182 42.8444V41.8623H46.9485V43.6862C46.9485 44.2474 47.0011 44.6157 47.1063 44.7735C47.2115 44.9314 47.3869 45.0191 47.65 45.0191C47.9131 45.0191 48.106 44.9139 48.2287 44.7209C48.3515 44.5105 48.4216 44.2124 48.4216 43.809C48.4216 42.9321 48.2989 42.3533 48.0534 42.0727C47.8078 41.8097 47.194 41.3362 46.2294 40.7048C45.2649 40.0559 44.616 39.5999 44.3003 39.3018C43.9846 39.0037 43.7215 38.6003 43.5111 38.0917C43.3006 37.5831 43.1954 36.9167 43.1954 36.1275C43.1954 34.97 43.3357 34.1282 43.6338 33.602C43.932 33.0759 44.4055 32.655 45.0544 32.3569C45.7033 32.0587 46.4925 31.9009 47.422 31.9009C48.4392 31.9009 49.2985 32.0587 50.0176 32.3919C50.7366 32.7251 51.1926 33.1285 51.4381 33.6371C51.6661 34.1282 51.7889 34.9875 51.7889 36.1801V36.8114H51.7538ZM41.9502 32.2516V47.2639H38.0393V32.2516H41.9502Z" fill="#302290"/>
</svg>
