<svg width="100" height="100" viewBox="0 0 100 100" fill="none" xmlns="http://www.w3.org/2000/svg">
<rect width="100" height="100" rx="50" fill="white"/>
<path fill-rule="evenodd" clip-rule="evenodd" d="M49.9993 15.5215C69.0277 15.5215 84.461 30.9547 84.461 49.9831C84.461 69.0115 69.0277 84.4447 49.9993 84.4447C30.9709 84.4447 15.5377 69.0115 15.5377 49.9831C15.5377 30.9547 30.9709 15.5215 49.9993 15.5215Z" fill="#302290"/>
<path d="M75.6044 24.3777C69.0453 17.8186 59.9958 13.7673 49.9993 13.7673C40.0028 13.7673 30.9534 17.8186 24.3943 24.3777C17.8352 30.9368 13.784 39.9862 13.784 49.9827C13.784 69.9757 30.0063 86.1981 49.9993 86.1981C59.9958 86.1981 69.0628 82.1469 75.6044 75.5878C82.1635 69.0287 86.2147 59.9792 86.2147 49.9827C86.2147 39.9862 82.1635 30.9368 75.6044 24.3777ZM49.9993 12.8203C60.2589 12.8203 69.5539 16.9767 76.2708 23.7112C82.9878 30.4282 87.1617 39.7232 87.1617 49.9827C87.1617 60.2423 83.0053 69.5373 76.2708 76.2542C69.5539 82.9711 60.2589 87.1451 49.9993 87.1451C29.4802 87.1451 12.8369 70.5018 12.8369 49.9827C12.8369 39.7232 16.9934 30.4282 23.7279 23.7112C30.4448 16.9943 39.7398 12.8203 49.9993 12.8203Z" fill="#2FBA59"/>
<path d="M84.6545 15.328C75.7804 6.45388 63.5391 0.982112 50 0.982112C36.4609 0.982112 24.2196 6.47141 15.3455 15.328C6.47142 24.202 0.999609 36.4434 0.999609 49.9825C0.999609 63.5216 6.48895 75.7629 15.3455 84.637C24.2196 93.511 36.4609 98.9828 50 98.9828C63.5391 98.9828 75.7804 93.4935 84.6545 84.637C93.5286 75.7629 99.0003 63.5216 99.0003 49.9825C99.0003 36.4609 93.5286 24.202 84.6545 15.328ZM50 0C63.8022 0 76.3065 5.59453 85.356 14.644C94.4055 23.6934 100 36.1803 100 50C100 63.8022 94.4055 76.3066 85.356 85.356C76.3065 94.4055 63.8197 100 50 100C36.1978 100 23.6934 94.4055 14.6439 85.356C5.59449 76.3066 0 63.8197 0 50C0 36.1978 5.59449 23.6934 14.6439 14.644C23.6934 5.59453 36.1978 0 50 0Z" fill="#302290"/>
<path d="M78.797 21.8169C79.5862 22.6237 80.3754 23.027 81.1821 23.0446C81.9888 23.0621 82.7605 22.6938 83.5147 21.9748C84.2688 21.2557 84.6546 20.4841 84.6721 19.6598C84.6897 18.8355 84.3039 18.0288 83.5322 17.2221L82.287 15.9418L77.5518 20.5367L78.797 21.8169ZM84.1109 16.6433C84.7423 17.2922 85.1632 17.9762 85.3736 18.6602C85.5841 19.3617 85.5841 20.0456 85.3912 20.7296C85.1983 21.4136 84.7774 22.0449 84.1635 22.6412C83.5497 23.2375 82.9184 23.6233 82.2344 23.7987C81.5504 23.9741 80.8665 23.939 80.1825 23.711C79.4985 23.483 78.8321 23.027 78.2007 22.3782L76.3066 20.4315L82.2169 14.6966L84.1109 16.6433ZM79.0951 13.2235L75.4122 10.698L73.8163 13.013L76.5872 14.9071L76.1137 15.5911L73.3428 13.697L71.6767 16.1347L75.3596 18.6602L74.8861 19.3441L70.4315 16.2926L75.0965 9.50548L79.5511 12.557L79.0951 13.2235ZM68.59 11.2592L69.0636 15.5911L68.099 15.1351L67.6781 10.8208L68.59 11.2592ZM69.9054 6.87482C70.4841 7.15542 70.9225 7.4711 71.2031 7.85693C71.4837 8.22522 71.6416 8.62859 71.6591 9.04949C71.6942 9.4704 71.6066 9.87377 71.4136 10.2947C71.2733 10.5928 71.098 10.8383 70.87 11.0488C70.642 11.2592 70.3964 11.4346 70.0808 11.5398C69.7826 11.6451 69.4319 11.6802 69.0636 11.6626C68.6953 11.6275 68.2744 11.5048 67.8359 11.2943L66.0646 10.4525L64.6265 13.4865L63.7672 13.0832L67.2923 5.64718L69.9054 6.87482ZM70.5368 9.87377C70.7472 9.43532 70.7823 9.01442 70.642 8.62859C70.5017 8.24276 70.1334 7.90954 69.5371 7.62894L67.7658 6.78713L66.3803 9.69839L68.1516 10.5402C68.5374 10.7331 68.8882 10.8208 69.1863 10.8033C69.4845 10.8033 69.7476 10.7156 69.9755 10.5577C70.2211 10.3999 70.3965 10.1719 70.5368 9.87377ZM63.7146 5.34904L59.3652 4.34939L58.7339 7.08527L61.9958 7.83939L61.803 8.64613L58.541 7.89201L57.8745 10.7682L62.2239 11.7678L62.031 12.5746L56.7696 11.3645L58.6286 3.3322L63.89 4.5423L63.7146 5.34904ZM49.2284 2.771L55.4017 2.84115L55.3842 3.66542L52.7711 3.63034L52.6833 11.0488L51.7363 11.0313L51.824 3.61281L49.1933 3.57773L49.2284 2.771ZM43.0025 9.66331C43.0727 9.87377 43.213 10.0667 43.3884 10.2421C43.5637 10.4174 43.8093 10.5577 44.0899 10.663C44.3705 10.7507 44.7388 10.7682 45.1421 10.7156C45.7384 10.6279 46.1593 10.4174 46.4049 10.1018C46.6504 9.78608 46.7381 9.43532 46.6855 9.04949C46.6329 8.75135 46.5276 8.50583 46.3347 8.34799C46.1418 8.17261 45.8963 8.04985 45.5981 7.96216C45.3 7.87447 44.9668 7.80432 44.5985 7.76924C44.2828 7.73417 43.9496 7.68155 43.6339 7.62894C43.3182 7.57633 43.0201 7.48864 42.7395 7.36587C42.4589 7.24311 42.2309 7.06773 42.0555 6.83974C41.8626 6.61175 41.7398 6.29607 41.6872 5.91025C41.6171 5.45426 41.6696 5.03336 41.8275 4.66507C41.9853 4.29678 42.266 3.9811 42.6343 3.73557C43.0026 3.49004 43.441 3.3322 43.9846 3.24451C44.4406 3.17436 44.844 3.17436 45.2123 3.26205C45.5806 3.34974 45.8787 3.49004 46.1593 3.68296C46.4224 3.89341 46.6328 4.13894 46.7907 4.41954L46.019 4.84045C45.9313 4.66507 45.8086 4.50723 45.6332 4.36693C45.4578 4.22663 45.2298 4.1214 44.9668 4.05125C44.7037 3.9811 44.4055 3.96356 44.0899 4.01617C43.7742 4.06879 43.5111 4.15647 43.2656 4.31431C43.0376 4.45462 42.8622 4.64753 42.7395 4.87552C42.6167 5.10351 42.5816 5.34904 42.6343 5.64718C42.6869 5.96286 42.8096 6.19085 43.0025 6.34869C43.213 6.50653 43.4585 6.61175 43.7742 6.6819C44.0899 6.75206 44.4231 6.80467 44.7914 6.85728C45.1246 6.90989 45.4578 6.98005 45.7735 7.0502C46.0891 7.12035 46.3698 7.22557 46.6329 7.36587C46.8959 7.50618 47.1064 7.68155 47.2993 7.92708C47.4747 8.15507 47.5974 8.47075 47.65 8.83904C47.7202 9.24241 47.6675 9.64578 47.5272 10.0316C47.3869 10.4174 47.1414 10.7331 46.7731 11.0137C46.4224 11.2768 45.9313 11.4697 45.3175 11.5574C44.8089 11.6275 44.3354 11.6275 43.932 11.5223C43.5287 11.4171 43.1779 11.2592 42.8798 11.0137C42.5992 10.7857 42.3712 10.4876 42.2309 10.1544L43.0025 9.66331ZM37.7412 4.57738L38.6532 4.31431L40.9155 12.2414L40.0036 12.5044L37.7412 4.57738ZM35.0229 7.94462C34.4968 7.54125 33.9706 7.31326 33.3919 7.26065C32.8306 7.20804 32.2695 7.31326 31.7258 7.57633C31.1821 7.82186 30.7612 8.17261 30.428 8.62859C30.1123 9.08457 29.9369 9.59316 29.8843 10.1544C29.8492 10.7331 29.972 11.3294 30.2701 11.9432C30.5507 12.557 30.9366 13.0481 31.3926 13.3813C31.8486 13.7145 32.3571 13.925 32.9008 13.9601C33.4445 14.0127 33.9882 13.9074 34.5318 13.6619C34.9352 13.469 35.286 13.2235 35.5666 12.9253C35.8472 12.6272 36.0576 12.294 36.1979 11.9081C36.3382 11.5223 36.3908 11.1189 36.3557 10.698L35.9524 9.83869L33.3919 11.0313L33.0762 10.3297L36.5136 8.75135L37.2502 10.3473C37.3028 10.9085 37.2502 11.4346 37.0923 11.9608C36.9345 12.4869 36.6539 12.9604 36.2856 13.3988C35.9173 13.8373 35.4438 14.1705 34.9001 14.4336C34.374 14.6791 33.8479 14.8194 33.3042 14.8369C32.7605 14.8545 32.2519 14.7843 31.7609 14.5914C31.2698 14.416 30.8138 14.1354 30.4105 13.7496C30.0071 13.3638 29.6739 12.9078 29.4108 12.329C29.1477 11.7678 29.0074 11.2066 28.9724 10.663C28.9373 10.1018 29.025 9.59316 29.2004 9.08457C29.3757 8.59351 29.6564 8.13753 30.0246 7.7517C30.3929 7.36588 30.8314 7.03266 31.3575 6.78713C31.8486 6.55914 32.3396 6.41884 32.8482 6.38376C33.3568 6.34869 33.8478 6.4013 34.3213 6.5416C34.7949 6.6819 35.2333 6.92743 35.6192 7.27819L35.0229 7.94462ZM25.9559 10.698L22.2555 13.2059L23.8338 15.5384L26.6048 13.6619L27.0608 14.3459L24.2898 16.2224L25.9383 18.6602L29.6388 16.1523L30.0948 16.8362L25.6227 19.8703L21.0102 13.0481L25.4824 10.0141L25.9559 10.698ZM20.1509 20.0632L24.4301 20.8874L23.7111 21.6766L19.4669 20.8173L20.1509 20.0632ZM16.3628 17.5202C16.8012 17.0467 17.2396 16.731 17.6781 16.5732C18.1165 16.4153 18.5374 16.3803 18.9408 16.4855C19.3442 16.5732 19.7125 16.7836 20.0632 17.0818C20.3088 17.2922 20.4841 17.5377 20.642 17.8183C20.7823 18.099 20.87 18.3971 20.8875 18.7128C20.905 19.0285 20.8349 19.3617 20.6946 19.7124C20.5543 20.0632 20.3263 20.4139 19.9931 20.7822L18.6602 22.2379L21.1506 24.5002L20.5192 25.2017L14.4336 19.6423L16.3628 17.5202ZM19.4143 17.7833C19.046 17.4501 18.6602 17.2922 18.2569 17.3098C17.8535 17.3273 17.415 17.5728 16.9766 18.0639L15.6613 19.502L18.0464 21.6766L19.3792 20.221C19.6774 19.9053 19.8528 19.5897 19.9405 19.3091C20.0281 19.0109 20.0281 18.7478 19.9229 18.4848C19.8177 18.2393 19.6423 18.0113 19.4143 17.7833Z" fill="#302290"/>
<path d="M82.7962 82.6202C83.5678 81.8134 83.9536 80.9892 83.9185 80.1824C83.901 79.3757 83.5152 78.604 82.7611 77.9025C82.007 77.1835 81.2178 76.8327 80.3935 76.8502C79.5692 76.8678 78.78 77.2712 78.0083 78.0954L76.7807 79.3757L81.551 83.9179L82.7962 82.6202ZM77.4296 77.5167C78.061 76.8503 78.7099 76.4118 79.3938 76.1663C80.0778 75.9208 80.7793 75.8857 81.4633 76.0611C82.1472 76.2364 82.8137 76.6223 83.4275 77.201C84.0413 77.7797 84.4447 78.4111 84.6552 79.0951C84.8656 79.7615 84.8481 80.463 84.6552 81.147C84.4447 81.8485 84.0238 82.5149 83.41 83.1814L81.5334 85.1456L75.5706 79.4634L77.4296 77.5167ZM74.8165 80.9716L71.1511 83.5146L72.7646 85.8296L75.518 83.9179L75.9915 84.6019L73.2381 86.5135L74.9217 88.9337L78.5871 86.3908L79.0606 87.0747L74.6236 90.1614L69.9235 83.3918L74.3605 80.3052L74.8165 80.9716ZM68.5906 89.074L72.2209 91.5118L71.2388 91.9502L67.6787 89.4949L68.5906 89.074ZM66.0827 85.2508C66.6615 84.9877 67.1876 84.865 67.6611 84.9001C68.1346 84.9351 68.5205 85.0754 68.8712 85.321C69.2044 85.5665 69.4675 85.8997 69.6604 86.3206C69.8007 86.6188 69.8708 86.9169 69.8884 87.215C69.9059 87.5307 69.8709 87.8289 69.7481 88.127C69.6429 88.4251 69.4499 88.7057 69.1869 88.9863C68.9238 89.2494 68.5555 89.4949 68.1171 89.6878L66.3282 90.5121L67.7313 93.5812L66.8719 93.9671L63.4521 86.4785L66.0827 85.2508ZM68.7835 86.6889C68.5731 86.2329 68.275 85.9348 67.9067 85.7945C67.5208 85.6542 67.0298 85.7243 66.4335 85.9874L64.6622 86.7941L65.9951 89.7229L67.7839 88.8987C68.1697 88.7233 68.4679 88.5128 68.6608 88.2848C68.8537 88.0568 68.9589 87.7938 68.9764 87.5132C68.9764 87.2676 68.9238 86.987 68.7835 86.6889ZM62.1893 87.5833L57.84 88.583L58.4714 91.3189L61.7333 90.5647L61.9263 91.3715L58.6642 92.1256L59.3307 95.0018L63.6801 94.0021L63.873 94.8089L58.6116 96.019L56.7526 87.9867L62.014 86.7766L62.1893 87.5833ZM49.4745 88.4602L55.6478 88.3199L55.6653 89.1442L53.0522 89.1968L53.21 96.6152L52.263 96.6328L52.1052 89.2143L49.4745 89.2669V88.4602ZM42.9505 93.8794C42.968 94.0898 43.0382 94.3178 43.1609 94.5458C43.2837 94.7738 43.4766 94.9667 43.7221 95.1421C43.9677 95.3175 44.3009 95.4227 44.7218 95.4753C45.3181 95.563 45.774 95.4753 46.1072 95.2298C46.4405 94.9842 46.6159 94.6686 46.6685 94.3003C46.7035 94.0021 46.6509 93.7391 46.5282 93.5286C46.3879 93.3182 46.195 93.1252 45.9319 92.9499C45.6688 92.792 45.3707 92.6342 45.0375 92.4763C44.7393 92.3536 44.4412 92.2133 44.143 92.073C43.8449 91.9327 43.5819 91.7573 43.3539 91.5644C43.1259 91.3715 42.9505 91.1435 42.8453 90.8629C42.74 90.5823 42.705 90.2491 42.7576 89.8808C42.8102 89.4248 42.9856 89.039 43.2486 88.7233C43.5117 88.4076 43.8625 88.1971 44.2834 88.0568C44.7043 87.9165 45.1778 87.8815 45.7039 87.9516C46.1599 88.0042 46.5457 88.127 46.8789 88.3024C47.2121 88.4777 47.4577 88.7057 47.6681 88.9688C47.861 89.2319 48.0014 89.53 48.0715 89.8632L47.1946 90.0737C47.1596 89.8808 47.0894 89.7054 46.9491 89.5125C46.8088 89.3196 46.6334 89.1617 46.4054 89.0214C46.1774 88.8811 45.8968 88.7934 45.5811 88.7408C45.2655 88.7057 44.9849 88.7233 44.7218 88.7934C44.4587 88.8636 44.2307 89.0039 44.0554 89.1793C43.88 89.3546 43.7748 89.6002 43.7397 89.8808C43.7046 90.1964 43.7572 90.442 43.8975 90.6524C44.0554 90.8629 44.2658 91.0383 44.5464 91.1961C44.827 91.3539 45.1252 91.4942 45.4759 91.6521C45.7741 91.7924 46.0722 91.9502 46.3528 92.1081C46.6334 92.2659 46.8789 92.4413 47.1069 92.6517C47.3174 92.8622 47.4752 93.0902 47.5805 93.3708C47.6857 93.6514 47.7207 93.9671 47.6681 94.3353C47.6155 94.7387 47.4577 95.1245 47.2297 95.4402C46.9842 95.7734 46.6509 96.019 46.23 96.1768C45.8091 96.3346 45.283 96.3873 44.6692 96.2996C44.1606 96.2294 43.7222 96.0891 43.3539 95.8787C42.9856 95.6682 42.6874 95.4051 42.477 95.107C42.2665 94.8089 42.1262 94.4756 42.0911 94.1074L42.9505 93.8794ZM40.2848 87.0397L41.1967 87.2852L38.9694 95.2122L38.0574 94.9667L40.2848 87.0397ZM36.7421 88.6531C36.707 87.9867 36.5317 87.443 36.1985 86.9695C35.8652 86.5135 35.4268 86.1628 34.8656 85.8997C34.322 85.6542 33.7782 85.549 33.2346 85.6016C32.6909 85.6542 32.1823 85.8471 31.7264 86.1978C31.2704 86.5486 30.9021 87.0221 30.6039 87.6535C30.3233 88.2673 30.2006 88.8636 30.2356 89.4423C30.2707 90.0211 30.4636 90.5297 30.7793 90.9681C31.095 91.4241 31.5334 91.7573 32.0771 92.0028C32.4804 92.1957 32.9014 92.2834 33.3047 92.3185C33.7256 92.336 34.1115 92.2834 34.4798 92.1256C34.8481 91.9853 35.1988 91.7573 35.497 91.4592L35.8828 90.5998L33.3047 89.4248L33.6204 88.7233L37.0578 90.2841L36.3212 91.8976C35.9354 92.301 35.4969 92.6166 34.9883 92.8271C34.4797 93.0551 33.9536 93.1603 33.3749 93.1603C32.8137 93.1603 32.2349 93.0376 31.6912 92.7745C31.1651 92.529 30.7092 92.2133 30.3409 91.8275C29.9726 91.4416 29.692 90.9856 29.5166 90.4946C29.3237 90.0035 29.2535 89.4774 29.2711 88.9162C29.2886 88.355 29.4289 87.8113 29.692 87.2326C29.955 86.6714 30.2707 86.1978 30.6741 85.812C31.0774 85.4262 31.5159 85.1456 32.0245 84.9702C32.5155 84.7773 33.0417 84.7071 33.5678 84.7247C34.1115 84.7422 34.6376 84.8825 35.1637 85.1105C35.6548 85.3385 36.0757 85.6191 36.444 85.9874C36.8123 86.3381 37.0753 86.7591 37.2858 87.215C37.4787 87.671 37.5839 88.1621 37.5839 88.6882L36.7421 88.6531ZM30.1655 83.5672L26.5352 80.9716L24.9042 83.269L27.64 85.2157L27.1665 85.8822L24.4307 83.9355L22.7119 86.3381L26.3423 88.9337L25.8688 89.6002L21.4668 86.4609L26.2546 79.7615L30.6565 82.9008L30.1655 83.5672ZM20.3093 80.5156L19.1869 84.7247L18.4503 83.953L19.6078 79.779L20.3093 80.5156ZM23.1153 76.9029C23.5538 77.3764 23.8344 77.8324 23.9747 78.2708C24.0974 78.7268 24.0974 79.1477 23.9747 79.5511C23.8519 79.9544 23.6239 80.3052 23.2907 80.6209C23.0627 80.8488 22.7997 81.0067 22.5191 81.147C22.2385 81.2698 21.9403 81.3224 21.6071 81.3224C21.2914 81.3224 20.9582 81.2347 20.6075 81.0593C20.2742 80.9015 19.9235 80.6384 19.5902 80.2701L18.2399 78.8495L15.8021 81.1645L15.1532 80.4806L21.116 74.7983L23.1153 76.9029ZM22.6418 79.9369C22.9926 79.6037 23.1855 79.2178 23.203 78.8145C23.2205 78.4111 22.9925 77.9551 22.5366 77.4816L21.1862 76.0611L18.8537 78.2883L20.2041 79.7089C20.5022 80.0246 20.7828 80.235 21.081 80.3403C21.3616 80.4455 21.6422 80.463 21.9052 80.3929C22.1508 80.3052 22.3963 80.1649 22.6418 79.9369Z" fill="#302290"/>
<path fill-rule="evenodd" clip-rule="evenodd" d="M96.0887 54.3668L93.3002 52.3325L90.4942 54.3668L91.564 51.0697L88.7579 49.0354L92.2304 49.0529L93.3002 45.7383L94.3525 49.0529L97.825 49.0354L95.0189 51.0697L96.0887 54.3668Z" fill="#2FBA59"/>
<path fill-rule="evenodd" clip-rule="evenodd" d="M9.50604 54.3668L6.7 52.3325L3.91151 54.3668L4.98134 51.0697L2.17529 49.0354L5.64778 49.0529L6.7 45.7383L7.76983 49.0529L11.2423 49.0354L8.43627 51.0697L9.50604 54.3668Z" fill="#2FBA59"/>
<path fill-rule="evenodd" clip-rule="evenodd" d="M90.8626 70.5712L89.1264 69.3085L87.4077 70.5712L88.0742 68.5368L86.3379 67.2741H88.4775L89.1264 65.2397L89.7928 67.2741H91.9324L90.1962 68.5368L90.8626 70.5712Z" fill="#2FBA59"/>
<path fill-rule="evenodd" clip-rule="evenodd" d="M12.5918 70.5712L10.8731 69.3085L9.13684 70.5712L9.80329 68.5368L8.06702 67.2741H10.2066L10.8731 65.2397L11.5219 67.2741H13.6616L11.9253 68.5368L12.5918 70.5712Z" fill="#2FBA59"/>
<path fill-rule="evenodd" clip-rule="evenodd" d="M90.8626 35.4438L89.1264 34.1811L87.4077 35.4438L88.0742 33.3919L86.3379 32.1467H88.4775L89.1264 30.1123L89.7928 32.1467H91.9324L90.1962 33.3919L90.8626 35.4438Z" fill="#2FBA59"/>
<path fill-rule="evenodd" clip-rule="evenodd" d="M12.5918 35.4438L10.8731 34.1811L9.13684 35.4438L9.80329 33.3919L8.06702 32.1467H10.2066L10.8731 30.1123L11.5219 32.1467H13.6616L11.9253 33.3919L12.5918 35.4438Z" fill="#2FBA59"/>
<path d="M73.2196 44.6336V48.7725C73.3423 48.7725 73.4475 48.7901 73.5352 48.7901C73.9211 48.7901 74.1841 48.7024 74.3419 48.5095C74.4822 48.3166 74.5699 47.9307 74.5699 47.3169V45.984C74.5699 45.4228 74.4823 45.0721 74.3069 44.8967C74.114 44.7213 73.7632 44.6336 73.2196 44.6336ZM68.993 41.8627H73.2371C74.3945 41.8627 75.2714 41.9504 75.8853 42.1257C76.4991 42.3011 76.9726 42.5642 77.2708 42.8974C77.5864 43.2482 77.7969 43.6515 77.9021 44.1426C78.0073 44.6336 78.0599 45.3702 78.0599 46.3874V47.808C78.0599 48.8427 77.9547 49.5968 77.7443 50.0703C77.5338 50.5438 77.1305 50.9121 76.5693 51.1577C75.9905 51.4032 75.2539 51.5435 74.3244 51.5435H73.1844V58.0851H68.9579V41.8627H68.993ZM67.2918 41.8627V58.0851H63.5913L63.5738 47.124L62.1007 58.0851H59.5226L57.9793 47.3695L57.9617 58.0851H54.2613V41.8627H59.7155C59.8733 42.8448 60.0312 44.0023 60.2241 45.3176L60.8204 49.439L61.7849 41.8627H67.2918ZM52.6302 47.8606H48.4037V46.3874C48.4037 45.4579 48.3686 44.8792 48.2809 44.6512C48.2108 44.4232 48.0179 44.3004 47.7197 44.3004C47.4742 44.3004 47.2988 44.4056 47.1936 44.5986C47.1059 44.7915 47.0533 45.3176 47.0533 46.1419V53.9286C47.0533 54.6477 47.1059 55.1387 47.1936 55.3667C47.2813 55.5947 47.4742 55.7175 47.7373 55.7175C48.0354 55.7175 48.2458 55.5947 48.351 55.3316C48.4563 55.0686 48.5089 54.56 48.5089 53.8059V51.8767H47.6847V49.4214H52.6127V58.1201H49.947L49.5611 56.9626C49.2805 57.4712 48.9123 57.8395 48.4738 58.1026C48.0354 58.3481 47.5268 58.4884 46.9305 58.4884C46.229 58.4884 45.5626 58.313 44.9488 57.9798C44.335 57.6291 43.8614 57.2082 43.5457 56.6996C43.23 56.191 43.0196 55.6649 42.9495 55.1036C42.8793 54.5424 42.8267 53.7006 42.8267 52.5958V47.7729C42.8267 46.2296 42.9144 45.1072 43.0722 44.4056C43.2476 43.7041 43.7211 43.0552 44.5103 42.4765C45.2995 41.8978 46.3167 41.5996 47.5794 41.5996C48.8071 41.5996 49.8418 41.8451 50.6485 42.3537C51.4553 42.8623 51.9989 43.4586 52.2444 44.1601C52.4899 44.8616 52.6127 45.8788 52.6127 47.2117V47.8606H52.6302ZM39.6699 41.8627V54.8581H42.2128V58.1026H35.4433V41.8802H39.6699V41.8627ZM33.7948 41.8627V52.7185C33.7948 53.9462 33.7597 54.823 33.672 55.3141C33.5843 55.8052 33.3563 56.3313 32.9529 56.8574C32.5671 57.3835 32.041 57.7869 31.3921 58.05C30.7432 58.313 29.9891 58.4534 29.1122 58.4534C28.1476 58.4534 27.2883 58.2955 26.5517 57.9798C25.8151 57.6642 25.2539 57.2432 24.8856 56.7346C24.5173 56.2261 24.3068 55.6824 24.2367 55.1036C24.1665 54.5249 24.1315 53.3323 24.1315 51.4909V41.8802H28.3581V54.0514C28.3581 54.7529 28.3931 55.2089 28.4633 55.4018C28.5334 55.5947 28.6913 55.6999 28.9193 55.6999C29.1823 55.6999 29.3577 55.5947 29.4279 55.3667C29.498 55.1563 29.5331 54.6301 29.5331 53.8234V41.8627H33.7948Z" fill="#FEFEFE"/>
</svg>
