<svg width="48" height="48" viewBox="0 0 48 48" fill="none" xmlns="http://www.w3.org/2000/svg">
<g clip-path="url(#clip0_392_3616)">
<path d="M47.6404 25.1121C47.495 25.3309 47.3397 25.541 47.153 25.7185C42.7508 29.9032 37.8788 33.3841 32.1486 35.5496C29.4939 36.5535 26.7529 37.1474 23.8991 37.1187C20.7884 37.0887 17.8269 36.3423 14.9756 35.152C9.5285 32.8802 4.84564 29.4769 0.637573 25.3884C-0.199279 24.5757 -0.216818 23.438 0.608759 22.6365C5.10622 18.2705 10.1123 14.6597 16.0279 12.4329C19.26 11.2164 22.5937 10.6087 26.0601 10.9713C28.9665 11.2751 31.7214 12.1303 34.3622 13.3531C39.2856 15.6324 43.5914 18.7944 47.4562 22.5715C47.5063 22.6203 47.5527 22.674 47.5965 22.7303C48.1302 23.4205 48.1239 24.3832 47.6404 25.1121ZM24.0669 14.6184C18.8992 14.6197 14.6824 18.8181 14.6736 23.9731C14.6649 29.1518 18.8855 33.3728 24.0707 33.3716C29.2371 33.3703 33.4552 29.1693 33.464 24.0156C33.474 18.8356 29.2547 14.6172 24.0669 14.6184ZM36.1136 18.5731C37.6119 22.1952 37.6107 25.7985 36.1086 29.4231C38.772 27.8765 41.2074 26.0598 43.505 23.9919C41.1898 21.9251 38.7745 20.1097 36.1136 18.5731ZM12.0253 18.5768C9.36314 20.1122 6.93902 21.9326 4.669 23.9643C5.73385 25.1884 10.7299 28.8805 12.0854 29.4369C10.5307 25.8048 10.5232 22.2027 12.0253 18.5768Z" fill="#009688"/>
<path d="M25.2321 0.403913C25.7808 0.841516 26.0025 1.49167 25.9537 2.34812C25.8973 3.34585 25.8798 4.34609 25.9412 5.34382C26.0176 6.57411 25.1958 7.49182 24.0683 7.49182C22.9433 7.49182 22.119 6.57161 22.1954 5.34507C22.258 4.34734 22.2405 3.34835 22.1828 2.35062C22.134 1.49292 22.3557 0.842766 22.9044 0.403913C23.5784 -0.134963 24.5594 -0.134963 25.2321 0.403913Z" fill="#009688"/>
<path d="M12.4563 9.93108C12.658 10.3749 12.6843 10.8826 12.5352 11.3464C12.3724 11.8515 12.0655 12.1954 11.5894 12.4192C10.8954 12.7442 10.1788 12.7067 9.61628 12.1829C8.59903 11.2376 7.60934 10.2587 6.6685 9.23842C6.01831 8.53201 6.11728 7.453 6.78501 6.77284C7.46777 6.07768 8.5652 5.96891 9.2893 6.63156C10.3116 7.57053 11.2887 8.56201 12.2333 9.57975C12.3273 9.68228 12.3987 9.8048 12.4563 9.93108Z" fill="#009688"/>
<path d="M41.6572 7.20173C41.9641 7.82813 41.8777 8.5708 41.5031 9.15969C41.4455 9.24971 41.3816 9.33723 41.3089 9.41725C40.4783 10.3275 39.5876 11.1839 38.7007 12.0416C37.9114 12.8055 36.7438 12.7918 36.0097 12.0404C35.2906 11.3027 35.2956 10.1624 36.051 9.38849C36.9242 8.49453 37.8062 7.60933 38.7057 6.74412C39.3032 6.17024 40.0236 6.04146 40.784 6.38029C41.1887 6.55908 41.473 6.82539 41.6572 7.20173Z" fill="#009688"/>
<path d="M9.97959 35.5832C10.4206 35.3844 10.9254 35.3557 11.3865 35.5032C11.8788 35.6608 12.2195 35.9533 12.4476 36.4109C12.7896 37.0998 12.7745 37.8213 12.2559 38.3826C11.3401 39.3754 10.3892 40.3406 9.39204 41.2508C8.65792 41.9222 7.45651 41.9172 6.76748 41.2008C6.11228 40.5194 6.02333 39.4429 6.67227 38.7427C7.61561 37.7237 8.6078 36.7473 9.62631 35.8045C9.73029 35.712 9.85431 35.6395 9.97959 35.5832Z" fill="#009688"/>
<path d="M41.6948 39.1154C41.8965 39.5643 41.9203 40.0781 41.7612 40.5432C41.5921 41.0359 41.2864 41.3772 40.8141 41.5985C40.1163 41.9248 39.4047 41.8748 38.8422 41.3522C37.8363 40.4182 36.8591 39.4492 35.9233 38.444C35.2606 37.7338 35.347 36.6198 36.0235 35.9384C36.7025 35.2533 37.8137 35.152 38.5316 35.8121C39.5526 36.7524 40.5297 37.7438 41.4731 38.7616C41.567 38.8654 41.6384 38.9891 41.6948 39.1154Z" fill="#009688"/>
<path d="M25.9474 44.2979C25.9474 44.9068 25.9574 45.5144 25.9449 46.1233C25.9236 47.1886 25.1042 48 24.0669 48C23.0309 47.9987 22.2053 47.1848 22.1941 46.1208C22.1803 44.873 22.1803 43.624 22.1941 42.3762C22.2066 41.3109 23.0322 40.4995 24.0707 40.5007C25.1093 40.502 25.9248 41.3122 25.9461 42.3787C25.9574 43.0188 25.9474 43.6577 25.9474 44.2979Z" fill="#009688"/>
<path d="M24.0808 18.3694C27.1814 18.3731 29.7145 20.9175 29.7057 24.0182C29.697 27.1102 27.1426 29.6333 24.0332 29.622C20.9589 29.6095 18.4308 27.0714 18.4308 23.9957C18.432 20.9 20.9764 18.3656 24.0808 18.3694ZM24.0432 25.8699C25.0755 25.8824 25.9336 25.0485 25.9462 24.0207C25.9587 22.9892 25.1244 22.134 24.0933 22.1215C23.0598 22.109 22.2029 22.9417 22.1904 23.9695C22.1791 25.0009 23.0134 25.8574 24.0432 25.8699Z" fill="#009688"/>
</g>
<defs>
<clipPath id="clip0_392_3616">
<rect width="48" height="48" fill="white"/>
</clipPath>
</defs>
</svg>
